<?xml version="1.0" encoding="UTF-8"?>
<svg xmlns="http://www.w3.org/2000/svg" xmlns:xlink="http://www.w3.org/1999/xlink" width="854" height="480" viewBox="0 0 854 480">
<defs>
<g>
<g id="glyph-0-0">
<path d="M 0.0976562 -0.109375 C 0.335938 -0.136719 0.484375 -0.179688 0.546875 -0.242188 C 0.605469 -0.304688 0.636719 -0.46875 0.636719 -0.734375 L 0.636719 -3.378906 C 0.636719 -3.597656 0.601562 -3.742188 0.535156 -3.808594 C 0.46875 -3.875 0.324219 -3.914062 0.0976562 -3.929688 L 0.0976562 -4.042969 L 1.796875 -4.042969 L 1.796875 -3.929688 C 1.570312 -3.914062 1.425781 -3.871094 1.359375 -3.808594 C 1.289062 -3.742188 1.257812 -3.597656 1.257812 -3.378906 L 1.257812 -2.191406 L 3.109375 -2.191406 L 3.109375 -3.378906 C 3.109375 -3.597656 3.074219 -3.742188 3.011719 -3.808594 C 2.945312 -3.875 2.796875 -3.914062 2.570312 -3.929688 L 2.570312 -4.042969 L 4.269531 -4.042969 L 4.269531 -3.929688 C 4.042969 -3.914062 3.898438 -3.871094 3.832031 -3.808594 C 3.765625 -3.742188 3.734375 -3.597656 3.734375 -3.378906 L 3.734375 -0.664062 C 3.734375 -0.441406 3.765625 -0.296875 3.832031 -0.234375 C 3.898438 -0.171875 4.042969 -0.128906 4.269531 -0.109375 L 4.269531 0 L 2.570312 0 L 2.570312 -0.109375 C 2.8125 -0.132812 2.960938 -0.179688 3.019531 -0.242188 C 3.078125 -0.304688 3.109375 -0.46875 3.109375 -0.734375 L 3.109375 -1.921875 L 1.257812 -1.921875 L 1.257812 -0.664062 C 1.257812 -0.441406 1.289062 -0.296875 1.359375 -0.234375 C 1.425781 -0.167969 1.570312 -0.128906 1.796875 -0.109375 L 1.796875 0 L 0.0976562 0 Z "/>
</g>
<g id="glyph-0-1">
<path d="M 0.457031 -0.546875 C 0.570312 -0.546875 0.71875 -0.480469 0.902344 -0.355469 C 1.085938 -0.226562 1.226562 -0.160156 1.328125 -0.160156 C 1.554688 -0.160156 1.757812 -0.261719 1.925781 -0.464844 C 2.097656 -0.667969 2.183594 -0.914062 2.183594 -1.207031 C 2.183594 -1.722656 1.910156 -2.09375 1.359375 -2.320312 C 1.054688 -2.445312 0.773438 -2.507812 0.511719 -2.507812 C 0.46875 -2.507812 0.4375 -2.511719 0.429688 -2.511719 C 0.417969 -2.515625 0.402344 -2.527344 0.386719 -2.546875 C 0.390625 -2.5625 0.394531 -2.574219 0.398438 -2.585938 C 0.402344 -2.597656 0.40625 -2.605469 0.410156 -2.617188 L 1.058594 -4.042969 L 2.339844 -4.042969 C 2.402344 -4.042969 2.453125 -4.054688 2.488281 -4.074219 C 2.523438 -4.097656 2.566406 -4.136719 2.621094 -4.199219 L 2.671875 -4.15625 L 2.4375 -3.605469 C 2.429688 -3.585938 2.40625 -3.574219 2.371094 -3.570312 C 2.335938 -3.566406 2.296875 -3.5625 2.253906 -3.5625 L 1.101562 -3.5625 L 0.847656 -3.039062 C 1.171875 -2.984375 1.414062 -2.933594 1.5625 -2.882812 C 1.8125 -2.796875 2.019531 -2.675781 2.1875 -2.511719 C 2.332031 -2.371094 2.4375 -2.210938 2.511719 -2.035156 C 2.585938 -1.859375 2.621094 -1.671875 2.621094 -1.476562 C 2.621094 -1.039062 2.464844 -0.671875 2.152344 -0.375 C 1.839844 -0.0820312 1.441406 0.0664062 0.964844 0.0664062 C 0.769531 0.0664062 0.613281 0.046875 0.492188 0.0078125 C 0.292969 -0.0546875 0.195312 -0.164062 0.195312 -0.320312 C 0.195312 -0.382812 0.214844 -0.433594 0.257812 -0.480469 C 0.300781 -0.523438 0.367188 -0.546875 0.457031 -0.546875 Z "/>
</g>
</g>
</defs>
<g fill="rgb(61.176471%, 15.294118%, 69.019608%)" fill-opacity="1">
<use xlink:href="#glyph-0-0" x="30" y="24.583008"/>
<use xlink:href="#glyph-0-1" x="34" y="24.583008"/>
</g>
</svg>
