<?xml version="1.0" encoding="UTF-8"?>
<svg xmlns="http://www.w3.org/2000/svg" xmlns:xlink="http://www.w3.org/1999/xlink" width="854" height="480" viewBox="0 0 854 480">
<defs>
<g>
<g id="glyph-0-0">
<path d="M 0.160156 -0.105469 C 0.394531 -0.128906 0.554688 -0.175781 0.636719 -0.25 C 0.722656 -0.320312 0.761719 -0.460938 0.761719 -0.671875 L 0.761719 -4.382812 C 0.761719 -4.550781 0.75 -4.664062 0.722656 -4.726562 C 0.671875 -4.832031 0.570312 -4.886719 0.414062 -4.886719 C 0.378906 -4.886719 0.339844 -4.882812 0.296875 -4.875 C 0.257812 -4.867188 0.203125 -4.855469 0.140625 -4.84375 L 0.140625 -4.96875 C 0.480469 -5.058594 0.894531 -5.179688 1.375 -5.332031 C 1.390625 -5.332031 1.402344 -5.324219 1.40625 -5.308594 C 1.410156 -5.292969 1.414062 -5.261719 1.414062 -5.210938 L 1.414062 -0.65625 C 1.414062 -0.4375 1.449219 -0.292969 1.527344 -0.230469 C 1.601562 -0.164062 1.757812 -0.125 1.996094 -0.105469 L 1.996094 0 L 0.160156 0 Z "/>
</g>
<g id="glyph-0-1">
<path d="M 0.199219 -1.761719 C 0.199219 -2.265625 0.359375 -2.691406 0.679688 -3.039062 C 1 -3.386719 1.410156 -3.5625 1.914062 -3.5625 C 2.414062 -3.5625 2.832031 -3.398438 3.160156 -3.070312 C 3.488281 -2.738281 3.652344 -2.300781 3.652344 -1.753906 C 3.652344 -1.25 3.492188 -0.8125 3.175781 -0.441406 C 2.855469 -0.0703125 2.441406 0.117188 1.9375 0.117188 C 1.449219 0.117188 1.039062 -0.0625 0.703125 -0.417969 C 0.367188 -0.773438 0.199219 -1.222656 0.199219 -1.761719 Z M 1.808594 -3.335938 C 1.609375 -3.335938 1.433594 -3.269531 1.289062 -3.136719 C 1.035156 -2.90625 0.90625 -2.507812 0.90625 -1.945312 C 0.90625 -1.492188 1.007812 -1.074219 1.214844 -0.683594 C 1.417969 -0.292969 1.699219 -0.0976562 2.0625 -0.0976562 C 2.347656 -0.0976562 2.5625 -0.230469 2.71875 -0.488281 C 2.871094 -0.75 2.945312 -1.09375 2.945312 -1.515625 C 2.945312 -1.953125 2.847656 -2.367188 2.65625 -2.753906 C 2.460938 -3.140625 2.175781 -3.335938 1.808594 -3.335938 Z "/>
</g>
</g>
</defs>
<g fill="rgb(100%, 100%, 100%)" fill-opacity="1">
<use xlink:href="#glyph-0-0" x="30" y="25.833008"/>
<use xlink:href="#glyph-0-1" x="32" y="25.833008"/>
</g>
</svg>
