<?xml version="1.0" encoding="UTF-8"?>
<svg xmlns="http://www.w3.org/2000/svg" xmlns:xlink="http://www.w3.org/1999/xlink" width="854" height="480" viewBox="0 0 854 480">
<defs>
<g>
<g id="glyph-0-0">
<path d="M 4.488281 -1.804688 L 3.433594 -2.859375 L 3.433594 -1.988281 L 0.570312 -1.988281 L 0.570312 -1.625 L 3.433594 -1.625 L 3.433594 -0.75 Z "/>
</g>
<g id="glyph-1-0">
<rect x="0" y="0" width="0" height="0" mask="url(#mask-0)"/>
</g>
<g id="glyph-1-1">
<path d="M 1.488281 -0.179688 C 1.742188 -0.179688 1.957031 -0.230469 2.128906 -0.328125 C 2.300781 -0.429688 2.386719 -0.621094 2.386719 -0.902344 C 2.386719 -1.179688 2.285156 -1.371094 2.085938 -1.476562 C 1.882812 -1.578125 1.625 -1.628906 1.3125 -1.628906 C 1.238281 -1.628906 1.1875 -1.628906 1.167969 -1.628906 C 1.148438 -1.628906 1.117188 -1.628906 1.074219 -1.632812 L 1.074219 -0.386719 C 1.074219 -0.300781 1.097656 -0.242188 1.148438 -0.21875 C 1.195312 -0.195312 1.308594 -0.179688 1.488281 -0.179688 Z M 0.0859375 -0.0898438 C 0.289062 -0.101562 0.417969 -0.132812 0.476562 -0.183594 C 0.535156 -0.234375 0.566406 -0.355469 0.566406 -0.542969 L 0.566406 -2.765625 C 0.566406 -2.949219 0.535156 -3.070312 0.476562 -3.121094 C 0.417969 -3.175781 0.289062 -3.207031 0.0859375 -3.214844 L 0.0859375 -3.308594 L 1.488281 -3.308594 C 1.886719 -3.308594 2.203125 -3.242188 2.441406 -3.117188 C 2.675781 -2.988281 2.792969 -2.765625 2.792969 -2.453125 C 2.792969 -2.214844 2.710938 -2.035156 2.546875 -1.914062 C 2.453125 -1.84375 2.3125 -1.785156 2.128906 -1.742188 C 2.359375 -1.6875 2.554688 -1.59375 2.71875 -1.464844 C 2.878906 -1.335938 2.960938 -1.152344 2.960938 -0.921875 C 2.960938 -0.53125 2.78125 -0.261719 2.417969 -0.113281 C 2.226562 -0.0390625 1.996094 0 1.714844 0 L 0.0859375 0 Z M 1.550781 -1.828125 C 1.71875 -1.832031 1.855469 -1.859375 1.96875 -1.910156 C 2.179688 -2.007812 2.285156 -2.183594 2.285156 -2.433594 C 2.285156 -2.730469 2.164062 -2.933594 1.917969 -3.039062 C 1.785156 -3.09375 1.578125 -3.121094 1.304688 -3.121094 C 1.199219 -3.121094 1.136719 -3.113281 1.109375 -3.09375 C 1.085938 -3.078125 1.074219 -3.027344 1.074219 -2.949219 L 1.074219 -1.820312 Z "/>
</g>
<g id="glyph-1-2">
<path d="M 0.101562 -0.0703125 C 0.253906 -0.0820312 0.355469 -0.113281 0.410156 -0.160156 C 0.464844 -0.207031 0.492188 -0.296875 0.492188 -0.433594 L 0.492188 -2.816406 C 0.492188 -2.925781 0.480469 -3 0.464844 -3.039062 C 0.429688 -3.109375 0.367188 -3.140625 0.265625 -3.140625 C 0.242188 -3.140625 0.21875 -3.140625 0.191406 -3.132812 C 0.164062 -3.128906 0.132812 -3.121094 0.0898438 -3.113281 L 0.0898438 -3.195312 C 0.308594 -3.253906 0.574219 -3.328125 0.882812 -3.429688 C 0.894531 -3.429688 0.902344 -3.421875 0.90625 -3.414062 C 0.90625 -3.402344 0.90625 -3.382812 0.90625 -3.351562 L 0.90625 -0.421875 C 0.90625 -0.28125 0.933594 -0.1875 0.980469 -0.148438 C 1.03125 -0.105469 1.132812 -0.078125 1.285156 -0.0703125 L 1.285156 0 L 0.101562 0 Z "/>
</g>
<g id="glyph-1-3">
<path d="M 0.125 -1.132812 C 0.125 -1.457031 0.230469 -1.730469 0.4375 -1.953125 C 0.640625 -2.179688 0.90625 -2.289062 1.230469 -2.289062 C 1.554688 -2.289062 1.820312 -2.183594 2.03125 -1.972656 C 2.242188 -1.761719 2.347656 -1.480469 2.347656 -1.128906 C 2.347656 -0.804688 2.246094 -0.523438 2.039062 -0.28125 C 1.835938 -0.0429688 1.570312 0.0742188 1.246094 0.0742188 C 0.933594 0.0742188 0.667969 -0.0390625 0.453125 -0.269531 C 0.234375 -0.5 0.125 -0.785156 0.125 -1.132812 Z M 1.164062 -2.144531 C 1.035156 -2.144531 0.921875 -2.101562 0.828125 -2.015625 C 0.664062 -1.867188 0.582031 -1.613281 0.582031 -1.25 C 0.582031 -0.960938 0.648438 -0.691406 0.78125 -0.4375 C 0.910156 -0.1875 1.09375 -0.0625 1.324219 -0.0625 C 1.507812 -0.0625 1.648438 -0.148438 1.746094 -0.316406 C 1.84375 -0.484375 1.894531 -0.703125 1.894531 -0.972656 C 1.894531 -1.253906 1.832031 -1.519531 1.707031 -1.769531 C 1.582031 -2.019531 1.398438 -2.144531 1.164062 -2.144531 Z "/>
</g>
<g id="glyph-1-4">
<path d="M 0.0820312 -0.0625 C 0.207031 -0.0742188 0.292969 -0.0976562 0.335938 -0.125 C 0.398438 -0.171875 0.433594 -0.269531 0.433594 -0.410156 L 0.433594 -1.671875 C 0.433594 -1.792969 0.417969 -1.871094 0.382812 -1.910156 C 0.351562 -1.945312 0.300781 -1.964844 0.226562 -1.964844 C 0.191406 -1.964844 0.167969 -1.964844 0.148438 -1.960938 C 0.132812 -1.957031 0.113281 -1.953125 0.0898438 -1.945312 L 0.0898438 -2.027344 L 0.265625 -2.085938 C 0.328125 -2.109375 0.433594 -2.148438 0.578125 -2.203125 C 0.722656 -2.257812 0.800781 -2.285156 0.808594 -2.285156 C 0.816406 -2.285156 0.820312 -2.28125 0.824219 -2.273438 C 0.824219 -2.265625 0.824219 -2.25 0.824219 -2.226562 L 0.824219 -1.898438 C 0.984375 -2.042969 1.125 -2.144531 1.242188 -2.199219 C 1.359375 -2.257812 1.480469 -2.285156 1.605469 -2.285156 C 1.773438 -2.285156 1.90625 -2.226562 2.003906 -2.113281 C 2.054688 -2.050781 2.101562 -1.96875 2.132812 -1.863281 C 2.253906 -1.984375 2.359375 -2.074219 2.449219 -2.132812 C 2.601562 -2.234375 2.761719 -2.285156 2.921875 -2.285156 C 3.183594 -2.285156 3.359375 -2.179688 3.445312 -1.964844 C 3.496094 -1.84375 3.523438 -1.65625 3.523438 -1.394531 L 3.523438 -0.382812 C 3.523438 -0.265625 3.546875 -0.1875 3.601562 -0.144531 C 3.652344 -0.101562 3.742188 -0.078125 3.875 -0.0625 L 3.875 0 L 2.777344 0 L 2.777344 -0.0703125 C 2.917969 -0.0820312 3.011719 -0.109375 3.054688 -0.152344 C 3.101562 -0.195312 3.121094 -0.289062 3.121094 -0.421875 L 3.121094 -1.476562 C 3.121094 -1.632812 3.105469 -1.75 3.070312 -1.824219 C 3.011719 -1.957031 2.894531 -2.023438 2.71875 -2.023438 C 2.613281 -2.023438 2.507812 -1.988281 2.402344 -1.917969 C 2.34375 -1.878906 2.269531 -1.8125 2.179688 -1.722656 L 2.179688 -0.472656 C 2.179688 -0.339844 2.203125 -0.242188 2.25 -0.171875 C 2.296875 -0.105469 2.394531 -0.0703125 2.542969 -0.0625 L 2.542969 0 L 1.421875 0 L 1.421875 -0.0625 C 1.578125 -0.0820312 1.675781 -0.121094 1.71875 -0.175781 C 1.761719 -0.230469 1.78125 -0.367188 1.78125 -0.582031 L 1.78125 -1.265625 C 1.78125 -1.515625 1.765625 -1.691406 1.734375 -1.785156 C 1.679688 -1.945312 1.566406 -2.023438 1.390625 -2.023438 C 1.292969 -2.023438 1.195312 -1.996094 1.097656 -1.941406 C 1.003906 -1.886719 0.917969 -1.816406 0.84375 -1.726562 L 0.84375 -0.394531 C 0.84375 -0.269531 0.867188 -0.183594 0.910156 -0.136719 C 0.953125 -0.0898438 1.046875 -0.0664062 1.191406 -0.0625 L 1.191406 0 L 0.0820312 0 Z "/>
</g>
<g id="glyph-1-5">
<path d="M 1.226562 -0.0507812 C 1.226562 0.113281 1.167969 0.265625 1.046875 0.40625 C 0.929688 0.546875 0.800781 0.652344 0.664062 0.710938 L 0.617188 0.617188 C 0.773438 0.527344 0.882812 0.433594 0.941406 0.328125 C 1 0.226562 1.03125 0.140625 1.03125 0.0742188 C 1.03125 0.0507812 1.023438 0.0351562 1.007812 0.03125 C 0.992188 0.0234375 0.976562 0.0195312 0.960938 0.0195312 L 0.796875 0.0351562 C 0.730469 0.0351562 0.667969 0.015625 0.609375 -0.03125 C 0.554688 -0.0742188 0.523438 -0.140625 0.523438 -0.226562 C 0.523438 -0.289062 0.546875 -0.351562 0.59375 -0.414062 C 0.640625 -0.476562 0.71875 -0.507812 0.828125 -0.507812 C 0.929688 -0.507812 1.023438 -0.46875 1.101562 -0.386719 C 1.183594 -0.304688 1.226562 -0.195312 1.226562 -0.0507812 Z "/>
</g>
<g id="glyph-1-6">
<path d="M 0.0546875 -0.0898438 C 0.261719 -0.109375 0.394531 -0.160156 0.453125 -0.230469 C 0.511719 -0.304688 0.542969 -0.472656 0.542969 -0.734375 L 0.542969 -2.765625 C 0.542969 -2.945312 0.511719 -3.0625 0.457031 -3.117188 C 0.398438 -3.171875 0.269531 -3.207031 0.0703125 -3.214844 L 0.0703125 -3.308594 L 1.058594 -3.308594 L 2.214844 -0.785156 L 3.320312 -3.308594 L 4.316406 -3.308594 L 4.316406 -3.214844 C 4.132812 -3.203125 4.011719 -3.167969 3.957031 -3.113281 C 3.902344 -3.058594 3.875 -2.945312 3.875 -2.765625 L 3.875 -0.542969 C 3.875 -0.359375 3.902344 -0.242188 3.957031 -0.191406 C 4.011719 -0.140625 4.132812 -0.105469 4.316406 -0.0898438 L 4.316406 0 L 2.914062 0 L 2.914062 -0.0898438 C 3.117188 -0.105469 3.242188 -0.144531 3.292969 -0.199219 C 3.34375 -0.253906 3.367188 -0.390625 3.367188 -0.601562 L 3.367188 -2.847656 L 2.085938 0 L 2.019531 0 L 0.761719 -2.730469 L 0.761719 -0.734375 C 0.761719 -0.460938 0.800781 -0.28125 0.882812 -0.199219 C 0.933594 -0.144531 1.050781 -0.109375 1.230469 -0.0898438 L 1.230469 0 L 0.0546875 0 Z "/>
</g>
<g id="glyph-1-7">
<path d="M 2.164062 -2.398438 C 2.164062 -2.707031 2.03125 -2.914062 1.765625 -3.03125 C 1.625 -3.09375 1.445312 -3.121094 1.230469 -3.121094 C 1.128906 -3.121094 1.066406 -3.113281 1.042969 -3.09375 C 1.019531 -3.070312 1.007812 -3.027344 1.007812 -2.957031 L 1.007812 -1.652344 C 1.097656 -1.644531 1.152344 -1.640625 1.179688 -1.636719 C 1.207031 -1.636719 1.234375 -1.636719 1.261719 -1.636719 C 1.492188 -1.636719 1.671875 -1.667969 1.804688 -1.734375 C 2.042969 -1.851562 2.164062 -2.074219 2.164062 -2.398438 Z M 0.0820312 -0.0898438 C 0.273438 -0.109375 0.390625 -0.144531 0.4375 -0.203125 C 0.484375 -0.261719 0.507812 -0.394531 0.507812 -0.601562 L 0.507812 -2.765625 C 0.507812 -2.941406 0.480469 -3.054688 0.429688 -3.109375 C 0.375 -3.164062 0.257812 -3.199219 0.0820312 -3.214844 L 0.0820312 -3.308594 L 1.398438 -3.308594 C 1.820312 -3.308594 2.144531 -3.226562 2.371094 -3.0625 C 2.59375 -2.898438 2.707031 -2.679688 2.707031 -2.414062 C 2.707031 -2.074219 2.582031 -1.824219 2.335938 -1.671875 C 2.085938 -1.519531 1.773438 -1.441406 1.398438 -1.441406 C 1.34375 -1.441406 1.277344 -1.445312 1.191406 -1.445312 C 1.109375 -1.449219 1.046875 -1.449219 1.007812 -1.449219 L 1.007812 -0.542969 C 1.007812 -0.351562 1.035156 -0.234375 1.09375 -0.1875 C 1.152344 -0.136719 1.28125 -0.105469 1.480469 -0.0898438 L 1.480469 0 L 0.0820312 0 Z "/>
</g>
<g id="glyph-1-8">
<path d="M 0.0976562 -3.308594 L 2.921875 -3.308594 L 2.949219 -2.457031 L 2.828125 -2.457031 C 2.769531 -2.726562 2.695312 -2.898438 2.605469 -2.980469 C 2.515625 -3.0625 2.324219 -3.101562 2.035156 -3.101562 L 1.757812 -3.101562 L 1.757812 -0.542969 C 1.757812 -0.347656 1.789062 -0.226562 1.847656 -0.183594 C 1.90625 -0.136719 2.039062 -0.105469 2.242188 -0.0898438 L 2.242188 0 L 0.785156 0 L 0.785156 -0.0898438 C 0.996094 -0.105469 1.128906 -0.140625 1.179688 -0.195312 C 1.234375 -0.25 1.257812 -0.382812 1.257812 -0.601562 L 1.257812 -3.101562 L 0.980469 -3.101562 C 0.703125 -3.101562 0.515625 -3.0625 0.417969 -2.980469 C 0.316406 -2.902344 0.242188 -2.726562 0.191406 -2.457031 L 0.0703125 -2.457031 Z "/>
</g>
</g>
<image id="source-88" x="0" y="0" width="0" height="0"/>
<mask id="mask-0">
<use xlink:href="#source-88"/>
</mask>
</defs>
<g fill="rgb(93.333333%, 93.333333%, 93.333333%)" fill-opacity="1">
<use xlink:href="#glyph-0-0" x="30" y="24.833984"/>
</g>
<g fill="rgb(93.333333%, 93.333333%, 93.333333%)" fill-opacity="1">
<use xlink:href="#glyph-1-0" x="35" y="24.833984"/>
<use xlink:href="#glyph-1-1" x="36" y="24.833984"/>
<use xlink:href="#glyph-1-2" x="39" y="24.833984"/>
<use xlink:href="#glyph-1-3" x="40" y="24.833984"/>
<use xlink:href="#glyph-1-3" x="43" y="24.833984"/>
<use xlink:href="#glyph-1-4" x="46" y="24.833984"/>
<use xlink:href="#glyph-1-5" x="50" y="24.833984"/>
<use xlink:href="#glyph-1-0" x="51" y="24.833984"/>
<use xlink:href="#glyph-1-6" x="52" y="24.833984"/>
<use xlink:href="#glyph-1-7" x="56" y="24.833984"/>
<use xlink:href="#glyph-1-8" x="59" y="24.833984"/>
</g>
</svg>
