<?xml version="1.0" encoding="UTF-8"?>
<svg xmlns="http://www.w3.org/2000/svg" xmlns:xlink="http://www.w3.org/1999/xlink" width="854" height="480" viewBox="0 0 854 480">
<defs>
<g>
<g id="glyph-0-0">
<path d="M 0.121094 -4.042969 L 3.570312 -4.042969 L 3.605469 -3.003906 L 3.457031 -3.003906 C 3.386719 -3.332031 3.296875 -3.542969 3.183594 -3.640625 C 3.074219 -3.738281 2.84375 -3.789062 2.488281 -3.789062 L 2.148438 -3.789062 L 2.148438 -0.664062 C 2.148438 -0.425781 2.183594 -0.277344 2.257812 -0.222656 C 2.332031 -0.164062 2.492188 -0.128906 2.742188 -0.109375 L 2.742188 0 L 0.960938 0 L 0.960938 -0.109375 C 1.21875 -0.128906 1.378906 -0.171875 1.445312 -0.238281 C 1.507812 -0.304688 1.539062 -0.46875 1.539062 -0.734375 L 1.539062 -3.789062 L 1.199219 -3.789062 C 0.859375 -3.789062 0.632812 -3.742188 0.507812 -3.644531 C 0.386719 -3.546875 0.292969 -3.332031 0.234375 -3.003906 L 0.0820312 -3.003906 Z "/>
</g>
<g id="glyph-0-1">
<path d="M 0.15625 -1.382812 C 0.15625 -1.78125 0.28125 -2.113281 0.53125 -2.386719 C 0.785156 -2.660156 1.109375 -2.796875 1.503906 -2.796875 C 1.898438 -2.796875 2.222656 -2.667969 2.480469 -2.410156 C 2.742188 -2.152344 2.871094 -1.808594 2.871094 -1.378906 C 2.871094 -0.984375 2.746094 -0.636719 2.496094 -0.347656 C 2.246094 -0.0546875 1.917969 0.09375 1.523438 0.09375 C 1.140625 0.09375 0.816406 -0.046875 0.550781 -0.328125 C 0.285156 -0.609375 0.15625 -0.960938 0.15625 -1.382812 Z M 1.421875 -2.621094 C 1.261719 -2.621094 1.125 -2.566406 1.011719 -2.464844 C 0.8125 -2.285156 0.714844 -1.972656 0.714844 -1.527344 C 0.714844 -1.171875 0.792969 -0.84375 0.953125 -0.535156 C 1.113281 -0.230469 1.335938 -0.078125 1.621094 -0.078125 C 1.84375 -0.078125 2.015625 -0.179688 2.132812 -0.386719 C 2.253906 -0.589844 2.316406 -0.859375 2.316406 -1.191406 C 2.316406 -1.535156 2.238281 -1.859375 2.085938 -2.164062 C 1.933594 -2.46875 1.710938 -2.621094 1.421875 -2.621094 Z "/>
</g>
<g id="glyph-0-2">
<path d="M 0.976562 -0.550781 C 1.027344 -0.414062 1.105469 -0.3125 1.207031 -0.246094 C 1.308594 -0.179688 1.429688 -0.144531 1.570312 -0.144531 C 1.785156 -0.144531 1.96875 -0.253906 2.121094 -0.46875 C 2.273438 -0.679688 2.347656 -0.980469 2.347656 -1.359375 C 2.347656 -1.726562 2.269531 -2 2.109375 -2.179688 C 1.953125 -2.363281 1.769531 -2.453125 1.558594 -2.453125 C 1.414062 -2.453125 1.277344 -2.40625 1.15625 -2.316406 C 1.035156 -2.226562 0.976562 -2.136719 0.976562 -2.050781 Z M 0.0273438 1.230469 C 0.214844 1.21875 0.332031 1.179688 0.382812 1.113281 C 0.433594 1.046875 0.460938 0.9375 0.460938 0.792969 L 0.460938 -2.070312 C 0.460938 -2.222656 0.441406 -2.320312 0.402344 -2.363281 C 0.367188 -2.40625 0.296875 -2.425781 0.195312 -2.425781 C 0.175781 -2.425781 0.15625 -2.425781 0.136719 -2.421875 C 0.117188 -2.421875 0.0898438 -2.417969 0.0546875 -2.410156 L 0.0546875 -2.507812 L 0.335938 -2.601562 C 0.347656 -2.605469 0.546875 -2.671875 0.9375 -2.808594 C 0.945312 -2.808594 0.953125 -2.804688 0.960938 -2.792969 C 0.964844 -2.785156 0.964844 -2.773438 0.964844 -2.761719 L 0.964844 -2.359375 C 1.097656 -2.492188 1.214844 -2.589844 1.3125 -2.652344 C 1.492188 -2.765625 1.675781 -2.820312 1.863281 -2.820312 C 2.140625 -2.820312 2.375 -2.703125 2.574219 -2.46875 C 2.773438 -2.234375 2.871094 -1.914062 2.871094 -1.507812 C 2.871094 -1.109375 2.75 -0.75 2.511719 -0.425781 C 2.273438 -0.101562 1.976562 0.0585938 1.617188 0.0585938 C 1.503906 0.0585938 1.410156 0.046875 1.328125 0.0195312 C 1.199219 -0.0234375 1.082031 -0.101562 0.976562 -0.210938 L 0.976562 0.765625 C 0.976562 0.964844 1.007812 1.089844 1.074219 1.132812 C 1.140625 1.179688 1.28125 1.210938 1.503906 1.226562 L 1.503906 1.332031 L 0.0273438 1.332031 Z "/>
</g>
<g id="glyph-0-3">
<path d="M 0.238281 -1.570312 L 1.738281 -1.570312 L 1.738281 -1.1875 L 0.238281 -1.1875 Z "/>
</g>
</g>
</defs>
<g fill="rgb(29.803922%, 68.627451%, 31.372549%)" fill-opacity="1">
<use xlink:href="#glyph-0-0" x="30" y="24.583008"/>
<use xlink:href="#glyph-0-1" x="34" y="24.583008"/>
<use xlink:href="#glyph-0-2" x="37" y="24.583008"/>
<use xlink:href="#glyph-0-3" x="40" y="24.583008"/>
<use xlink:href="#glyph-0-2" x="42" y="24.583008"/>
</g>
</svg>
