<?xml version="1.0" encoding="UTF-8"?>
<svg xmlns="http://www.w3.org/2000/svg" xmlns:xlink="http://www.w3.org/1999/xlink" width="854" height="480" viewBox="0 0 854 480">
<defs>
<g>
<g id="glyph-0-0">
<path d="M 1.488281 -0.179688 C 1.742188 -0.179688 1.957031 -0.230469 2.128906 -0.328125 C 2.300781 -0.429688 2.386719 -0.621094 2.386719 -0.902344 C 2.386719 -1.179688 2.285156 -1.371094 2.085938 -1.476562 C 1.882812 -1.578125 1.625 -1.628906 1.3125 -1.628906 C 1.238281 -1.628906 1.1875 -1.628906 1.167969 -1.628906 C 1.148438 -1.628906 1.117188 -1.628906 1.074219 -1.632812 L 1.074219 -0.386719 C 1.074219 -0.300781 1.097656 -0.242188 1.148438 -0.21875 C 1.195312 -0.195312 1.308594 -0.179688 1.488281 -0.179688 Z M 0.0859375 -0.0898438 C 0.289062 -0.101562 0.417969 -0.132812 0.476562 -0.183594 C 0.535156 -0.234375 0.566406 -0.355469 0.566406 -0.542969 L 0.566406 -2.765625 C 0.566406 -2.949219 0.535156 -3.070312 0.476562 -3.121094 C 0.417969 -3.175781 0.289062 -3.207031 0.0859375 -3.214844 L 0.0859375 -3.308594 L 1.488281 -3.308594 C 1.886719 -3.308594 2.203125 -3.242188 2.441406 -3.117188 C 2.675781 -2.988281 2.792969 -2.765625 2.792969 -2.453125 C 2.792969 -2.214844 2.710938 -2.035156 2.546875 -1.914062 C 2.453125 -1.84375 2.3125 -1.785156 2.128906 -1.742188 C 2.359375 -1.6875 2.554688 -1.59375 2.71875 -1.464844 C 2.878906 -1.335938 2.960938 -1.152344 2.960938 -0.921875 C 2.960938 -0.53125 2.78125 -0.261719 2.417969 -0.113281 C 2.226562 -0.0390625 1.996094 0 1.714844 0 L 0.0859375 0 Z M 1.550781 -1.828125 C 1.71875 -1.832031 1.855469 -1.859375 1.96875 -1.910156 C 2.179688 -2.007812 2.285156 -2.183594 2.285156 -2.433594 C 2.285156 -2.730469 2.164062 -2.933594 1.917969 -3.039062 C 1.785156 -3.09375 1.578125 -3.121094 1.304688 -3.121094 C 1.199219 -3.121094 1.136719 -3.113281 1.109375 -3.09375 C 1.085938 -3.078125 1.074219 -3.027344 1.074219 -2.949219 L 1.074219 -1.820312 Z "/>
</g>
<g id="glyph-0-1">
<path d="M 2.164062 -2.398438 C 2.164062 -2.707031 2.03125 -2.914062 1.765625 -3.03125 C 1.625 -3.09375 1.445312 -3.121094 1.230469 -3.121094 C 1.128906 -3.121094 1.066406 -3.113281 1.042969 -3.09375 C 1.019531 -3.070312 1.007812 -3.027344 1.007812 -2.957031 L 1.007812 -1.652344 C 1.097656 -1.644531 1.152344 -1.640625 1.179688 -1.636719 C 1.207031 -1.636719 1.234375 -1.636719 1.261719 -1.636719 C 1.492188 -1.636719 1.671875 -1.667969 1.804688 -1.734375 C 2.042969 -1.851562 2.164062 -2.074219 2.164062 -2.398438 Z M 0.0820312 -0.0898438 C 0.273438 -0.109375 0.390625 -0.144531 0.4375 -0.203125 C 0.484375 -0.261719 0.507812 -0.394531 0.507812 -0.601562 L 0.507812 -2.765625 C 0.507812 -2.941406 0.480469 -3.054688 0.429688 -3.109375 C 0.375 -3.164062 0.257812 -3.199219 0.0820312 -3.214844 L 0.0820312 -3.308594 L 1.398438 -3.308594 C 1.820312 -3.308594 2.144531 -3.226562 2.371094 -3.0625 C 2.59375 -2.898438 2.707031 -2.679688 2.707031 -2.414062 C 2.707031 -2.074219 2.582031 -1.824219 2.335938 -1.671875 C 2.085938 -1.519531 1.773438 -1.441406 1.398438 -1.441406 C 1.34375 -1.441406 1.277344 -1.445312 1.191406 -1.445312 C 1.109375 -1.449219 1.046875 -1.449219 1.007812 -1.449219 L 1.007812 -0.542969 C 1.007812 -0.351562 1.035156 -0.234375 1.09375 -0.1875 C 1.152344 -0.136719 1.28125 -0.105469 1.480469 -0.0898438 L 1.480469 0 L 0.0820312 0 Z "/>
</g>
<g id="glyph-0-2">
<path d="M 0.0546875 -0.0898438 C 0.238281 -0.109375 0.359375 -0.144531 0.414062 -0.1875 C 0.46875 -0.234375 0.496094 -0.351562 0.496094 -0.542969 L 0.496094 -2.765625 C 0.496094 -2.945312 0.46875 -3.058594 0.414062 -3.113281 C 0.359375 -3.167969 0.242188 -3.203125 0.0546875 -3.214844 L 0.0546875 -3.308594 L 2.710938 -3.308594 L 2.730469 -2.589844 L 2.601562 -2.589844 C 2.558594 -2.8125 2.496094 -2.953125 2.414062 -3.019531 C 2.328125 -3.085938 2.140625 -3.117188 1.84375 -3.117188 L 1.167969 -3.117188 C 1.09375 -3.117188 1.046875 -3.105469 1.03125 -3.082031 C 1.015625 -3.058594 1.007812 -3.015625 1.007812 -2.949219 L 1.007812 -1.832031 L 1.773438 -1.832031 C 1.988281 -1.832031 2.125 -1.867188 2.183594 -1.929688 C 2.242188 -1.992188 2.289062 -2.121094 2.324219 -2.3125 L 2.441406 -2.3125 L 2.441406 -1.15625 L 2.324219 -1.15625 C 2.285156 -1.351562 2.238281 -1.480469 2.179688 -1.542969 C 2.121094 -1.605469 1.988281 -1.636719 1.773438 -1.636719 L 1.007812 -1.636719 L 1.007812 -0.398438 C 1.007812 -0.296875 1.039062 -0.238281 1.101562 -0.222656 C 1.164062 -0.203125 1.351562 -0.195312 1.664062 -0.195312 C 2 -0.195312 2.25 -0.230469 2.414062 -0.304688 C 2.574219 -0.378906 2.71875 -0.558594 2.847656 -0.84375 L 2.984375 -0.84375 L 2.757812 0 L 0.0546875 0 Z "/>
</g>
<g id="glyph-0-3">
<rect x="0" y="0" width="0" height="0" mask="url(#mask-0)"/>
</g>
<g id="glyph-0-4">
<path d="M 0.734375 -1.625 C 0.847656 -1.625 1.070312 -1.558594 1.398438 -1.425781 C 1.730469 -1.292969 1.941406 -1.226562 2.03125 -1.226562 C 2.152344 -1.226562 2.253906 -1.28125 2.335938 -1.394531 C 2.382812 -1.457031 2.441406 -1.570312 2.503906 -1.734375 L 2.632812 -1.734375 C 2.550781 -1.414062 2.453125 -1.191406 2.339844 -1.074219 C 2.226562 -0.957031 2.09375 -0.894531 1.945312 -0.894531 C 1.804688 -0.894531 1.574219 -0.964844 1.25 -1.101562 C 0.929688 -1.238281 0.730469 -1.304688 0.65625 -1.304688 C 0.523438 -1.304688 0.410156 -1.234375 0.316406 -1.09375 C 0.269531 -1.019531 0.222656 -0.921875 0.183594 -0.796875 L 0.0703125 -0.796875 C 0.125 -1.03125 0.183594 -1.203125 0.25 -1.320312 C 0.371094 -1.523438 0.53125 -1.625 0.734375 -1.625 Z "/>
</g>
<g id="glyph-0-5">
<path d="M 0.375 -0.445312 C 0.46875 -0.445312 0.589844 -0.394531 0.738281 -0.289062 C 0.890625 -0.183594 1.003906 -0.132812 1.085938 -0.132812 C 1.273438 -0.132812 1.4375 -0.214844 1.578125 -0.378906 C 1.71875 -0.542969 1.789062 -0.746094 1.789062 -0.988281 C 1.789062 -1.410156 1.5625 -1.714844 1.113281 -1.898438 C 0.863281 -2 0.632812 -2.054688 0.417969 -2.054688 C 0.382812 -2.054688 0.359375 -2.054688 0.351562 -2.058594 C 0.34375 -2.058594 0.332031 -2.066406 0.316406 -2.082031 C 0.320312 -2.09375 0.324219 -2.105469 0.324219 -2.117188 C 0.328125 -2.125 0.332031 -2.132812 0.335938 -2.140625 L 0.867188 -3.308594 L 1.914062 -3.308594 C 1.964844 -3.308594 2.007812 -3.316406 2.035156 -3.335938 C 2.0625 -3.351562 2.101562 -3.386719 2.144531 -3.433594 L 2.183594 -3.402344 L 1.996094 -2.949219 C 1.988281 -2.933594 1.96875 -2.925781 1.941406 -2.921875 C 1.910156 -2.917969 1.878906 -2.914062 1.84375 -2.914062 L 0.902344 -2.914062 L 0.695312 -2.488281 C 0.960938 -2.441406 1.15625 -2.398438 1.28125 -2.359375 C 1.484375 -2.289062 1.652344 -2.1875 1.789062 -2.054688 C 1.90625 -1.941406 1.996094 -1.808594 2.054688 -1.667969 C 2.117188 -1.523438 2.144531 -1.371094 2.144531 -1.207031 C 2.144531 -0.847656 2.019531 -0.546875 1.761719 -0.308594 C 1.503906 -0.0664062 1.179688 0.0546875 0.789062 0.0546875 C 0.628906 0.0546875 0.5 0.0390625 0.402344 0.0078125 C 0.238281 -0.0429688 0.160156 -0.132812 0.160156 -0.265625 C 0.160156 -0.3125 0.175781 -0.355469 0.210938 -0.390625 C 0.246094 -0.429688 0.300781 -0.445312 0.375 -0.445312 Z "/>
</g>
<g id="glyph-0-6">
<path d="M 1.195312 -0.0898438 C 1.433594 -0.0898438 1.601562 -0.222656 1.6875 -0.484375 C 1.777344 -0.746094 1.824219 -1.125 1.824219 -1.621094 C 1.824219 -2.015625 1.796875 -2.332031 1.742188 -2.570312 C 1.640625 -3.007812 1.453125 -3.226562 1.175781 -3.226562 C 0.898438 -3.226562 0.710938 -3 0.609375 -2.546875 C 0.554688 -2.308594 0.527344 -1.992188 0.527344 -1.597656 C 0.527344 -1.226562 0.554688 -0.933594 0.609375 -0.710938 C 0.714844 -0.296875 0.910156 -0.0898438 1.195312 -0.0898438 Z M 1.1875 -3.359375 C 1.5625 -3.359375 1.855469 -3.164062 2.0625 -2.769531 C 2.226562 -2.453125 2.308594 -2.089844 2.308594 -1.675781 C 2.308594 -1.351562 2.257812 -1.046875 2.15625 -0.761719 C 1.964844 -0.222656 1.636719 0.046875 1.167969 0.046875 C 0.847656 0.046875 0.582031 -0.0976562 0.375 -0.390625 C 0.15625 -0.703125 0.0429688 -1.125 0.0429688 -1.65625 C 0.0429688 -2.078125 0.117188 -2.4375 0.265625 -2.742188 C 0.464844 -3.152344 0.773438 -3.359375 1.1875 -3.359375 Z "/>
</g>
<g id="glyph-0-7">
<path d="M 0.0078125 -0.0703125 C 0.164062 -0.0820312 0.269531 -0.105469 0.320312 -0.148438 C 0.367188 -0.1875 0.394531 -0.273438 0.394531 -0.410156 L 0.394531 -2.855469 C 0.394531 -2.972656 0.375 -3.046875 0.335938 -3.078125 C 0.296875 -3.109375 0.238281 -3.121094 0.164062 -3.121094 C 0.132812 -3.121094 0.109375 -3.121094 0.0859375 -3.121094 C 0.0625 -3.117188 0.0390625 -3.117188 0.0078125 -3.113281 L 0.0078125 -3.179688 L 0.230469 -3.238281 C 0.398438 -3.28125 0.539062 -3.324219 0.65625 -3.363281 C 0.726562 -3.386719 0.769531 -3.402344 0.78125 -3.402344 C 0.789062 -3.402344 0.796875 -3.398438 0.800781 -3.394531 C 0.800781 -3.390625 0.804688 -3.382812 0.804688 -3.367188 L 0.804688 -1.3125 L 1.480469 -1.910156 C 1.527344 -1.953125 1.5625 -1.988281 1.578125 -2.015625 C 1.59375 -2.039062 1.605469 -2.0625 1.605469 -2.082031 C 1.605469 -2.121094 1.585938 -2.144531 1.550781 -2.152344 C 1.511719 -2.164062 1.445312 -2.171875 1.351562 -2.175781 L 1.351562 -2.242188 L 2.371094 -2.242188 L 2.371094 -2.175781 C 2.1875 -2.164062 2.042969 -2.128906 1.929688 -2.066406 C 1.820312 -2.003906 1.609375 -1.832031 1.292969 -1.542969 L 1.148438 -1.410156 L 1.601562 -0.824219 C 1.832031 -0.523438 2.007812 -0.328125 2.125 -0.226562 C 2.242188 -0.128906 2.367188 -0.0742188 2.496094 -0.0625 L 2.496094 0 L 1.410156 0 L 1.410156 -0.0703125 L 1.496094 -0.0742188 C 1.523438 -0.0742188 1.550781 -0.0820312 1.570312 -0.0898438 C 1.59375 -0.101562 1.605469 -0.117188 1.605469 -0.140625 C 1.605469 -0.15625 1.601562 -0.171875 1.59375 -0.1875 C 1.585938 -0.203125 1.574219 -0.222656 1.558594 -0.242188 L 0.804688 -1.238281 L 0.804688 -0.335938 C 0.804688 -0.222656 0.84375 -0.148438 0.929688 -0.109375 C 0.976562 -0.0859375 1.058594 -0.0742188 1.179688 -0.0742188 L 1.179688 0 L 0.0078125 0 Z "/>
</g>
</g>
<image id="source-72" x="0" y="0" width="0" height="0"/>
<mask id="mask-0">
<use xlink:href="#source-72"/>
</mask>
</defs>
<g fill="rgb(29.803922%, 68.627451%, 31.372549%)" fill-opacity="1">
<use xlink:href="#glyph-0-0" x="30" y="23.75"/>
<use xlink:href="#glyph-0-1" x="33" y="23.75"/>
<use xlink:href="#glyph-0-2" x="36" y="23.75"/>
<use xlink:href="#glyph-0-3" x="39" y="23.75"/>
</g>
<g fill="rgb(29.803922%, 68.627451%, 31.372549%)" fill-opacity="1">
<use xlink:href="#glyph-0-4" x="30" y="28.625"/>
<use xlink:href="#glyph-0-5" x="33" y="28.625"/>
<use xlink:href="#glyph-0-6" x="36" y="28.625"/>
<use xlink:href="#glyph-0-7" x="39" y="28.625"/>
</g>
</svg>
