<?xml version="1.0" encoding="UTF-8"?>
<svg xmlns="http://www.w3.org/2000/svg" xmlns:xlink="http://www.w3.org/1999/xlink" width="854" height="480" viewBox="0 0 854 480">
<defs>
<g>
<g id="glyph-0-0">
<path d="M 0.875 -2.019531 C 0.875 -1.378906 1 -0.902344 1.253906 -0.59375 C 1.507812 -0.289062 1.816406 -0.132812 2.183594 -0.132812 C 2.542969 -0.132812 2.851562 -0.285156 3.105469 -0.582031 C 3.363281 -0.882812 3.492188 -1.363281 3.492188 -2.019531 C 3.492188 -2.6875 3.363281 -3.167969 3.101562 -3.464844 C 2.84375 -3.761719 2.539062 -3.910156 2.183594 -3.910156 C 1.816406 -3.910156 1.507812 -3.753906 1.253906 -3.449219 C 1 -3.140625 0.875 -2.664062 0.875 -2.019531 Z M 0.183594 -2.019531 C 0.183594 -2.671875 0.386719 -3.195312 0.796875 -3.589844 C 1.171875 -3.949219 1.636719 -4.128906 2.183594 -4.128906 C 2.726562 -4.128906 3.183594 -3.953125 3.5625 -3.59375 C 3.976562 -3.203125 4.1875 -2.679688 4.1875 -2.019531 C 4.1875 -1.5 4.054688 -1.058594 3.789062 -0.699219 C 3.503906 -0.3125 3.097656 -0.0664062 2.570312 0.0351562 C 2.816406 0.390625 3.117188 0.644531 3.46875 0.792969 C 3.664062 0.875 3.929688 0.9375 4.261719 0.980469 L 4.261719 1.089844 L 4.011719 1.089844 C 3.683594 1.089844 3.390625 1.0625 3.132812 1.007812 C 2.878906 0.953125 2.644531 0.875 2.4375 0.765625 C 2.230469 0.65625 2.035156 0.507812 1.855469 0.316406 C 1.679688 0.125 1.582031 0.0234375 1.558594 0.015625 L 1.484375 -0.0195312 C 1.144531 -0.175781 0.882812 -0.355469 0.699219 -0.558594 C 0.355469 -0.929688 0.183594 -1.417969 0.183594 -2.019531 Z "/>
</g>
<g id="glyph-0-1">
<path d="M 1.957031 -2.535156 C 2.152344 -2.644531 2.300781 -2.746094 2.402344 -2.84375 C 2.582031 -3.015625 2.671875 -3.203125 2.671875 -3.410156 C 2.671875 -3.566406 2.625 -3.691406 2.535156 -3.785156 C 2.445312 -3.882812 2.328125 -3.929688 2.191406 -3.929688 C 2.039062 -3.929688 1.921875 -3.878906 1.839844 -3.78125 C 1.757812 -3.683594 1.714844 -3.554688 1.714844 -3.394531 C 1.714844 -3.269531 1.738281 -3.132812 1.78125 -2.988281 C 1.828125 -2.84375 1.886719 -2.691406 1.957031 -2.535156 Z M 1.605469 -0.238281 C 1.714844 -0.238281 1.851562 -0.269531 2.011719 -0.335938 C 2.171875 -0.398438 2.320312 -0.5 2.46875 -0.636719 C 2.28125 -0.875 2.132812 -1.074219 2.03125 -1.238281 C 1.925781 -1.402344 1.761719 -1.6875 1.539062 -2.089844 C 1.335938 -1.96875 1.175781 -1.847656 1.066406 -1.726562 C 0.902344 -1.539062 0.816406 -1.324219 0.816406 -1.078125 C 0.816406 -0.851562 0.890625 -0.652344 1.039062 -0.488281 C 1.1875 -0.320312 1.375 -0.238281 1.605469 -0.238281 Z M 1.445312 -2.304688 C 1.421875 -2.359375 1.390625 -2.429688 1.359375 -2.523438 C 1.324219 -2.617188 1.300781 -2.691406 1.285156 -2.75 C 1.269531 -2.8125 1.257812 -2.878906 1.246094 -2.941406 C 1.238281 -3.007812 1.230469 -3.070312 1.230469 -3.132812 C 1.230469 -3.417969 1.320312 -3.65625 1.496094 -3.847656 C 1.671875 -4.035156 1.890625 -4.128906 2.160156 -4.128906 C 2.40625 -4.128906 2.605469 -4.0625 2.761719 -3.929688 C 2.917969 -3.796875 3 -3.617188 3 -3.390625 C 3 -3.128906 2.898438 -2.914062 2.695312 -2.746094 C 2.496094 -2.582031 2.28125 -2.445312 2.050781 -2.34375 C 2.226562 -2.027344 2.355469 -1.800781 2.4375 -1.671875 C 2.519531 -1.539062 2.660156 -1.34375 2.855469 -1.089844 C 3.066406 -1.347656 3.210938 -1.570312 3.292969 -1.75 C 3.375 -1.933594 3.417969 -2.082031 3.417969 -2.191406 C 3.417969 -2.300781 3.375 -2.378906 3.292969 -2.417969 C 3.242188 -2.445312 3.152344 -2.464844 3.023438 -2.472656 L 3.023438 -2.601562 L 4.339844 -2.601562 L 4.339844 -2.472656 C 4.207031 -2.457031 4.109375 -2.433594 4.042969 -2.402344 C 3.933594 -2.347656 3.84375 -2.25 3.769531 -2.113281 L 3.613281 -1.828125 C 3.5 -1.625 3.410156 -1.472656 3.335938 -1.363281 C 3.261719 -1.257812 3.148438 -1.109375 3 -0.917969 C 3.078125 -0.824219 3.167969 -0.730469 3.269531 -0.636719 C 3.492188 -0.445312 3.710938 -0.351562 3.933594 -0.351562 C 4.0625 -0.351562 4.175781 -0.382812 4.265625 -0.449219 C 4.320312 -0.488281 4.398438 -0.5625 4.492188 -0.675781 L 4.578125 -0.605469 C 4.566406 -0.558594 4.527344 -0.484375 4.453125 -0.378906 C 4.382812 -0.277344 4.3125 -0.199219 4.25 -0.140625 C 4.144531 -0.0507812 4.023438 0.015625 3.886719 0.0546875 C 3.804688 0.078125 3.726562 0.0898438 3.648438 0.0898438 C 3.457031 0.0898438 3.265625 0.0273438 3.074219 -0.09375 C 2.960938 -0.164062 2.8125 -0.289062 2.621094 -0.472656 C 2.441406 -0.308594 2.261719 -0.179688 2.078125 -0.09375 C 1.839844 0.0273438 1.578125 0.0859375 1.292969 0.0859375 C 0.972656 0.0859375 0.71875 0 0.53125 -0.167969 C 0.339844 -0.339844 0.246094 -0.570312 0.246094 -0.867188 C 0.246094 -1.140625 0.328125 -1.386719 0.5 -1.59375 C 0.667969 -1.804688 0.90625 -1.996094 1.214844 -2.167969 Z "/>
</g>
<g id="glyph-0-2">
<path d="M 2.726562 -1.570312 L 2.019531 -3.253906 L 1.320312 -1.570312 Z M 0.0898438 0 L 0.0898438 -0.109375 C 0.246094 -0.128906 0.363281 -0.1875 0.441406 -0.289062 C 0.519531 -0.390625 0.65625 -0.667969 0.847656 -1.117188 L 2.121094 -4.113281 L 2.242188 -4.113281 L 3.761719 -0.652344 C 3.863281 -0.421875 3.945312 -0.277344 4.003906 -0.222656 C 4.066406 -0.167969 4.167969 -0.128906 4.3125 -0.109375 L 4.3125 0 L 2.757812 0 L 2.757812 -0.109375 C 2.9375 -0.125 3.050781 -0.144531 3.101562 -0.167969 C 3.152344 -0.191406 3.179688 -0.246094 3.179688 -0.335938 C 3.179688 -0.367188 3.171875 -0.417969 3.152344 -0.496094 C 3.132812 -0.570312 3.101562 -0.652344 3.066406 -0.734375 L 2.8125 -1.320312 L 1.214844 -1.320312 C 1.054688 -0.921875 0.960938 -0.679688 0.929688 -0.589844 C 0.898438 -0.5 0.882812 -0.429688 0.882812 -0.378906 C 0.882812 -0.277344 0.925781 -0.203125 1.007812 -0.164062 C 1.058594 -0.140625 1.15625 -0.121094 1.300781 -0.109375 L 1.300781 0 Z "/>
</g>
<g id="glyph-0-3">
<rect x="0" y="0" width="0" height="0" mask="url(#mask-0)"/>
</g>
<g id="glyph-0-4">
<path d="M 0.183594 -0.0703125 C 0.910156 -0.824219 1.402344 -1.378906 1.664062 -1.734375 C 1.925781 -2.085938 2.054688 -2.433594 2.054688 -2.769531 C 2.054688 -3.0625 1.976562 -3.289062 1.816406 -3.441406 C 1.65625 -3.59375 1.46875 -3.671875 1.246094 -3.671875 C 0.972656 -3.671875 0.753906 -3.574219 0.585938 -3.375 C 0.492188 -3.265625 0.402344 -3.097656 0.316406 -2.871094 L 0.1875 -2.898438 C 0.289062 -3.355469 0.457031 -3.671875 0.695312 -3.851562 C 0.933594 -4.027344 1.1875 -4.117188 1.457031 -4.117188 C 1.792969 -4.117188 2.066406 -4.011719 2.273438 -3.800781 C 2.480469 -3.589844 2.585938 -3.328125 2.585938 -3.023438 C 2.585938 -2.695312 2.472656 -2.382812 2.25 -2.078125 C 2.023438 -1.777344 1.535156 -1.238281 0.785156 -0.464844 L 2.152344 -0.464844 C 2.34375 -0.464844 2.480469 -0.488281 2.558594 -0.535156 C 2.636719 -0.582031 2.722656 -0.691406 2.820312 -0.867188 L 2.898438 -0.832031 L 2.566406 0 L 0.183594 0 Z "/>
</g>
<g id="glyph-0-5">
<path d="M 0.457031 -0.546875 C 0.570312 -0.546875 0.71875 -0.480469 0.902344 -0.355469 C 1.085938 -0.226562 1.226562 -0.160156 1.328125 -0.160156 C 1.554688 -0.160156 1.757812 -0.261719 1.925781 -0.464844 C 2.097656 -0.667969 2.183594 -0.914062 2.183594 -1.207031 C 2.183594 -1.722656 1.910156 -2.09375 1.359375 -2.320312 C 1.054688 -2.445312 0.773438 -2.507812 0.511719 -2.507812 C 0.46875 -2.507812 0.4375 -2.511719 0.429688 -2.511719 C 0.417969 -2.515625 0.402344 -2.527344 0.386719 -2.546875 C 0.390625 -2.5625 0.394531 -2.574219 0.398438 -2.585938 C 0.402344 -2.597656 0.40625 -2.605469 0.410156 -2.617188 L 1.058594 -4.042969 L 2.339844 -4.042969 C 2.402344 -4.042969 2.453125 -4.054688 2.488281 -4.074219 C 2.523438 -4.097656 2.566406 -4.136719 2.621094 -4.199219 L 2.671875 -4.15625 L 2.4375 -3.605469 C 2.429688 -3.585938 2.40625 -3.574219 2.371094 -3.570312 C 2.335938 -3.566406 2.296875 -3.5625 2.253906 -3.5625 L 1.101562 -3.5625 L 0.847656 -3.039062 C 1.171875 -2.984375 1.414062 -2.933594 1.5625 -2.882812 C 1.8125 -2.796875 2.019531 -2.675781 2.1875 -2.511719 C 2.332031 -2.371094 2.4375 -2.210938 2.511719 -2.035156 C 2.585938 -1.859375 2.621094 -1.671875 2.621094 -1.476562 C 2.621094 -1.039062 2.464844 -0.671875 2.152344 -0.375 C 1.839844 -0.0820312 1.441406 0.0664062 0.964844 0.0664062 C 0.769531 0.0664062 0.613281 0.046875 0.492188 0.0078125 C 0.292969 -0.0546875 0.195312 -0.164062 0.195312 -0.320312 C 0.195312 -0.382812 0.214844 -0.433594 0.257812 -0.480469 C 0.300781 -0.523438 0.367188 -0.546875 0.457031 -0.546875 Z "/>
</g>
<g id="glyph-0-6">
<path d="M 1.6875 -4.042969 C 1.8125 -4.042969 1.914062 -4.027344 1.988281 -3.996094 C 2.03125 -3.980469 2.074219 -3.953125 2.113281 -3.917969 L 2.226562 -3.816406 C 2.273438 -3.777344 2.335938 -3.75 2.417969 -3.734375 C 2.503906 -3.71875 2.589844 -3.707031 2.675781 -3.707031 C 2.90625 -3.707031 3.117188 -3.765625 3.308594 -3.875 C 3.414062 -3.933594 3.519531 -4.019531 3.632812 -4.128906 L 3.871094 -4.128906 L 1.519531 0.0859375 L 1.230469 0.0859375 L 3.355469 -3.734375 C 3.207031 -3.664062 3.097656 -3.617188 3.023438 -3.59375 C 2.949219 -3.574219 2.851562 -3.5625 2.730469 -3.5625 C 2.621094 -3.5625 2.53125 -3.570312 2.453125 -3.582031 C 2.402344 -3.589844 2.351562 -3.601562 2.304688 -3.617188 C 2.320312 -3.566406 2.332031 -3.519531 2.335938 -3.484375 C 2.34375 -3.449219 2.34375 -3.398438 2.34375 -3.324219 C 2.34375 -2.964844 2.226562 -2.617188 1.984375 -2.273438 C 1.746094 -1.933594 1.453125 -1.761719 1.105469 -1.761719 C 0.917969 -1.761719 0.75 -1.832031 0.601562 -1.976562 C 0.449219 -2.117188 0.371094 -2.324219 0.371094 -2.597656 C 0.371094 -2.925781 0.507812 -3.246094 0.773438 -3.566406 C 1.039062 -3.882812 1.34375 -4.042969 1.6875 -4.042969 Z M 3.609375 -0.183594 C 3.851562 -0.183594 4.070312 -0.339844 4.265625 -0.65625 C 4.460938 -0.972656 4.554688 -1.269531 4.554688 -1.539062 C 4.554688 -1.707031 4.515625 -1.835938 4.433594 -1.929688 C 4.351562 -2.023438 4.246094 -2.070312 4.113281 -2.070312 C 3.878906 -2.070312 3.667969 -1.890625 3.480469 -1.527344 C 3.296875 -1.164062 3.203125 -0.851562 3.203125 -0.585938 C 3.203125 -0.457031 3.242188 -0.355469 3.316406 -0.285156 C 3.394531 -0.214844 3.492188 -0.183594 3.609375 -0.183594 Z M 2.742188 -0.832031 C 2.742188 -1.175781 2.878906 -1.5 3.152344 -1.804688 C 3.425781 -2.109375 3.726562 -2.265625 4.0625 -2.265625 C 4.234375 -2.265625 4.386719 -2.210938 4.519531 -2.109375 C 4.652344 -2.007812 4.71875 -1.8125 4.71875 -1.535156 C 4.71875 -1.234375 4.605469 -0.902344 4.378906 -0.535156 C 4.152344 -0.171875 3.855469 0.0078125 3.480469 0.0078125 C 3.28125 0.0078125 3.105469 -0.0585938 2.960938 -0.195312 C 2.816406 -0.332031 2.742188 -0.542969 2.742188 -0.832031 Z M 1.214844 -1.972656 C 1.460938 -1.972656 1.683594 -2.121094 1.886719 -2.417969 C 2.089844 -2.714844 2.191406 -3.035156 2.191406 -3.386719 C 2.191406 -3.511719 2.175781 -3.59375 2.148438 -3.628906 C 2.121094 -3.664062 2.074219 -3.691406 2.007812 -3.707031 C 1.960938 -3.71875 1.902344 -3.746094 1.839844 -3.792969 C 1.773438 -3.839844 1.734375 -3.863281 1.722656 -3.863281 C 1.527344 -3.863281 1.332031 -3.691406 1.132812 -3.347656 C 0.933594 -3 0.832031 -2.683594 0.832031 -2.394531 C 0.832031 -2.261719 0.863281 -2.160156 0.925781 -2.085938 C 0.988281 -2.011719 1.085938 -1.972656 1.214844 -1.972656 Z "/>
</g>
</g>
<image id="source-60" x="0" y="0" width="0" height="0"/>
<mask id="mask-0">
<use xlink:href="#source-60"/>
</mask>
</defs>
<g fill="rgb(61.176471%, 15.294118%, 69.019608%)" fill-opacity="1">
<use xlink:href="#glyph-0-0" x="30" y="24.583008"/>
<use xlink:href="#glyph-0-1" x="34" y="24.583008"/>
<use xlink:href="#glyph-0-2" x="39" y="24.583008"/>
<use xlink:href="#glyph-0-3" x="43" y="24.583008"/>
</g>
<g fill="rgb(61.176471%, 15.294118%, 69.019608%)" fill-opacity="1">
<use xlink:href="#glyph-0-4" x="30" y="30.540039"/>
<use xlink:href="#glyph-0-5" x="33" y="30.540039"/>
<use xlink:href="#glyph-0-6" x="36" y="30.540039"/>
</g>
</svg>
