<?xml version="1.0" encoding="UTF-8"?>
<svg xmlns="http://www.w3.org/2000/svg" xmlns:xlink="http://www.w3.org/1999/xlink" width="854" height="480" viewBox="0 0 854 480">
<defs>
<g>
<g id="glyph-0-0">
<path d="M 1.941406 -5.144531 L 1.941406 -5 C 1.785156 -4.996094 1.675781 -4.980469 1.609375 -4.960938 C 1.492188 -4.917969 1.433594 -4.839844 1.433594 -4.722656 C 1.433594 -4.671875 1.441406 -4.625 1.457031 -4.574219 C 1.46875 -4.527344 1.492188 -4.464844 1.519531 -4.390625 L 2.644531 -1.464844 L 3.472656 -3.660156 L 3.101562 -4.597656 C 3.035156 -4.769531 2.933594 -4.886719 2.796875 -4.945312 C 2.714844 -4.980469 2.589844 -5 2.425781 -5 L 2.425781 -5.144531 L 4.507812 -5.144531 L 4.507812 -5 C 4.3125 -5 4.179688 -4.984375 4.105469 -4.960938 C 3.988281 -4.917969 3.929688 -4.828125 3.929688 -4.695312 C 3.929688 -4.648438 3.933594 -4.609375 3.945312 -4.574219 C 3.957031 -4.539062 3.980469 -4.46875 4.023438 -4.363281 L 5.144531 -1.445312 L 6.117188 -4.085938 C 6.171875 -4.234375 6.210938 -4.367188 6.230469 -4.484375 C 6.242188 -4.550781 6.25 -4.605469 6.25 -4.644531 C 6.25 -4.789062 6.183594 -4.890625 6.046875 -4.945312 C 5.96875 -4.976562 5.855469 -4.996094 5.703125 -5 L 5.703125 -5.144531 L 7.246094 -5.144531 L 7.246094 -5 C 7.105469 -4.980469 7 -4.949219 6.925781 -4.90625 C 6.792969 -4.832031 6.695312 -4.707031 6.628906 -4.527344 L 5.800781 -2.214844 L 5.480469 -1.320312 L 5.011719 0.0898438 L 4.894531 0.0898438 L 4.578125 -0.808594 L 3.652344 -3.203125 L 2.457031 0.0898438 L 2.339844 0.0898438 L 1.78125 -1.527344 L 1.113281 -3.34375 C 0.835938 -4.09375 0.644531 -4.554688 0.539062 -4.726562 C 0.429688 -4.898438 0.261719 -4.988281 0.0351562 -5 L 0.0351562 -5.144531 Z "/>
</g>
<g id="glyph-0-1">
<path d="M 0.230469 -0.0859375 C 1.15625 -1.050781 1.789062 -1.753906 2.117188 -2.207031 C 2.449219 -2.65625 2.617188 -3.097656 2.617188 -3.523438 C 2.617188 -3.898438 2.515625 -4.183594 2.3125 -4.378906 C 2.109375 -4.574219 1.867188 -4.675781 1.585938 -4.675781 C 1.238281 -4.675781 0.960938 -4.546875 0.746094 -4.296875 C 0.625 -4.15625 0.511719 -3.941406 0.402344 -3.652344 L 0.238281 -3.6875 C 0.367188 -4.269531 0.582031 -4.675781 0.882812 -4.902344 C 1.183594 -5.128906 1.511719 -5.242188 1.855469 -5.242188 C 2.285156 -5.242188 2.632812 -5.105469 2.894531 -4.835938 C 3.160156 -4.566406 3.292969 -4.238281 3.292969 -3.847656 C 3.292969 -3.433594 3.148438 -3.03125 2.863281 -2.648438 C 2.578125 -2.261719 1.957031 -1.578125 1 -0.59375 L 2.742188 -0.59375 C 2.984375 -0.59375 3.15625 -0.621094 3.253906 -0.679688 C 3.351562 -0.738281 3.464844 -0.878906 3.589844 -1.105469 L 3.6875 -1.058594 L 3.265625 0 L 0.230469 0 Z "/>
</g>
<g id="glyph-0-2">
<rect x="0" y="0" width="0" height="0" mask="url(#mask-0)"/>
</g>
<g id="glyph-0-3">
<path d="M 1.800781 -3.488281 L 1.800781 -3.382812 C 1.703125 -3.378906 1.621094 -3.367188 1.554688 -3.34375 C 1.488281 -3.320312 1.453125 -3.269531 1.453125 -3.195312 C 1.453125 -3.144531 1.523438 -3.011719 1.65625 -2.789062 C 1.726562 -2.671875 1.816406 -2.527344 1.925781 -2.359375 C 2.074219 -2.5625 2.1875 -2.722656 2.257812 -2.839844 C 2.382812 -3.027344 2.445312 -3.148438 2.445312 -3.207031 C 2.445312 -3.273438 2.417969 -3.316406 2.367188 -3.339844 C 2.3125 -3.363281 2.238281 -3.375 2.140625 -3.382812 L 2.140625 -3.488281 L 3.363281 -3.488281 L 3.363281 -3.382812 C 3.234375 -3.375 3.117188 -3.339844 3.003906 -3.277344 C 2.890625 -3.21875 2.800781 -3.140625 2.734375 -3.042969 L 2.085938 -2.105469 L 3.085938 -0.585938 C 3.214844 -0.386719 3.324219 -0.257812 3.414062 -0.203125 C 3.503906 -0.144531 3.609375 -0.113281 3.726562 -0.105469 L 3.726562 0 L 2.15625 0 L 2.15625 -0.105469 L 2.265625 -0.113281 C 2.324219 -0.117188 2.375 -0.136719 2.414062 -0.167969 C 2.453125 -0.199219 2.472656 -0.234375 2.472656 -0.28125 C 2.472656 -0.328125 2.425781 -0.433594 2.328125 -0.601562 C 2.28125 -0.679688 2.214844 -0.792969 2.121094 -0.929688 C 2.078125 -1 2.015625 -1.09375 1.929688 -1.214844 C 1.847656 -1.335938 1.773438 -1.441406 1.714844 -1.527344 L 1.105469 -0.574219 C 1.03125 -0.460938 0.984375 -0.382812 0.96875 -0.34375 C 0.949219 -0.308594 0.941406 -0.277344 0.941406 -0.25 C 0.941406 -0.203125 0.960938 -0.171875 1 -0.15625 C 1.039062 -0.140625 1.125 -0.125 1.257812 -0.105469 L 1.257812 0 L 0.132812 0 L 0.132812 -0.105469 C 0.269531 -0.132812 0.371094 -0.167969 0.4375 -0.210938 C 0.503906 -0.253906 0.589844 -0.355469 0.699219 -0.511719 L 1.582031 -1.800781 L 0.855469 -2.90625 C 0.707031 -3.125 0.605469 -3.253906 0.550781 -3.296875 C 0.496094 -3.335938 0.375 -3.367188 0.1875 -3.382812 L 0.1875 -3.488281 Z "/>
</g>
<g id="glyph-0-4">
<path d="M 0.355469 -1.953125 C 0.355469 -2.832031 0.621094 -3.605469 1.148438 -4.273438 C 1.472656 -4.679688 1.851562 -5.007812 2.292969 -5.253906 L 2.367188 -5.128906 C 1.957031 -4.804688 1.667969 -4.492188 1.492188 -4.183594 C 1.1875 -3.648438 1.03125 -2.9375 1.03125 -2.050781 C 1.03125 -1.390625 1.089844 -0.847656 1.207031 -0.421875 C 1.414062 0.328125 1.796875 0.886719 2.367188 1.261719 L 2.265625 1.386719 C 1.957031 1.238281 1.617188 0.945312 1.257812 0.507812 C 0.65625 -0.214844 0.355469 -1.03125 0.355469 -1.953125 Z "/>
</g>
<g id="glyph-0-5">
<path d="M 1.269531 0.0898438 C 1.148438 0.0898438 1.042969 0.046875 0.960938 -0.0351562 C 0.878906 -0.121094 0.835938 -0.222656 0.835938 -0.339844 C 0.835938 -0.460938 0.878906 -0.5625 0.960938 -0.644531 C 1.046875 -0.730469 1.148438 -0.769531 1.269531 -0.769531 C 1.386719 -0.769531 1.488281 -0.730469 1.570312 -0.644531 C 1.65625 -0.5625 1.699219 -0.460938 1.699219 -0.339844 C 1.699219 -0.222656 1.65625 -0.121094 1.574219 -0.0351562 C 1.492188 0.0507812 1.390625 0.0898438 1.269531 0.0898438 Z "/>
</g>
<g id="glyph-0-6">
<path d="M 2.214844 -1.914062 C 2.214844 -1.535156 2.164062 -1.179688 2.066406 -0.84375 C 1.96875 -0.507812 1.824219 -0.1875 1.632812 0.109375 C 1.433594 0.429688 1.164062 0.726562 0.832031 1.003906 C 0.613281 1.183594 0.425781 1.3125 0.277344 1.386719 L 0.203125 1.261719 C 0.59375 0.964844 0.878906 0.660156 1.058594 0.351562 C 1.378906 -0.195312 1.539062 -0.917969 1.539062 -1.816406 C 1.539062 -2.542969 1.464844 -3.136719 1.316406 -3.597656 C 1.113281 -4.246094 0.742188 -4.757812 0.203125 -5.128906 L 0.304688 -5.253906 C 0.703125 -5.03125 1.074219 -4.695312 1.421875 -4.246094 C 1.949219 -3.550781 2.214844 -2.773438 2.214844 -1.914062 Z "/>
</g>
</g>
<image id="source-11" x="0" y="0" width="0" height="0"/>
<mask id="mask-0">
<use xlink:href="#source-11"/>
</mask>
</defs>
<g fill="rgb(56.470588%, 79.215686%, 97.647059%)" fill-opacity="1">
<use xlink:href="#glyph-0-0" x="30" y="25.833008"/>
<use xlink:href="#glyph-0-1" x="37" y="25.833008"/>
<use xlink:href="#glyph-0-2" x="41" y="25.833008"/>
<use xlink:href="#glyph-0-3" x="43" y="25.833008"/>
<use xlink:href="#glyph-0-2" x="47" y="25.833008"/>
<use xlink:href="#glyph-0-4" x="49" y="25.833008"/>
<use xlink:href="#glyph-0-2" x="52" y="25.833008"/>
<use xlink:href="#glyph-0-5" x="54" y="25.833008"/>
<use xlink:href="#glyph-0-2" x="56" y="25.833008"/>
<use xlink:href="#glyph-0-6" x="58" y="25.833008"/>
</g>
</svg>
