<?xml version="1.0" encoding="UTF-8"?>
<svg xmlns="http://www.w3.org/2000/svg" xmlns:xlink="http://www.w3.org/1999/xlink" width="854" height="480" viewBox="0 0 854 480">
<defs>
<g>
<g id="glyph-0-0">
<path d="M 0.0664062 -0.105469 C 0.273438 -0.132812 0.410156 -0.183594 0.476562 -0.261719 C 0.542969 -0.335938 0.574219 -0.511719 0.574219 -0.789062 L 0.574219 -4.433594 C 0.574219 -4.578125 0.554688 -4.683594 0.519531 -4.75 C 0.480469 -4.816406 0.390625 -4.847656 0.25 -4.847656 C 0.222656 -4.847656 0.195312 -4.847656 0.167969 -4.84375 C 0.140625 -4.839844 0.113281 -4.835938 0.078125 -4.832031 L 0.078125 -4.96875 C 0.191406 -5 0.328125 -5.039062 0.492188 -5.085938 C 0.65625 -5.132812 0.769531 -5.167969 0.832031 -5.1875 L 1.195312 -5.300781 L 1.203125 -5.273438 L 1.203125 -2.941406 C 1.363281 -3.125 1.503906 -3.257812 1.628906 -3.34375 C 1.851562 -3.496094 2.09375 -3.574219 2.351562 -3.574219 C 2.761719 -3.574219 3.039062 -3.402344 3.191406 -3.058594 C 3.269531 -2.875 3.3125 -2.636719 3.3125 -2.339844 L 3.3125 -0.789062 C 3.3125 -0.519531 3.34375 -0.347656 3.40625 -0.265625 C 3.46875 -0.183594 3.59375 -0.132812 3.785156 -0.105469 L 3.785156 0 L 2.140625 0 L 2.140625 -0.105469 C 2.363281 -0.136719 2.503906 -0.1875 2.566406 -0.261719 C 2.628906 -0.335938 2.660156 -0.511719 2.660156 -0.789062 L 2.660156 -2.328125 C 2.660156 -2.574219 2.621094 -2.773438 2.539062 -2.925781 C 2.457031 -3.078125 2.300781 -3.152344 2.074219 -3.152344 C 1.875 -3.152344 1.683594 -3.082031 1.5 -2.9375 C 1.316406 -2.796875 1.222656 -2.707031 1.222656 -2.660156 L 1.222656 -0.789062 C 1.222656 -0.507812 1.253906 -0.328125 1.320312 -0.257812 C 1.386719 -0.1875 1.527344 -0.136719 1.742188 -0.105469 L 1.742188 0 L 0.0664062 0 Z "/>
</g>
</g>
</defs>
<g fill="rgb(100%, 100%, 100%)" fill-opacity="1">
<use xlink:href="#glyph-0-0" x="30" y="25.833008"/>
</g>
</svg>
