<?xml version="1.0" encoding="UTF-8"?>
<svg xmlns="http://www.w3.org/2000/svg" xmlns:xlink="http://www.w3.org/1999/xlink" width="854" height="480" viewBox="0 0 854 480">
<defs>
<g>
<g id="glyph-0-0">
<path d="M 0.0546875 -0.0898438 C 0.238281 -0.109375 0.359375 -0.144531 0.414062 -0.1875 C 0.46875 -0.234375 0.496094 -0.351562 0.496094 -0.542969 L 0.496094 -2.765625 C 0.496094 -2.945312 0.46875 -3.058594 0.414062 -3.113281 C 0.359375 -3.167969 0.242188 -3.203125 0.0546875 -3.214844 L 0.0546875 -3.308594 L 1.46875 -3.308594 L 1.46875 -3.214844 C 1.285156 -3.207031 1.164062 -3.175781 1.101562 -3.125 C 1.039062 -3.074219 1.007812 -2.964844 1.007812 -2.800781 L 1.007812 -0.398438 C 1.007812 -0.34375 1.015625 -0.300781 1.035156 -0.265625 C 1.054688 -0.234375 1.09375 -0.214844 1.15625 -0.207031 C 1.195312 -0.203125 1.234375 -0.199219 1.277344 -0.199219 C 1.316406 -0.195312 1.394531 -0.195312 1.507812 -0.195312 C 1.953125 -0.195312 2.253906 -0.230469 2.410156 -0.304688 C 2.566406 -0.378906 2.71875 -0.566406 2.863281 -0.867188 L 2.992188 -0.867188 L 2.746094 0 L 0.0546875 0 Z "/>
</g>
<g id="glyph-0-1">
<path d="M 0.125 -1.132812 C 0.125 -1.457031 0.230469 -1.730469 0.4375 -1.953125 C 0.640625 -2.179688 0.90625 -2.289062 1.230469 -2.289062 C 1.554688 -2.289062 1.820312 -2.183594 2.03125 -1.972656 C 2.242188 -1.761719 2.347656 -1.480469 2.347656 -1.128906 C 2.347656 -0.804688 2.246094 -0.523438 2.039062 -0.28125 C 1.835938 -0.0429688 1.570312 0.0742188 1.246094 0.0742188 C 0.933594 0.0742188 0.667969 -0.0390625 0.453125 -0.269531 C 0.234375 -0.5 0.125 -0.785156 0.125 -1.132812 Z M 1.164062 -2.144531 C 1.035156 -2.144531 0.921875 -2.101562 0.828125 -2.015625 C 0.664062 -1.867188 0.582031 -1.613281 0.582031 -1.25 C 0.582031 -0.960938 0.648438 -0.691406 0.78125 -0.4375 C 0.910156 -0.1875 1.09375 -0.0625 1.324219 -0.0625 C 1.507812 -0.0625 1.648438 -0.148438 1.746094 -0.316406 C 1.84375 -0.484375 1.894531 -0.703125 1.894531 -0.972656 C 1.894531 -1.253906 1.832031 -1.519531 1.707031 -1.769531 C 1.582031 -2.019531 1.398438 -2.144531 1.164062 -2.144531 Z "/>
</g>
<g id="glyph-0-2">
<path d="M 0.257812 -0.769531 L 0.339844 -0.769531 C 0.375 -0.582031 0.425781 -0.441406 0.492188 -0.34375 C 0.605469 -0.160156 0.773438 -0.0703125 0.992188 -0.0703125 C 1.113281 -0.0703125 1.210938 -0.101562 1.28125 -0.167969 C 1.351562 -0.238281 1.386719 -0.324219 1.386719 -0.433594 C 1.386719 -0.5 1.367188 -0.566406 1.324219 -0.628906 C 1.285156 -0.691406 1.214844 -0.753906 1.109375 -0.816406 L 0.835938 -0.972656 C 0.636719 -1.078125 0.488281 -1.1875 0.394531 -1.296875 C 0.300781 -1.40625 0.253906 -1.535156 0.253906 -1.683594 C 0.253906 -1.863281 0.320312 -2.015625 0.449219 -2.132812 C 0.578125 -2.25 0.742188 -2.308594 0.941406 -2.308594 C 1.027344 -2.308594 1.121094 -2.289062 1.222656 -2.257812 C 1.328125 -2.226562 1.386719 -2.210938 1.398438 -2.210938 C 1.429688 -2.210938 1.449219 -2.214844 1.460938 -2.222656 C 1.476562 -2.230469 1.488281 -2.242188 1.496094 -2.261719 L 1.554688 -2.261719 L 1.570312 -1.578125 L 1.496094 -1.578125 C 1.464844 -1.738281 1.421875 -1.859375 1.363281 -1.949219 C 1.261719 -2.109375 1.117188 -2.191406 0.929688 -2.191406 C 0.8125 -2.191406 0.722656 -2.15625 0.660156 -2.085938 C 0.59375 -2.015625 0.5625 -1.933594 0.5625 -1.839844 C 0.5625 -1.691406 0.671875 -1.558594 0.898438 -1.441406 L 1.21875 -1.265625 C 1.566406 -1.078125 1.742188 -0.859375 1.742188 -0.609375 C 1.742188 -0.417969 1.667969 -0.257812 1.523438 -0.136719 C 1.378906 -0.015625 1.191406 0.046875 0.960938 0.046875 C 0.863281 0.046875 0.75 0.03125 0.628906 -0.00390625 C 0.503906 -0.0351562 0.429688 -0.0507812 0.40625 -0.0507812 C 0.386719 -0.0507812 0.371094 -0.0429688 0.355469 -0.03125 C 0.339844 -0.015625 0.332031 0 0.320312 0.0195312 L 0.257812 0.0195312 Z "/>
</g>
<g id="glyph-0-3">
<rect x="0" y="0" width="0" height="0" mask="url(#mask-0)"/>
</g>
<g id="glyph-0-4">
<path d="M 2.671875 -0.929688 L 2.671875 -0.589844 L 0.148438 -0.589844 L 0.148438 -0.929688 Z M 2.671875 -1.9375 L 2.671875 -1.597656 L 0.148438 -1.597656 L 0.148438 -1.9375 Z "/>
</g>
<g id="glyph-0-5">
<path d="M 0.148438 -0.0546875 C 0.746094 -0.675781 1.148438 -1.128906 1.363281 -1.417969 C 1.574219 -1.707031 1.683594 -1.992188 1.683594 -2.265625 C 1.683594 -2.507812 1.617188 -2.691406 1.488281 -2.816406 C 1.355469 -2.941406 1.203125 -3.003906 1.019531 -3.003906 C 0.796875 -3.003906 0.617188 -2.925781 0.476562 -2.761719 C 0.402344 -2.671875 0.328125 -2.535156 0.257812 -2.347656 L 0.152344 -2.371094 C 0.234375 -2.746094 0.375 -3.003906 0.566406 -3.152344 C 0.761719 -3.296875 0.972656 -3.367188 1.195312 -3.367188 C 1.46875 -3.367188 1.691406 -3.28125 1.863281 -3.109375 C 2.03125 -2.9375 2.117188 -2.722656 2.117188 -2.472656 C 2.117188 -2.207031 2.023438 -1.949219 1.839844 -1.703125 C 1.65625 -1.453125 1.257812 -1.015625 0.640625 -0.382812 L 1.761719 -0.382812 C 1.917969 -0.382812 2.027344 -0.398438 2.09375 -0.4375 C 2.15625 -0.476562 2.226562 -0.566406 2.308594 -0.710938 L 2.371094 -0.679688 L 2.101562 0 L 0.148438 0 Z "/>
</g>
<g id="glyph-0-6">
<path d="M 0.816406 0.0585938 C 0.738281 0.0585938 0.671875 0.03125 0.617188 -0.0234375 C 0.5625 -0.078125 0.539062 -0.144531 0.539062 -0.21875 C 0.539062 -0.296875 0.5625 -0.359375 0.617188 -0.414062 C 0.671875 -0.46875 0.738281 -0.496094 0.816406 -0.496094 C 0.890625 -0.496094 0.957031 -0.46875 1.011719 -0.414062 C 1.066406 -0.359375 1.089844 -0.296875 1.089844 -0.21875 C 1.089844 -0.144531 1.066406 -0.078125 1.011719 -0.0234375 C 0.960938 0.03125 0.894531 0.0585938 0.816406 0.0585938 Z "/>
</g>
<g id="glyph-0-7">
<path d="M 0.386719 -0.425781 C 0.476562 -0.425781 0.597656 -0.378906 0.742188 -0.285156 C 0.890625 -0.191406 1.015625 -0.148438 1.117188 -0.148438 C 1.34375 -0.148438 1.515625 -0.222656 1.625 -0.378906 C 1.734375 -0.53125 1.792969 -0.699219 1.792969 -0.878906 C 1.792969 -1.054688 1.746094 -1.207031 1.65625 -1.335938 C 1.507812 -1.558594 1.25 -1.671875 0.890625 -1.671875 C 0.871094 -1.671875 0.851562 -1.671875 0.828125 -1.671875 C 0.808594 -1.671875 0.789062 -1.667969 0.761719 -1.664062 L 0.757812 -1.726562 C 1.015625 -1.820312 1.222656 -1.929688 1.371094 -2.054688 C 1.523438 -2.175781 1.597656 -2.335938 1.597656 -2.535156 C 1.597656 -2.714844 1.539062 -2.847656 1.417969 -2.941406 C 1.300781 -3.035156 1.167969 -3.082031 1.015625 -3.082031 C 0.835938 -3.082031 0.679688 -3.015625 0.542969 -2.882812 C 0.46875 -2.8125 0.386719 -2.699219 0.300781 -2.550781 L 0.226562 -2.570312 C 0.289062 -2.816406 0.410156 -3.011719 0.589844 -3.160156 C 0.765625 -3.308594 0.972656 -3.382812 1.203125 -3.382812 C 1.453125 -3.382812 1.644531 -3.316406 1.78125 -3.179688 C 1.917969 -3.042969 1.984375 -2.882812 1.984375 -2.703125 C 1.984375 -2.546875 1.929688 -2.402344 1.816406 -2.269531 C 1.753906 -2.195312 1.65625 -2.113281 1.519531 -2.019531 C 1.675781 -1.953125 1.800781 -1.875 1.898438 -1.785156 C 2.074219 -1.613281 2.164062 -1.398438 2.164062 -1.136719 C 2.164062 -0.828125 2.042969 -0.554688 1.796875 -0.316406 C 1.554688 -0.0820312 1.207031 0.0351562 0.757812 0.0351562 C 0.558594 0.0351562 0.417969 0.0078125 0.339844 -0.0507812 C 0.257812 -0.109375 0.21875 -0.175781 0.21875 -0.242188 C 0.21875 -0.285156 0.230469 -0.328125 0.257812 -0.367188 C 0.285156 -0.40625 0.328125 -0.425781 0.386719 -0.425781 Z "/>
</g>
</g>
<image id="source-91" x="0" y="0" width="0" height="0"/>
<mask id="mask-0">
<use xlink:href="#source-91"/>
</mask>
</defs>
<g fill="rgb(12.941176%, 58.823529%, 95.294118%)" fill-opacity="1">
<use xlink:href="#glyph-0-0" x="30" y="23.75"/>
<use xlink:href="#glyph-0-1" x="33" y="23.75"/>
<use xlink:href="#glyph-0-2" x="36" y="23.75"/>
<use xlink:href="#glyph-0-2" x="38" y="23.75"/>
<use xlink:href="#glyph-0-3" x="40" y="23.75"/>
<use xlink:href="#glyph-0-4" x="41" y="23.75"/>
<use xlink:href="#glyph-0-3" x="44" y="23.75"/>
<use xlink:href="#glyph-0-5" x="45" y="23.75"/>
<use xlink:href="#glyph-0-6" x="48" y="23.75"/>
<use xlink:href="#glyph-0-7" x="49" y="23.75"/>
</g>
</svg>
