<?xml version="1.0" encoding="UTF-8"?>
<svg xmlns="http://www.w3.org/2000/svg" xmlns:xlink="http://www.w3.org/1999/xlink" width="854" height="480" viewBox="0 0 854 480">
<defs>
<g>
<g id="glyph-0-0">
<path d="M 1.722656 -4.042969 L 1.722656 -3.929688 C 1.570312 -3.925781 1.46875 -3.917969 1.410156 -3.898438 C 1.3125 -3.867188 1.265625 -3.804688 1.265625 -3.707031 C 1.265625 -3.65625 1.28125 -3.585938 1.316406 -3.496094 C 1.351562 -3.40625 1.417969 -3.257812 1.511719 -3.046875 L 2.46875 -0.917969 L 3.335938 -3.222656 C 3.375 -3.324219 3.402344 -3.410156 3.421875 -3.480469 C 3.441406 -3.550781 3.453125 -3.605469 3.453125 -3.648438 C 3.453125 -3.765625 3.402344 -3.847656 3.300781 -3.886719 C 3.242188 -3.910156 3.140625 -3.925781 3.003906 -3.929688 L 3.003906 -4.042969 L 4.253906 -4.042969 L 4.253906 -3.9375 C 4.125 -3.921875 4.03125 -3.886719 3.96875 -3.832031 C 3.875 -3.753906 3.78125 -3.601562 3.691406 -3.367188 L 2.339844 0.0703125 L 2.246094 0.0703125 L 0.738281 -3.289062 C 0.613281 -3.574219 0.511719 -3.75 0.433594 -3.820312 C 0.355469 -3.890625 0.246094 -3.929688 0.0976562 -3.9375 L 0.0976562 -4.042969 Z "/>
</g>
<g id="glyph-0-1">
<path d="M 0.183594 -0.0703125 C 0.910156 -0.824219 1.402344 -1.378906 1.664062 -1.734375 C 1.925781 -2.085938 2.054688 -2.433594 2.054688 -2.769531 C 2.054688 -3.0625 1.976562 -3.289062 1.816406 -3.441406 C 1.65625 -3.59375 1.46875 -3.671875 1.246094 -3.671875 C 0.972656 -3.671875 0.753906 -3.574219 0.585938 -3.375 C 0.492188 -3.265625 0.402344 -3.097656 0.316406 -2.871094 L 0.1875 -2.898438 C 0.289062 -3.355469 0.457031 -3.671875 0.695312 -3.851562 C 0.933594 -4.027344 1.1875 -4.117188 1.457031 -4.117188 C 1.792969 -4.117188 2.066406 -4.011719 2.273438 -3.800781 C 2.480469 -3.589844 2.585938 -3.328125 2.585938 -3.023438 C 2.585938 -2.695312 2.472656 -2.382812 2.25 -2.078125 C 2.023438 -1.777344 1.535156 -1.238281 0.785156 -0.464844 L 2.152344 -0.464844 C 2.34375 -0.464844 2.480469 -0.488281 2.558594 -0.535156 C 2.636719 -0.582031 2.722656 -0.691406 2.820312 -0.867188 L 2.898438 -0.832031 L 2.566406 0 L 0.183594 0 Z "/>
</g>
</g>
</defs>
<g fill="rgb(100%, 59.607843%, 0%)" fill-opacity="1">
<use xlink:href="#glyph-0-0" x="30" y="24.583008"/>
<use xlink:href="#glyph-0-1" x="34" y="24.583008"/>
</g>
</svg>
