<?xml version="1.0" encoding="UTF-8"?>
<svg xmlns="http://www.w3.org/2000/svg" xmlns:xlink="http://www.w3.org/1999/xlink" width="854" height="480" viewBox="0 0 854 480">
<defs>
<g>
<g id="glyph-0-0">
<path d="M 0.1875 -0.296875 C 0.621094 -0.308594 0.898438 -0.390625 1.027344 -0.542969 C 1.152344 -0.699219 1.214844 -0.925781 1.214844 -1.226562 L 1.214844 -6.75 C 0.855469 -7.148438 0.636719 -7.382812 0.550781 -7.453125 C 0.46875 -7.523438 0.355469 -7.570312 0.210938 -7.589844 L 0.210938 -7.882812 L 2.683594 -7.882812 L 6.695312 -2.96875 L 6.75 -2.96875 L 6.75 -6.4375 C 6.75 -6.832031 6.679688 -7.113281 6.535156 -7.285156 C 6.390625 -7.453125 6.101562 -7.554688 5.667969 -7.589844 L 5.667969 -7.882812 L 8.179688 -7.882812 L 8.179688 -7.589844 C 7.816406 -7.527344 7.570312 -7.445312 7.449219 -7.34375 C 7.324219 -7.242188 7.261719 -7.011719 7.261719 -6.652344 L 7.261719 0.214844 L 6.9375 0.214844 L 1.804688 -6.023438 L 1.726562 -6.023438 L 1.726562 -1.441406 C 1.726562 -1.085938 1.777344 -0.832031 1.875 -0.683594 C 2.03125 -0.445312 2.347656 -0.316406 2.832031 -0.296875 L 2.832031 0 L 0.1875 0 Z "/>
</g>
<g id="glyph-0-1">
<path d="M 0.261719 -2.675781 C 0.261719 -3.574219 0.5 -4.269531 0.976562 -4.765625 C 1.453125 -5.261719 2.027344 -5.507812 2.699219 -5.507812 C 3.082031 -5.507812 3.445312 -5.40625 3.78125 -5.207031 C 4.121094 -5.003906 4.378906 -4.726562 4.5625 -4.371094 C 4.699219 -4.101562 4.792969 -3.75 4.847656 -3.320312 C 4.875 -3.121094 4.886719 -2.964844 4.886719 -2.859375 L 1.914062 -2.859375 C 1.941406 -2.390625 2.015625 -1.988281 2.140625 -1.644531 C 2.371094 -1.003906 2.769531 -0.683594 3.34375 -0.683594 C 3.617188 -0.683594 3.875 -0.769531 4.117188 -0.941406 C 4.265625 -1.042969 4.449219 -1.214844 4.671875 -1.457031 L 4.9375 -1.292969 C 4.578125 -0.699219 4.160156 -0.289062 3.6875 -0.0585938 C 3.378906 0.0898438 3.023438 0.164062 2.625 0.164062 C 2.050781 0.164062 1.515625 -0.0625 1.015625 -0.511719 C 0.511719 -0.964844 0.261719 -1.6875 0.261719 -2.675781 Z M 3.453125 -3.292969 C 3.445312 -3.980469 3.390625 -4.460938 3.292969 -4.734375 C 3.195312 -5.007812 2.996094 -5.144531 2.699219 -5.144531 C 2.394531 -5.144531 2.1875 -4.988281 2.078125 -4.671875 C 1.964844 -4.355469 1.902344 -3.898438 1.886719 -3.292969 Z "/>
</g>
<g id="glyph-0-2">
<path d="M 2.386719 -5.371094 L 2.386719 -1.414062 C 2.386719 -1.179688 2.414062 -1.003906 2.472656 -0.894531 C 2.570312 -0.699219 2.765625 -0.605469 3.058594 -0.605469 C 3.246094 -0.605469 3.425781 -0.664062 3.605469 -0.78125 C 3.707031 -0.84375 3.835938 -0.953125 3.992188 -1.105469 L 3.992188 -4.414062 C 3.992188 -4.65625 3.945312 -4.828125 3.847656 -4.925781 C 3.75 -5.023438 3.558594 -5.074219 3.265625 -5.085938 L 3.265625 -5.371094 L 5.589844 -5.371094 L 5.589844 -1.171875 C 5.589844 -0.929688 5.632812 -0.761719 5.726562 -0.667969 C 5.816406 -0.574219 5.996094 -0.519531 6.261719 -0.496094 L 6.261719 -0.226562 C 5.539062 -0.160156 5.085938 -0.109375 4.894531 -0.078125 C 4.707031 -0.046875 4.40625 0.0351562 3.992188 0.164062 L 3.992188 -0.605469 C 3.714844 -0.363281 3.488281 -0.195312 3.304688 -0.0976562 C 2.984375 0.078125 2.652344 0.164062 2.308594 0.164062 C 1.933594 0.164062 1.582031 0.046875 1.257812 -0.195312 C 0.933594 -0.433594 0.769531 -0.859375 0.769531 -1.46875 L 0.769531 -4.414062 C 0.769531 -4.660156 0.730469 -4.824219 0.648438 -4.898438 C 0.570312 -4.976562 0.414062 -5.039062 0.1875 -5.085938 L 0.1875 -5.371094 Z "/>
</g>
<g id="glyph-0-3">
<path d="M 0.210938 -0.277344 C 0.433594 -0.304688 0.589844 -0.359375 0.679688 -0.4375 C 0.765625 -0.519531 0.8125 -0.671875 0.820312 -0.898438 L 0.832031 -1.242188 L 0.832031 -4.414062 C 0.832031 -4.65625 0.789062 -4.824219 0.707031 -4.910156 C 0.625 -4.996094 0.457031 -5.058594 0.210938 -5.085938 L 0.210938 -5.371094 L 2.425781 -5.371094 L 2.425781 -4.453125 C 2.671875 -4.777344 2.917969 -5.035156 3.160156 -5.222656 C 3.402344 -5.414062 3.6875 -5.507812 4.003906 -5.507812 C 4.242188 -5.507812 4.460938 -5.433594 4.652344 -5.277344 C 4.84375 -5.125 4.9375 -4.898438 4.9375 -4.601562 C 4.9375 -4.375 4.871094 -4.1875 4.738281 -4.039062 C 4.601562 -3.890625 4.425781 -3.816406 4.210938 -3.816406 C 3.964844 -3.816406 3.75 -3.933594 3.570312 -4.164062 C 3.390625 -4.394531 3.261719 -4.511719 3.191406 -4.511719 C 3.035156 -4.511719 2.878906 -4.414062 2.71875 -4.222656 C 2.5625 -4.03125 2.484375 -3.757812 2.484375 -3.402344 L 2.484375 -1.195312 C 2.484375 -0.808594 2.539062 -0.566406 2.652344 -0.46875 C 2.765625 -0.371094 2.988281 -0.308594 3.320312 -0.277344 L 3.320312 0 L 0.210938 0 Z "/>
</g>
<g id="glyph-0-4">
<path d="M 2.558594 -0.667969 C 2.746094 -0.667969 2.925781 -0.722656 3.085938 -0.835938 C 3.179688 -0.90625 3.285156 -1.011719 3.414062 -1.15625 L 3.414062 -2.859375 C 3.101562 -2.785156 2.828125 -2.664062 2.59375 -2.5 C 2.195312 -2.222656 1.992188 -1.871094 1.992188 -1.441406 C 1.992188 -1.1875 2.050781 -0.992188 2.167969 -0.863281 C 2.285156 -0.730469 2.414062 -0.667969 2.558594 -0.667969 Z M 0.296875 -1.089844 C 0.296875 -1.613281 0.546875 -2.027344 1.054688 -2.335938 C 1.558594 -2.644531 2.351562 -2.953125 3.429688 -3.265625 L 3.429688 -4.113281 C 3.429688 -4.457031 3.355469 -4.714844 3.210938 -4.878906 C 3.0625 -5.042969 2.804688 -5.128906 2.433594 -5.128906 C 2.222656 -5.128906 2.050781 -5.089844 1.917969 -5.011719 C 1.78125 -4.933594 1.714844 -4.835938 1.714844 -4.71875 C 1.714844 -4.671875 1.722656 -4.632812 1.738281 -4.601562 C 1.753906 -4.570312 1.777344 -4.539062 1.804688 -4.507812 L 1.875 -4.425781 C 1.925781 -4.363281 1.96875 -4.289062 2.003906 -4.210938 C 2.035156 -4.132812 2.050781 -4.050781 2.050781 -3.964844 C 2.050781 -3.746094 1.976562 -3.574219 1.832031 -3.457031 C 1.683594 -3.335938 1.515625 -3.277344 1.320312 -3.277344 C 1.097656 -3.277344 0.90625 -3.34375 0.75 -3.476562 C 0.59375 -3.609375 0.511719 -3.800781 0.511719 -4.050781 C 0.511719 -4.5 0.722656 -4.855469 1.144531 -5.117188 C 1.566406 -5.378906 2.085938 -5.507812 2.699219 -5.507812 C 3.359375 -5.507812 3.914062 -5.382812 4.359375 -5.128906 C 4.800781 -4.871094 5.019531 -4.394531 5.019531 -3.703125 L 5.019531 -0.878906 C 5.019531 -0.792969 5.039062 -0.722656 5.085938 -0.664062 C 5.128906 -0.605469 5.175781 -0.574219 5.230469 -0.574219 C 5.277344 -0.574219 5.316406 -0.582031 5.351562 -0.601562 C 5.386719 -0.617188 5.445312 -0.664062 5.519531 -0.742188 L 5.695312 -0.496094 C 5.46875 -0.230469 5.214844 -0.0429688 4.9375 0.0625 C 4.765625 0.132812 4.582031 0.164062 4.386719 0.164062 C 4.039062 0.164062 3.789062 0.0664062 3.628906 -0.136719 C 3.539062 -0.25 3.472656 -0.417969 3.429688 -0.644531 C 3.105469 -0.320312 2.742188 -0.09375 2.335938 0.0390625 C 2.089844 0.125 1.847656 0.164062 1.605469 0.164062 C 1.289062 0.164062 0.988281 0.0625 0.710938 -0.140625 C 0.433594 -0.34375 0.296875 -0.660156 0.296875 -1.089844 Z "/>
</g>
<g id="glyph-0-5">
<path d="M 0.1875 -0.277344 C 0.394531 -0.328125 0.539062 -0.394531 0.625 -0.476562 C 0.710938 -0.558594 0.753906 -0.726562 0.753906 -0.984375 L 0.753906 -6.925781 C 0.753906 -7.171875 0.710938 -7.335938 0.632812 -7.410156 C 0.554688 -7.488281 0.40625 -7.550781 0.1875 -7.597656 L 0.1875 -7.882812 L 2.398438 -7.882812 L 2.398438 -0.984375 C 2.398438 -0.726562 2.441406 -0.558594 2.523438 -0.480469 C 2.605469 -0.398438 2.753906 -0.332031 2.96875 -0.277344 L 2.96875 0 L 0.1875 0 Z "/>
</g>
<g id="glyph-0-6">
<rect x="0" y="0" width="0" height="0" mask="url(#mask-0)"/>
</g>
<g id="glyph-0-7">
<path d="M 0.1875 -4.859375 L 0.1875 -5.183594 C 0.289062 -5.277344 0.417969 -5.390625 0.570312 -5.519531 C 0.769531 -5.707031 0.960938 -5.898438 1.140625 -6.09375 C 1.492188 -6.480469 1.8125 -6.898438 2.101562 -7.34375 L 2.398438 -7.34375 L 2.398438 -5.371094 L 3.507812 -5.371094 L 3.507812 -4.859375 L 2.398438 -4.859375 L 2.398438 -1.351562 C 2.398438 -1.1875 2.421875 -1.050781 2.472656 -0.941406 C 2.546875 -0.769531 2.671875 -0.683594 2.847656 -0.683594 C 3 -0.683594 3.128906 -0.738281 3.230469 -0.847656 C 3.332031 -0.953125 3.433594 -1.101562 3.539062 -1.292969 L 3.816406 -1.15625 C 3.679688 -0.835938 3.515625 -0.578125 3.328125 -0.375 C 2.992188 -0.0234375 2.585938 0.152344 2.101562 0.152344 C 1.828125 0.152344 1.589844 0.101562 1.382812 0 C 0.988281 -0.199219 0.792969 -0.554688 0.792969 -1.078125 L 0.792969 -4.859375 Z "/>
</g>
<g id="glyph-0-8">
<path d="M 2.78125 -5.371094 L 2.78125 -5.085938 C 2.648438 -5.074219 2.539062 -5.046875 2.457031 -5.003906 C 2.371094 -4.960938 2.328125 -4.871094 2.328125 -4.738281 C 2.328125 -4.695312 2.335938 -4.652344 2.347656 -4.609375 C 2.359375 -4.566406 2.382812 -4.503906 2.414062 -4.414062 L 3.28125 -2.128906 L 3.34375 -2.128906 L 4.101562 -4.050781 C 4.101562 -4.078125 4.070312 -4.191406 4.011719 -4.394531 C 3.949219 -4.597656 3.898438 -4.738281 3.855469 -4.820312 C 3.796875 -4.925781 3.738281 -4.992188 3.683594 -5.019531 C 3.628906 -5.046875 3.515625 -5.066406 3.34375 -5.085938 L 3.34375 -5.371094 L 6.074219 -5.371094 L 6.074219 -5.085938 C 5.90625 -5.078125 5.773438 -5.058594 5.671875 -5.023438 C 5.570312 -4.988281 5.519531 -4.925781 5.519531 -4.824219 C 5.519531 -4.769531 5.527344 -4.703125 5.539062 -4.628906 C 5.554688 -4.554688 5.578125 -4.453125 5.617188 -4.328125 L 6.210938 -2.238281 L 6.277344 -2.238281 L 7.117188 -4.464844 C 7.128906 -4.503906 7.136719 -4.539062 7.144531 -4.574219 C 7.152344 -4.609375 7.15625 -4.640625 7.15625 -4.671875 C 7.15625 -4.835938 7.105469 -4.941406 7.011719 -4.992188 C 6.914062 -5.039062 6.773438 -5.070312 6.585938 -5.085938 L 6.585938 -5.371094 L 8.167969 -5.371094 L 8.167969 -5.085938 C 8.027344 -5.058594 7.917969 -5.011719 7.835938 -4.941406 C 7.753906 -4.871094 7.671875 -4.726562 7.589844 -4.507812 L 5.777344 0.164062 L 5.507812 0.164062 L 4.328125 -3.371094 L 4.277344 -3.371094 L 2.859375 0.164062 L 2.574219 0.164062 L 0.847656 -4.199219 C 0.703125 -4.558594 0.597656 -4.789062 0.53125 -4.890625 C 0.460938 -4.992188 0.347656 -5.058594 0.1875 -5.085938 L 0.1875 -5.371094 Z "/>
</g>
<g id="glyph-0-9">
<path d="M 0.257812 -2.671875 C 0.257812 -3.484375 0.507812 -4.164062 1.003906 -4.707031 C 1.503906 -5.25 2.132812 -5.519531 2.886719 -5.519531 C 3.660156 -5.519531 4.289062 -5.242188 4.78125 -4.6875 C 5.273438 -4.132812 5.519531 -3.460938 5.519531 -2.671875 C 5.519531 -1.894531 5.277344 -1.222656 4.789062 -0.664062 C 4.304688 -0.105469 3.671875 0.175781 2.886719 0.175781 C 2.128906 0.175781 1.5 -0.0976562 1.003906 -0.640625 C 0.503906 -1.1875 0.257812 -1.863281 0.257812 -2.671875 Z M 1.972656 -2.671875 C 1.972656 -1.855469 2.011719 -1.285156 2.097656 -0.957031 C 2.230469 -0.453125 2.492188 -0.199219 2.886719 -0.199219 C 3.265625 -0.199219 3.511719 -0.394531 3.628906 -0.78125 C 3.746094 -1.167969 3.804688 -1.796875 3.804688 -2.671875 C 3.804688 -3.542969 3.742188 -4.171875 3.621094 -4.558594 C 3.496094 -4.949219 3.253906 -5.144531 2.894531 -5.144531 C 2.5 -5.144531 2.234375 -4.890625 2.101562 -4.386719 C 2.015625 -4.046875 1.972656 -3.476562 1.972656 -2.671875 Z "/>
</g>
<g id="glyph-0-10">
<path d="M 0.1875 -0.277344 C 0.394531 -0.328125 0.539062 -0.394531 0.625 -0.476562 C 0.710938 -0.558594 0.753906 -0.726562 0.753906 -0.984375 L 0.753906 -6.925781 C 0.753906 -7.171875 0.710938 -7.335938 0.632812 -7.410156 C 0.554688 -7.488281 0.40625 -7.550781 0.1875 -7.597656 L 0.1875 -7.882812 L 2.375 -7.882812 L 2.375 -2.859375 L 3.855469 -4.347656 C 3.945312 -4.433594 4.007812 -4.515625 4.042969 -4.59375 C 4.082031 -4.671875 4.101562 -4.734375 4.101562 -4.78125 C 4.101562 -4.898438 4.050781 -4.976562 3.945312 -5.011719 C 3.839844 -5.050781 3.664062 -5.082031 3.414062 -5.105469 L 3.414062 -5.371094 L 5.914062 -5.371094 L 5.914062 -5.105469 C 5.675781 -5.074219 5.484375 -5.03125 5.34375 -4.980469 C 5.09375 -4.878906 4.851562 -4.714844 4.613281 -4.476562 L 3.707031 -3.558594 L 5.964844 -0.457031 C 6.011719 -0.390625 6.054688 -0.347656 6.09375 -0.328125 C 6.136719 -0.308594 6.191406 -0.289062 6.261719 -0.277344 L 6.261719 0 L 3.539062 0 L 3.539062 -0.277344 C 3.707031 -0.285156 3.828125 -0.308594 3.90625 -0.34375 C 3.984375 -0.375 4.023438 -0.429688 4.023438 -0.5 C 4.023438 -0.539062 4.003906 -0.589844 3.972656 -0.65625 C 3.941406 -0.722656 3.863281 -0.847656 3.738281 -1.027344 L 2.632812 -2.59375 L 2.375 -2.308594 L 2.375 -0.984375 C 2.375 -0.722656 2.40625 -0.546875 2.472656 -0.460938 C 2.535156 -0.375 2.703125 -0.3125 2.96875 -0.277344 L 2.96875 0 L 0.1875 0 Z "/>
</g>
<g id="glyph-0-11">
<path d="M 0.296875 -1.765625 L 0.621094 -1.765625 C 0.734375 -1.207031 0.949219 -0.8125 1.257812 -0.582031 C 1.570312 -0.355469 1.890625 -0.238281 2.214844 -0.238281 C 2.515625 -0.238281 2.738281 -0.308594 2.875 -0.441406 C 3.015625 -0.578125 3.085938 -0.753906 3.085938 -0.972656 C 3.085938 -1.183594 3.011719 -1.363281 2.859375 -1.507812 C 2.777344 -1.589844 2.640625 -1.675781 2.457031 -1.765625 L 1.589844 -2.1875 C 1.132812 -2.410156 0.808594 -2.65625 0.609375 -2.917969 C 0.410156 -3.179688 0.308594 -3.488281 0.308594 -3.84375 C 0.308594 -4.296875 0.464844 -4.6875 0.78125 -5.015625 C 1.097656 -5.34375 1.535156 -5.507812 2.101562 -5.507812 C 2.347656 -5.507812 2.609375 -5.46875 2.886719 -5.386719 C 3.164062 -5.304688 3.339844 -5.265625 3.40625 -5.265625 C 3.5 -5.265625 3.570312 -5.285156 3.609375 -5.324219 C 3.648438 -5.363281 3.683594 -5.417969 3.707031 -5.492188 L 3.964844 -5.492188 L 3.964844 -3.804688 L 3.667969 -3.804688 C 3.558594 -4.199219 3.378906 -4.515625 3.128906 -4.757812 C 2.878906 -4.996094 2.585938 -5.117188 2.25 -5.117188 C 1.992188 -5.117188 1.800781 -5.042969 1.671875 -4.898438 C 1.542969 -4.753906 1.480469 -4.597656 1.480469 -4.433594 C 1.480469 -4.296875 1.539062 -4.160156 1.652344 -4.023438 C 1.761719 -3.882812 1.972656 -3.738281 2.277344 -3.589844 L 2.917969 -3.28125 C 3.3125 -3.089844 3.601562 -2.90625 3.78125 -2.730469 C 4.085938 -2.425781 4.238281 -2.050781 4.238281 -1.605469 C 4.238281 -1.171875 4.082031 -0.769531 3.769531 -0.394531 C 3.457031 -0.0195312 2.984375 0.164062 2.359375 0.164062 C 2.203125 0.164062 2.046875 0.148438 1.886719 0.117188 C 1.730469 0.0859375 1.535156 0.0273438 1.304688 -0.0507812 L 1.105469 -0.121094 C 1.03125 -0.148438 0.988281 -0.160156 0.972656 -0.164062 C 0.953125 -0.167969 0.933594 -0.171875 0.90625 -0.171875 C 0.839844 -0.171875 0.785156 -0.144531 0.738281 -0.09375 C 0.691406 -0.0429688 0.636719 0.0429688 0.574219 0.164062 L 0.296875 0.164062 Z "/>
</g>
</g>
<image id="source-11" x="0" y="0" width="0" height="0"/>
<mask id="mask-0">
<use xlink:href="#source-11"/>
</mask>
</defs>
<g fill="rgb(100%, 100%, 100%)" fill-opacity="1">
<use xlink:href="#glyph-0-0" x="30" y="28.75"/>
<use xlink:href="#glyph-0-1" x="38" y="28.75"/>
<use xlink:href="#glyph-0-2" x="43" y="28.75"/>
<use xlink:href="#glyph-0-3" x="49" y="28.75"/>
<use xlink:href="#glyph-0-4" x="54" y="28.75"/>
<use xlink:href="#glyph-0-5" x="60" y="28.75"/>
<use xlink:href="#glyph-0-6" x="63" y="28.75"/>
<use xlink:href="#glyph-0-0" x="66" y="28.75"/>
<use xlink:href="#glyph-0-1" x="74" y="28.75"/>
<use xlink:href="#glyph-0-7" x="79" y="28.75"/>
<use xlink:href="#glyph-0-8" x="83" y="28.75"/>
<use xlink:href="#glyph-0-9" x="91" y="28.75"/>
<use xlink:href="#glyph-0-3" x="97" y="28.75"/>
<use xlink:href="#glyph-0-10" x="102" y="28.75"/>
<use xlink:href="#glyph-0-11" x="108" y="28.75"/>
</g>
</svg>
