<?xml version="1.0" encoding="UTF-8"?>
<svg xmlns="http://www.w3.org/2000/svg" xmlns:xlink="http://www.w3.org/1999/xlink" width="854" height="480" viewBox="0 0 854 480">
<defs>
<g>
<g id="glyph-0-0">
<path d="M 0.4375 -3.308594 L 1.492188 -3.308594 L 1.492188 -3.1875 L 1.046875 -3.1875 C 0.949219 -3.1875 0.882812 -3.15625 0.851562 -3.09375 C 0.832031 -3.0625 0.820312 -3.019531 0.820312 -2.960938 L 0.820312 0.398438 C 0.820312 0.476562 0.832031 0.53125 0.851562 0.566406 C 0.886719 0.628906 0.957031 0.660156 1.0625 0.660156 L 1.492188 0.660156 L 1.492188 0.789062 L 0.4375 0.789062 Z "/>
</g>
<g id="glyph-0-1">
<path d="M 0.0546875 -0.0898438 C 0.253906 -0.109375 0.375 -0.148438 0.421875 -0.199219 C 0.472656 -0.25 0.496094 -0.382812 0.496094 -0.601562 L 0.496094 -2.765625 C 0.496094 -2.945312 0.46875 -3.058594 0.414062 -3.113281 C 0.359375 -3.167969 0.242188 -3.203125 0.0546875 -3.214844 L 0.0546875 -3.308594 L 2.71875 -3.308594 L 2.738281 -2.589844 L 2.597656 -2.589844 C 2.5625 -2.820312 2.5 -2.964844 2.40625 -3.027344 C 2.3125 -3.085938 2.125 -3.117188 1.84375 -3.117188 L 1.164062 -3.117188 C 1.097656 -3.117188 1.050781 -3.105469 1.035156 -3.082031 C 1.015625 -3.058594 1.007812 -3.015625 1.007812 -2.949219 L 1.007812 -1.832031 L 1.726562 -1.832031 C 1.941406 -1.832031 2.078125 -1.867188 2.136719 -1.929688 C 2.195312 -1.992188 2.242188 -2.121094 2.277344 -2.3125 L 2.394531 -2.3125 L 2.394531 -1.15625 L 2.277344 -1.15625 C 2.242188 -1.351562 2.191406 -1.480469 2.132812 -1.542969 C 2.074219 -1.605469 1.941406 -1.636719 1.726562 -1.636719 L 1.007812 -1.636719 L 1.007812 -0.542969 C 1.007812 -0.359375 1.035156 -0.242188 1.089844 -0.1875 C 1.144531 -0.136719 1.269531 -0.105469 1.457031 -0.0898438 L 1.457031 0 L 0.0546875 0 Z "/>
</g>
<g id="glyph-0-2">
<path d="M 0.410156 -3.152344 C 0.410156 -3.222656 0.433594 -3.28125 0.484375 -3.332031 C 0.53125 -3.382812 0.59375 -3.40625 0.664062 -3.40625 C 0.734375 -3.40625 0.792969 -3.382812 0.84375 -3.332031 C 0.894531 -3.285156 0.917969 -3.222656 0.917969 -3.152344 C 0.917969 -3.082031 0.894531 -3.023438 0.84375 -2.972656 C 0.792969 -2.921875 0.734375 -2.898438 0.664062 -2.898438 C 0.59375 -2.898438 0.53125 -2.921875 0.484375 -2.972656 C 0.433594 -3.023438 0.410156 -3.082031 0.410156 -3.152344 Z M 0.0976562 -0.0703125 C 0.273438 -0.0859375 0.382812 -0.113281 0.425781 -0.15625 C 0.472656 -0.199219 0.496094 -0.316406 0.496094 -0.507812 L 0.496094 -1.671875 C 0.496094 -1.777344 0.488281 -1.851562 0.472656 -1.890625 C 0.449219 -1.957031 0.398438 -1.992188 0.320312 -1.992188 C 0.300781 -1.992188 0.285156 -1.992188 0.265625 -1.988281 C 0.25 -1.984375 0.199219 -1.972656 0.121094 -1.949219 L 0.121094 -2.023438 L 0.226562 -2.058594 C 0.511719 -2.152344 0.707031 -2.222656 0.820312 -2.269531 C 0.867188 -2.289062 0.894531 -2.296875 0.90625 -2.296875 C 0.910156 -2.285156 0.914062 -2.273438 0.914062 -2.261719 L 0.914062 -0.507812 C 0.914062 -0.320312 0.933594 -0.207031 0.980469 -0.160156 C 1.023438 -0.113281 1.125 -0.0820312 1.285156 -0.0703125 L 1.285156 0 L 0.0976562 0 Z "/>
</g>
<g id="glyph-0-3">
<path d="M 1.15625 -2.242188 L 1.15625 -2.175781 C 1.09375 -2.171875 1.042969 -2.164062 1 -2.148438 C 0.957031 -2.132812 0.933594 -2.101562 0.933594 -2.054688 C 0.933594 -2.023438 0.976562 -1.933594 1.0625 -1.792969 C 1.109375 -1.71875 1.167969 -1.625 1.238281 -1.515625 C 1.335938 -1.648438 1.40625 -1.75 1.453125 -1.828125 C 1.53125 -1.945312 1.570312 -2.023438 1.570312 -2.0625 C 1.570312 -2.101562 1.554688 -2.132812 1.519531 -2.144531 C 1.484375 -2.160156 1.4375 -2.171875 1.375 -2.175781 L 1.375 -2.242188 L 2.164062 -2.242188 L 2.164062 -2.175781 C 2.082031 -2.167969 2.003906 -2.144531 1.929688 -2.109375 C 1.859375 -2.070312 1.800781 -2.019531 1.757812 -1.957031 L 1.339844 -1.351562 L 1.984375 -0.375 C 2.066406 -0.25 2.136719 -0.167969 2.195312 -0.128906 C 2.253906 -0.09375 2.320312 -0.0703125 2.394531 -0.0703125 L 2.394531 0 L 1.386719 0 L 1.386719 -0.0703125 L 1.457031 -0.0742188 C 1.496094 -0.078125 1.527344 -0.0859375 1.550781 -0.109375 C 1.578125 -0.128906 1.589844 -0.152344 1.589844 -0.179688 C 1.589844 -0.210938 1.558594 -0.28125 1.496094 -0.386719 C 1.46875 -0.4375 1.421875 -0.507812 1.363281 -0.597656 C 1.335938 -0.640625 1.296875 -0.703125 1.242188 -0.78125 C 1.1875 -0.859375 1.140625 -0.925781 1.101562 -0.980469 L 0.710938 -0.367188 C 0.664062 -0.296875 0.632812 -0.246094 0.621094 -0.222656 C 0.609375 -0.199219 0.605469 -0.175781 0.605469 -0.160156 C 0.605469 -0.128906 0.617188 -0.109375 0.644531 -0.101562 C 0.667969 -0.0898438 0.722656 -0.078125 0.808594 -0.0703125 L 0.808594 0 L 0.0859375 0 L 0.0859375 -0.0703125 C 0.171875 -0.0859375 0.238281 -0.109375 0.28125 -0.136719 C 0.324219 -0.164062 0.378906 -0.230469 0.449219 -0.328125 L 1.019531 -1.15625 L 0.550781 -1.867188 C 0.457031 -2.007812 0.390625 -2.09375 0.355469 -2.117188 C 0.320312 -2.144531 0.238281 -2.164062 0.121094 -2.175781 L 0.121094 -2.242188 Z "/>
</g>
<g id="glyph-0-4">
<path d="M 1.21875 0.789062 L 0.164062 0.789062 L 0.164062 0.667969 L 0.613281 0.667969 C 0.710938 0.667969 0.773438 0.636719 0.8125 0.578125 C 0.828125 0.542969 0.835938 0.5 0.835938 0.441406 L 0.835938 -2.921875 C 0.835938 -3 0.820312 -3.066406 0.789062 -3.113281 C 0.757812 -3.160156 0.695312 -3.179688 0.59375 -3.179688 L 0.164062 -3.179688 L 0.164062 -3.308594 L 1.21875 -3.308594 Z "/>
</g>
</g>
</defs>
<g fill="rgb(29.803922%, 68.627451%, 31.372549%)" fill-opacity="1">
<use xlink:href="#glyph-0-0" x="30" y="23.75"/>
<use xlink:href="#glyph-0-1" x="32" y="23.75"/>
<use xlink:href="#glyph-0-2" x="35" y="23.75"/>
<use xlink:href="#glyph-0-3" x="36" y="23.75"/>
<use xlink:href="#glyph-0-4" x="39" y="23.75"/>
</g>
</svg>
