<?xml version="1.0" encoding="UTF-8"?>
<svg xmlns="http://www.w3.org/2000/svg" xmlns:xlink="http://www.w3.org/1999/xlink" width="854" height="480" viewBox="0 0 854 480">
<defs>
<g>
<g id="glyph-0-0">
<path d="M 0.125 -0.140625 C 0.441406 -0.164062 0.648438 -0.210938 0.742188 -0.28125 C 0.835938 -0.355469 0.882812 -0.542969 0.882812 -0.84375 L 0.882812 -4.300781 C 0.882812 -4.589844 0.835938 -4.773438 0.742188 -4.855469 C 0.648438 -4.9375 0.441406 -4.984375 0.125 -5 L 0.125 -5.144531 L 2.425781 -5.144531 L 2.425781 -5 C 2.109375 -4.984375 1.90625 -4.9375 1.8125 -4.855469 C 1.71875 -4.773438 1.671875 -4.589844 1.671875 -4.300781 L 1.671875 -0.84375 C 1.671875 -0.542969 1.71875 -0.355469 1.8125 -0.28125 C 1.90625 -0.210938 2.109375 -0.164062 2.425781 -0.140625 L 2.425781 0 L 0.125 0 Z "/>
</g>
<g id="glyph-0-1">
<path d="M 0.140625 -0.105469 C 0.320312 -0.128906 0.445312 -0.175781 0.519531 -0.242188 C 0.589844 -0.308594 0.625 -0.457031 0.625 -0.691406 L 0.625 -2.617188 C 0.625 -2.777344 0.613281 -2.890625 0.582031 -2.957031 C 0.535156 -3.054688 0.433594 -3.101562 0.285156 -3.101562 C 0.261719 -3.101562 0.238281 -3.101562 0.214844 -3.097656 C 0.191406 -3.097656 0.160156 -3.09375 0.125 -3.085938 L 0.125 -3.21875 C 0.230469 -3.25 0.476562 -3.328125 0.863281 -3.457031 L 1.21875 -3.574219 C 1.238281 -3.574219 1.246094 -3.566406 1.25 -3.554688 C 1.253906 -3.542969 1.257812 -3.523438 1.257812 -3.5 L 1.257812 -2.941406 C 1.488281 -3.160156 1.671875 -3.308594 1.804688 -3.390625 C 2 -3.515625 2.207031 -3.578125 2.417969 -3.578125 C 2.589844 -3.578125 2.75 -3.527344 2.890625 -3.429688 C 3.164062 -3.238281 3.300781 -2.894531 3.300781 -2.398438 L 3.300781 -0.625 C 3.300781 -0.445312 3.335938 -0.3125 3.410156 -0.230469 C 3.484375 -0.148438 3.605469 -0.109375 3.777344 -0.105469 L 3.777344 0 L 2.15625 0 L 2.15625 -0.105469 C 2.339844 -0.132812 2.472656 -0.183594 2.542969 -0.261719 C 2.617188 -0.335938 2.65625 -0.503906 2.65625 -0.761719 L 2.65625 -2.386719 C 2.65625 -2.601562 2.613281 -2.78125 2.53125 -2.925781 C 2.453125 -3.070312 2.300781 -3.140625 2.085938 -3.140625 C 1.9375 -3.140625 1.785156 -3.089844 1.628906 -2.988281 C 1.542969 -2.929688 1.433594 -2.835938 1.296875 -2.699219 L 1.296875 -0.574219 C 1.296875 -0.390625 1.335938 -0.269531 1.417969 -0.207031 C 1.496094 -0.144531 1.625 -0.113281 1.800781 -0.105469 L 1.800781 0 L 0.140625 0 Z "/>
</g>
<g id="glyph-0-2">
<path d="M 0.402344 -1.195312 L 0.527344 -1.195312 C 0.585938 -0.90625 0.664062 -0.6875 0.761719 -0.53125 C 0.941406 -0.246094 1.199219 -0.105469 1.542969 -0.105469 C 1.730469 -0.105469 1.882812 -0.160156 1.992188 -0.265625 C 2.101562 -0.371094 2.15625 -0.503906 2.15625 -0.671875 C 2.15625 -0.777344 2.125 -0.882812 2.0625 -0.980469 C 2 -1.078125 1.886719 -1.175781 1.726562 -1.269531 L 1.300781 -1.511719 C 0.992188 -1.679688 0.761719 -1.847656 0.613281 -2.015625 C 0.46875 -2.1875 0.394531 -2.386719 0.394531 -2.617188 C 0.394531 -2.898438 0.496094 -3.132812 0.699219 -3.316406 C 0.902344 -3.496094 1.15625 -3.589844 1.460938 -3.589844 C 1.597656 -3.589844 1.742188 -3.5625 1.90625 -3.511719 C 2.066406 -3.460938 2.15625 -3.4375 2.175781 -3.4375 C 2.222656 -3.4375 2.253906 -3.441406 2.273438 -3.457031 C 2.292969 -3.46875 2.3125 -3.488281 2.328125 -3.515625 L 2.417969 -3.515625 L 2.445312 -2.457031 L 2.328125 -2.457031 C 2.277344 -2.703125 2.207031 -2.894531 2.121094 -3.03125 C 1.964844 -3.285156 1.738281 -3.410156 1.441406 -3.410156 C 1.265625 -3.410156 1.125 -3.355469 1.023438 -3.246094 C 0.921875 -3.136719 0.875 -3.011719 0.875 -2.863281 C 0.875 -2.628906 1.046875 -2.421875 1.398438 -2.242188 L 1.898438 -1.972656 C 2.4375 -1.679688 2.707031 -1.335938 2.707031 -0.945312 C 2.707031 -0.648438 2.59375 -0.402344 2.371094 -0.210938 C 2.148438 -0.0234375 1.855469 0.0703125 1.492188 0.0703125 C 1.339844 0.0703125 1.167969 0.046875 0.976562 -0.00390625 C 0.785156 -0.0546875 0.667969 -0.078125 0.632812 -0.078125 C 0.601562 -0.078125 0.578125 -0.0703125 0.554688 -0.046875 C 0.53125 -0.0273438 0.515625 0 0.5 0.03125 L 0.402344 0.03125 Z "/>
</g>
<g id="glyph-0-3">
<path d="M 1.976562 -3.5 L 1.976562 -3.226562 L 1.203125 -3.226562 L 1.195312 -1.039062 C 1.195312 -0.847656 1.210938 -0.703125 1.246094 -0.605469 C 1.304688 -0.429688 1.425781 -0.339844 1.601562 -0.339844 C 1.695312 -0.339844 1.773438 -0.363281 1.839844 -0.40625 C 1.90625 -0.449219 1.984375 -0.519531 2.070312 -0.613281 L 2.167969 -0.527344 L 2.085938 -0.414062 C 1.953125 -0.238281 1.8125 -0.113281 1.667969 -0.0390625 C 1.519531 0.0351562 1.378906 0.0703125 1.242188 0.0703125 C 0.941406 0.0703125 0.742188 -0.0625 0.632812 -0.328125 C 0.574219 -0.472656 0.546875 -0.671875 0.546875 -0.925781 L 0.546875 -3.226562 L 0.132812 -3.226562 C 0.121094 -3.234375 0.109375 -3.242188 0.105469 -3.25 C 0.0976562 -3.257812 0.09375 -3.269531 0.09375 -3.28125 C 0.09375 -3.304688 0.101562 -3.324219 0.113281 -3.339844 C 0.125 -3.355469 0.160156 -3.386719 0.21875 -3.4375 C 0.394531 -3.582031 0.519531 -3.699219 0.597656 -3.789062 C 0.675781 -3.878906 0.855469 -4.117188 1.144531 -4.5 C 1.175781 -4.5 1.195312 -4.496094 1.203125 -4.492188 C 1.207031 -4.488281 1.210938 -4.46875 1.210938 -4.433594 L 1.210938 -3.5 Z "/>
</g>
<g id="glyph-0-4">
<path d="M 0.0351562 -0.125 C 0.265625 -0.144531 0.421875 -0.1875 0.496094 -0.25 C 0.574219 -0.3125 0.613281 -0.441406 0.613281 -0.644531 L 0.613281 -2.359375 C 0.613281 -2.609375 0.589844 -2.789062 0.542969 -2.894531 C 0.496094 -3.003906 0.410156 -3.058594 0.285156 -3.058594 C 0.257812 -3.058594 0.226562 -3.054688 0.183594 -3.046875 C 0.140625 -3.039062 0.0976562 -3.03125 0.0546875 -3.023438 L 0.0546875 -3.148438 C 0.199219 -3.199219 0.34375 -3.25 0.496094 -3.304688 C 0.648438 -3.355469 0.753906 -3.394531 0.8125 -3.417969 C 0.9375 -3.464844 1.070312 -3.519531 1.203125 -3.582031 C 1.222656 -3.582031 1.230469 -3.574219 1.234375 -3.5625 C 1.238281 -3.550781 1.242188 -3.523438 1.242188 -3.480469 L 1.242188 -2.859375 C 1.402344 -3.085938 1.558594 -3.261719 1.710938 -3.386719 C 1.863281 -3.515625 2.019531 -3.578125 2.179688 -3.578125 C 2.308594 -3.578125 2.414062 -3.539062 2.496094 -3.460938 C 2.578125 -3.382812 2.617188 -3.289062 2.617188 -3.171875 C 2.617188 -3.066406 2.585938 -2.980469 2.523438 -2.910156 C 2.460938 -2.839844 2.382812 -2.800781 2.289062 -2.800781 C 2.195312 -2.800781 2.097656 -2.847656 2 -2.933594 C 1.902344 -3.023438 1.824219 -3.070312 1.769531 -3.070312 C 1.679688 -3.070312 1.570312 -2.996094 1.441406 -2.855469 C 1.3125 -2.710938 1.25 -2.5625 1.25 -2.410156 L 1.25 -0.699219 C 1.25 -0.480469 1.300781 -0.328125 1.402344 -0.246094 C 1.503906 -0.160156 1.671875 -0.121094 1.90625 -0.125 L 1.90625 0 L 0.0351562 0 Z "/>
</g>
<g id="glyph-0-5">
<path d="M 1.203125 -3.515625 L 1.203125 -1.085938 C 1.203125 -0.914062 1.226562 -0.777344 1.277344 -0.671875 C 1.371094 -0.480469 1.542969 -0.382812 1.792969 -0.382812 C 1.964844 -0.382812 2.132812 -0.441406 2.296875 -0.554688 C 2.390625 -0.617188 2.484375 -0.703125 2.582031 -0.816406 L 2.582031 -2.898438 C 2.582031 -3.09375 2.542969 -3.21875 2.46875 -3.28125 C 2.390625 -3.34375 2.242188 -3.378906 2.011719 -3.390625 L 2.011719 -3.515625 L 3.238281 -3.515625 L 3.238281 -0.84375 C 3.238281 -0.671875 3.269531 -0.550781 3.332031 -0.488281 C 3.394531 -0.421875 3.523438 -0.394531 3.726562 -0.402344 L 3.726562 -0.296875 C 3.585938 -0.257812 3.484375 -0.230469 3.417969 -0.210938 C 3.351562 -0.191406 3.242188 -0.15625 3.085938 -0.105469 C 3.019531 -0.0820312 2.878906 -0.0273438 2.65625 0.0585938 C 2.640625 0.0585938 2.632812 0.0507812 2.632812 0.0390625 C 2.628906 0.0273438 2.628906 0.015625 2.628906 0 L 2.628906 -0.613281 C 2.457031 -0.40625 2.296875 -0.253906 2.15625 -0.15625 C 1.941406 -0.00390625 1.714844 0.0703125 1.472656 0.0703125 C 1.253906 0.0703125 1.046875 -0.0078125 0.851562 -0.164062 C 0.652344 -0.316406 0.554688 -0.578125 0.554688 -0.941406 L 0.554688 -2.914062 C 0.554688 -3.117188 0.511719 -3.25 0.425781 -3.320312 C 0.371094 -3.363281 0.25 -3.390625 0.0664062 -3.410156 L 0.0664062 -3.515625 Z "/>
</g>
<g id="glyph-0-6">
<path d="M 1.933594 -3.582031 C 2.25 -3.582031 2.523438 -3.5 2.75 -3.335938 C 2.980469 -3.171875 3.09375 -2.992188 3.09375 -2.796875 C 3.09375 -2.714844 3.066406 -2.636719 3.007812 -2.566406 C 2.949219 -2.492188 2.859375 -2.457031 2.738281 -2.457031 C 2.648438 -2.457031 2.570312 -2.488281 2.503906 -2.546875 C 2.4375 -2.609375 2.386719 -2.699219 2.359375 -2.8125 L 2.3125 -2.996094 C 2.28125 -3.128906 2.222656 -3.226562 2.140625 -3.28125 C 2.058594 -3.335938 1.949219 -3.359375 1.8125 -3.359375 C 1.523438 -3.359375 1.277344 -3.234375 1.082031 -2.984375 C 0.882812 -2.730469 0.78125 -2.394531 0.78125 -1.976562 C 0.78125 -1.59375 0.890625 -1.253906 1.109375 -0.949219 C 1.328125 -0.644531 1.625 -0.492188 1.996094 -0.492188 C 2.261719 -0.492188 2.496094 -0.578125 2.699219 -0.75 C 2.816406 -0.851562 2.949219 -1.007812 3.09375 -1.222656 L 3.203125 -1.160156 C 3.058594 -0.855469 2.90625 -0.613281 2.746094 -0.4375 C 2.4375 -0.0976562 2.085938 0.0703125 1.683594 0.0703125 C 1.289062 0.0703125 0.9375 -0.0820312 0.632812 -0.394531 C 0.328125 -0.707031 0.179688 -1.128906 0.179688 -1.664062 C 0.179688 -2.1875 0.34375 -2.636719 0.675781 -3.015625 C 1.007812 -3.394531 1.425781 -3.582031 1.933594 -3.582031 Z "/>
</g>
<g id="glyph-0-7">
<path d="M 0.636719 -4.902344 C 0.636719 -5.011719 0.675781 -5.105469 0.75 -5.183594 C 0.828125 -5.261719 0.921875 -5.300781 1.03125 -5.300781 C 1.140625 -5.300781 1.234375 -5.261719 1.3125 -5.183594 C 1.390625 -5.109375 1.429688 -5.015625 1.429688 -4.902344 C 1.429688 -4.792969 1.390625 -4.699219 1.3125 -4.625 C 1.234375 -4.546875 1.140625 -4.507812 1.03125 -4.507812 C 0.921875 -4.507812 0.828125 -4.546875 0.75 -4.625 C 0.675781 -4.703125 0.636719 -4.792969 0.636719 -4.902344 Z M 0.152344 -0.105469 C 0.421875 -0.132812 0.59375 -0.179688 0.664062 -0.246094 C 0.734375 -0.3125 0.769531 -0.492188 0.769531 -0.789062 L 0.769531 -2.601562 C 0.769531 -2.765625 0.757812 -2.878906 0.738281 -2.941406 C 0.699219 -3.046875 0.617188 -3.097656 0.496094 -3.097656 C 0.46875 -3.097656 0.441406 -3.097656 0.414062 -3.089844 C 0.386719 -3.085938 0.3125 -3.066406 0.1875 -3.03125 L 0.1875 -3.148438 L 0.347656 -3.203125 C 0.792969 -3.347656 1.101562 -3.453125 1.277344 -3.527344 C 1.347656 -3.558594 1.390625 -3.574219 1.414062 -3.574219 C 1.417969 -3.554688 1.421875 -3.535156 1.421875 -3.515625 L 1.421875 -0.789062 C 1.421875 -0.5 1.457031 -0.320312 1.523438 -0.246094 C 1.59375 -0.171875 1.75 -0.125 1.996094 -0.105469 L 1.996094 0 L 0.152344 0 Z "/>
</g>
<g id="glyph-0-8">
<path d="M 0.199219 -1.761719 C 0.199219 -2.265625 0.359375 -2.691406 0.679688 -3.039062 C 1 -3.386719 1.410156 -3.5625 1.914062 -3.5625 C 2.414062 -3.5625 2.832031 -3.398438 3.160156 -3.070312 C 3.488281 -2.738281 3.652344 -2.300781 3.652344 -1.753906 C 3.652344 -1.25 3.492188 -0.8125 3.175781 -0.441406 C 2.855469 -0.0703125 2.441406 0.117188 1.9375 0.117188 C 1.449219 0.117188 1.039062 -0.0625 0.703125 -0.417969 C 0.367188 -0.773438 0.199219 -1.222656 0.199219 -1.761719 Z M 1.808594 -3.335938 C 1.609375 -3.335938 1.433594 -3.269531 1.289062 -3.136719 C 1.035156 -2.90625 0.90625 -2.507812 0.90625 -1.945312 C 0.90625 -1.492188 1.007812 -1.074219 1.214844 -0.683594 C 1.417969 -0.292969 1.699219 -0.0976562 2.0625 -0.0976562 C 2.347656 -0.0976562 2.5625 -0.230469 2.71875 -0.488281 C 2.871094 -0.75 2.945312 -1.09375 2.945312 -1.515625 C 2.945312 -1.953125 2.847656 -2.367188 2.65625 -2.753906 C 2.460938 -3.140625 2.175781 -3.335938 1.808594 -3.335938 Z "/>
</g>
<g id="glyph-0-9">
<rect x="0" y="0" width="0" height="0" mask="url(#mask-0)"/>
</g>
<g id="glyph-0-10">
<path d="M 2.300781 -5.21875 C 2.3125 -5.207031 2.316406 -5.195312 2.320312 -5.1875 C 2.320312 -5.183594 2.320312 -5.167969 2.320312 -5.144531 L 2.320312 -0.574219 C 2.320312 -0.378906 2.371094 -0.253906 2.476562 -0.203125 C 2.578125 -0.148438 2.773438 -0.117188 3.058594 -0.105469 L 3.058594 0 L 0.914062 0 L 0.914062 -0.113281 C 1.222656 -0.128906 1.421875 -0.171875 1.515625 -0.238281 C 1.609375 -0.308594 1.65625 -0.457031 1.65625 -0.683594 L 1.65625 -4.199219 C 1.65625 -4.320312 1.640625 -4.414062 1.609375 -4.476562 C 1.578125 -4.539062 1.515625 -4.570312 1.414062 -4.570312 C 1.347656 -4.570312 1.261719 -4.554688 1.15625 -4.515625 C 1.050781 -4.480469 0.953125 -4.441406 0.863281 -4.402344 L 0.863281 -4.507812 L 2.253906 -5.21875 Z "/>
</g>
<g id="glyph-0-11">
<path d="M 0.582031 -0.695312 C 0.726562 -0.695312 0.914062 -0.613281 1.148438 -0.449219 C 1.382812 -0.285156 1.5625 -0.203125 1.691406 -0.203125 C 1.980469 -0.203125 2.234375 -0.332031 2.453125 -0.589844 C 2.671875 -0.847656 2.78125 -1.164062 2.78125 -1.539062 C 2.78125 -2.195312 2.429688 -2.664062 1.730469 -2.953125 C 1.34375 -3.113281 0.984375 -3.195312 0.648438 -3.195312 C 0.59375 -3.195312 0.558594 -3.195312 0.546875 -3.199219 C 0.53125 -3.203125 0.515625 -3.214844 0.492188 -3.238281 C 0.5 -3.257812 0.503906 -3.277344 0.507812 -3.289062 C 0.511719 -3.304688 0.515625 -3.316406 0.519531 -3.332031 L 1.347656 -5.144531 L 2.976562 -5.144531 C 3.058594 -5.144531 3.121094 -5.160156 3.164062 -5.1875 C 3.210938 -5.214844 3.265625 -5.265625 3.339844 -5.34375 L 3.398438 -5.289062 L 3.101562 -4.585938 C 3.09375 -4.5625 3.066406 -4.550781 3.019531 -4.542969 C 2.972656 -4.539062 2.925781 -4.535156 2.871094 -4.535156 L 1.402344 -4.535156 L 1.078125 -3.871094 C 1.492188 -3.800781 1.796875 -3.730469 1.988281 -3.667969 C 2.304688 -3.5625 2.570312 -3.40625 2.785156 -3.199219 C 2.964844 -3.019531 3.105469 -2.816406 3.199219 -2.59375 C 3.292969 -2.367188 3.339844 -2.128906 3.339844 -1.878906 C 3.339844 -1.320312 3.136719 -0.851562 2.738281 -0.476562 C 2.339844 -0.101562 1.835938 0.0820312 1.226562 0.0820312 C 0.976562 0.0820312 0.777344 0.0585938 0.625 0.0117188 C 0.371094 -0.0664062 0.246094 -0.207031 0.246094 -0.410156 C 0.246094 -0.484375 0.273438 -0.550781 0.328125 -0.609375 C 0.382812 -0.667969 0.46875 -0.695312 0.582031 -0.695312 Z "/>
</g>
<g id="glyph-0-12">
<path d="M 2.148438 -5.144531 C 2.304688 -5.144531 2.433594 -5.125 2.53125 -5.085938 C 2.585938 -5.066406 2.636719 -5.03125 2.6875 -4.984375 L 2.832031 -4.855469 C 2.890625 -4.804688 2.972656 -4.769531 3.078125 -4.75 C 3.1875 -4.730469 3.296875 -4.71875 3.40625 -4.71875 C 3.699219 -4.71875 3.964844 -4.792969 4.210938 -4.933594 C 4.34375 -5.007812 4.480469 -5.113281 4.625 -5.253906 L 4.929688 -5.253906 L 1.933594 0.109375 L 1.566406 0.109375 L 4.273438 -4.75 C 4.082031 -4.660156 3.941406 -4.605469 3.847656 -4.574219 C 3.753906 -4.546875 3.628906 -4.535156 3.476562 -4.535156 C 3.339844 -4.535156 3.21875 -4.542969 3.121094 -4.5625 C 3.058594 -4.570312 2.996094 -4.585938 2.933594 -4.605469 C 2.953125 -4.539062 2.964844 -4.480469 2.972656 -4.4375 C 2.980469 -4.394531 2.984375 -4.324219 2.984375 -4.230469 C 2.984375 -3.773438 2.832031 -3.328125 2.527344 -2.894531 C 2.222656 -2.460938 1.847656 -2.246094 1.40625 -2.246094 C 1.171875 -2.246094 0.957031 -2.335938 0.761719 -2.515625 C 0.570312 -2.695312 0.476562 -2.957031 0.476562 -3.304688 C 0.476562 -3.722656 0.644531 -4.132812 0.984375 -4.539062 C 1.324219 -4.945312 1.710938 -5.144531 2.148438 -5.144531 Z M 4.59375 -0.230469 C 4.902344 -0.230469 5.183594 -0.433594 5.429688 -0.835938 C 5.675781 -1.242188 5.800781 -1.613281 5.800781 -1.960938 C 5.800781 -2.171875 5.746094 -2.339844 5.644531 -2.457031 C 5.539062 -2.574219 5.402344 -2.636719 5.238281 -2.636719 C 4.9375 -2.636719 4.667969 -2.40625 4.433594 -1.945312 C 4.195312 -1.484375 4.078125 -1.085938 4.078125 -0.75 C 4.078125 -0.582031 4.125 -0.453125 4.222656 -0.363281 C 4.320312 -0.277344 4.441406 -0.230469 4.59375 -0.230469 Z M 3.488281 -1.058594 C 3.488281 -1.496094 3.664062 -1.910156 4.011719 -2.300781 C 4.359375 -2.6875 4.746094 -2.882812 5.167969 -2.882812 C 5.386719 -2.882812 5.582031 -2.816406 5.753906 -2.683594 C 5.921875 -2.554688 6.007812 -2.308594 6.007812 -1.953125 C 6.007812 -1.570312 5.863281 -1.148438 5.574219 -0.683594 C 5.285156 -0.21875 4.90625 0.0117188 4.433594 0.0117188 C 4.175781 0.0117188 3.957031 -0.0742188 3.769531 -0.25 C 3.582031 -0.421875 3.488281 -0.691406 3.488281 -1.058594 Z M 1.546875 -2.511719 C 1.855469 -2.511719 2.140625 -2.699219 2.398438 -3.074219 C 2.65625 -3.453125 2.789062 -3.863281 2.789062 -4.308594 C 2.789062 -4.46875 2.769531 -4.570312 2.734375 -4.617188 C 2.703125 -4.664062 2.640625 -4.695312 2.554688 -4.714844 C 2.496094 -4.730469 2.421875 -4.769531 2.339844 -4.828125 C 2.257812 -4.886719 2.207031 -4.917969 2.191406 -4.917969 C 1.945312 -4.917969 1.695312 -4.699219 1.441406 -4.257812 C 1.1875 -3.820312 1.058594 -3.414062 1.058594 -3.046875 C 1.058594 -2.878906 1.097656 -2.746094 1.179688 -2.652344 C 1.257812 -2.558594 1.382812 -2.511719 1.546875 -2.511719 Z "/>
</g>
</g>
<image id="source-11" x="0" y="0" width="0" height="0"/>
<mask id="mask-0">
<use xlink:href="#source-11"/>
</mask>
</defs>
<g fill="rgb(100%, 100%, 100%)" fill-opacity="1">
<use xlink:href="#glyph-0-0" x="30" y="25.833008"/>
<use xlink:href="#glyph-0-1" x="33" y="25.833008"/>
<use xlink:href="#glyph-0-2" x="37" y="25.833008"/>
<use xlink:href="#glyph-0-3" x="40" y="25.833008"/>
<use xlink:href="#glyph-0-4" x="42" y="25.833008"/>
<use xlink:href="#glyph-0-5" x="45" y="25.833008"/>
<use xlink:href="#glyph-0-6" x="49" y="25.833008"/>
<use xlink:href="#glyph-0-3" x="52" y="25.833008"/>
<use xlink:href="#glyph-0-7" x="54" y="25.833008"/>
<use xlink:href="#glyph-0-8" x="56" y="25.833008"/>
<use xlink:href="#glyph-0-1" x="60" y="25.833008"/>
<use xlink:href="#glyph-0-2" x="64" y="25.833008"/>
<use xlink:href="#glyph-0-9" x="67" y="25.833008"/>
</g>
<g fill="rgb(100%, 100%, 100%)" fill-opacity="1">
<use xlink:href="#glyph-0-10" x="30" y="33.415039"/>
<use xlink:href="#glyph-0-11" x="34" y="33.415039"/>
<use xlink:href="#glyph-0-12" x="38" y="33.415039"/>
</g>
</svg>
