<?xml version="1.0" encoding="UTF-8"?>
<svg xmlns="http://www.w3.org/2000/svg" xmlns:xlink="http://www.w3.org/1999/xlink" width="854" height="480" viewBox="0 0 854 480">
<defs>
<g>
<g id="glyph-0-0">
<path d="M 0.0703125 -0.109375 C 0.292969 -0.132812 0.4375 -0.175781 0.503906 -0.230469 C 0.570312 -0.289062 0.605469 -0.429688 0.605469 -0.664062 L 0.605469 -3.378906 C 0.605469 -3.597656 0.574219 -3.738281 0.507812 -3.804688 C 0.441406 -3.871094 0.296875 -3.914062 0.0703125 -3.929688 L 0.0703125 -4.042969 L 1.796875 -4.042969 L 1.796875 -3.929688 C 1.570312 -3.917969 1.421875 -3.878906 1.34375 -3.820312 C 1.265625 -3.757812 1.230469 -3.625 1.230469 -3.421875 L 1.230469 -0.484375 C 1.230469 -0.417969 1.242188 -0.367188 1.261719 -0.328125 C 1.285156 -0.289062 1.335938 -0.261719 1.414062 -0.253906 C 1.460938 -0.246094 1.507812 -0.242188 1.558594 -0.242188 C 1.609375 -0.238281 1.703125 -0.238281 1.84375 -0.238281 C 2.386719 -0.238281 2.753906 -0.285156 2.945312 -0.371094 C 3.136719 -0.460938 3.320312 -0.691406 3.5 -1.058594 L 3.65625 -1.058594 L 3.355469 0 L 0.0703125 0 Z "/>
</g>
<g id="glyph-0-1">
<path d="M 0.394531 -1.230469 C 0.496094 -0.957031 0.617188 -0.734375 0.757812 -0.574219 C 1 -0.289062 1.300781 -0.144531 1.660156 -0.144531 C 1.855469 -0.144531 2.023438 -0.207031 2.167969 -0.332031 C 2.308594 -0.453125 2.382812 -0.625 2.382812 -0.847656 C 2.382812 -1.046875 2.308594 -1.21875 2.167969 -1.367188 C 2.074219 -1.460938 1.875 -1.601562 1.574219 -1.789062 L 1.054688 -2.113281 C 0.898438 -2.210938 0.769531 -2.3125 0.675781 -2.414062 C 0.503906 -2.605469 0.417969 -2.820312 0.417969 -3.050781 C 0.417969 -3.359375 0.519531 -3.617188 0.726562 -3.820312 C 0.929688 -4.027344 1.203125 -4.128906 1.539062 -4.128906 C 1.679688 -4.128906 1.847656 -4.09375 2.042969 -4.027344 C 2.238281 -3.957031 2.351562 -3.921875 2.378906 -3.921875 C 2.453125 -3.921875 2.503906 -3.941406 2.535156 -3.976562 C 2.5625 -4.011719 2.585938 -4.0625 2.601562 -4.128906 L 2.726562 -4.128906 L 2.859375 -2.828125 L 2.714844 -2.828125 C 2.617188 -3.21875 2.457031 -3.492188 2.234375 -3.648438 C 2.015625 -3.804688 1.800781 -3.882812 1.585938 -3.882812 C 1.417969 -3.882812 1.273438 -3.832031 1.148438 -3.734375 C 1.023438 -3.636719 0.960938 -3.5 0.960938 -3.324219 C 0.960938 -3.167969 1.007812 -3.03125 1.105469 -2.921875 C 1.199219 -2.808594 1.347656 -2.6875 1.546875 -2.566406 L 2.085938 -2.234375 C 2.421875 -2.027344 2.660156 -1.835938 2.796875 -1.664062 C 2.929688 -1.488281 3 -1.28125 3 -1.042969 C 3 -0.722656 2.878906 -0.457031 2.636719 -0.242188 C 2.394531 -0.0273438 2.085938 0.0820312 1.710938 0.0820312 C 1.519531 0.0820312 1.324219 0.0429688 1.117188 -0.0273438 C 0.910156 -0.0976562 0.792969 -0.132812 0.765625 -0.132812 C 0.691406 -0.132812 0.644531 -0.113281 0.617188 -0.0703125 C 0.59375 -0.0273438 0.578125 0.0234375 0.570312 0.0703125 L 0.4375 0.0703125 L 0.253906 -1.230469 Z "/>
</g>
<g id="glyph-0-2">
<path d="M 0.121094 -4.042969 L 3.570312 -4.042969 L 3.605469 -3.003906 L 3.457031 -3.003906 C 3.386719 -3.332031 3.296875 -3.542969 3.183594 -3.640625 C 3.074219 -3.738281 2.84375 -3.789062 2.488281 -3.789062 L 2.148438 -3.789062 L 2.148438 -0.664062 C 2.148438 -0.425781 2.183594 -0.277344 2.257812 -0.222656 C 2.332031 -0.164062 2.492188 -0.128906 2.742188 -0.109375 L 2.742188 0 L 0.960938 0 L 0.960938 -0.109375 C 1.21875 -0.128906 1.378906 -0.171875 1.445312 -0.238281 C 1.507812 -0.304688 1.539062 -0.46875 1.539062 -0.734375 L 1.539062 -3.789062 L 1.199219 -3.789062 C 0.859375 -3.789062 0.632812 -3.742188 0.507812 -3.644531 C 0.386719 -3.546875 0.292969 -3.332031 0.234375 -3.003906 L 0.0820312 -3.003906 Z "/>
</g>
<g id="glyph-0-3">
<path d="M 0.0703125 -0.109375 C 0.320312 -0.136719 0.484375 -0.195312 0.554688 -0.28125 C 0.625 -0.371094 0.664062 -0.574219 0.664062 -0.898438 L 0.664062 -3.378906 C 0.664062 -3.601562 0.628906 -3.746094 0.558594 -3.8125 C 0.488281 -3.878906 0.332031 -3.917969 0.0820312 -3.929688 L 0.0820312 -4.042969 L 1.292969 -4.042969 L 2.707031 -0.960938 L 4.058594 -4.042969 L 5.273438 -4.042969 L 5.273438 -3.929688 C 5.046875 -3.914062 4.902344 -3.871094 4.835938 -3.804688 C 4.769531 -3.738281 4.738281 -3.597656 4.738281 -3.378906 L 4.738281 -0.664062 C 4.738281 -0.441406 4.769531 -0.296875 4.835938 -0.234375 C 4.902344 -0.171875 5.046875 -0.128906 5.273438 -0.109375 L 5.273438 0 L 3.5625 0 L 3.5625 -0.109375 C 3.808594 -0.128906 3.960938 -0.175781 4.023438 -0.242188 C 4.085938 -0.3125 4.113281 -0.476562 4.113281 -0.734375 L 4.113281 -3.480469 L 2.550781 0 L 2.46875 0 L 0.929688 -3.335938 L 0.929688 -0.898438 C 0.929688 -0.5625 0.980469 -0.347656 1.078125 -0.246094 C 1.140625 -0.179688 1.28125 -0.132812 1.503906 -0.109375 L 1.503906 0 L 0.0703125 0 Z "/>
</g>
<g id="glyph-0-4">
<rect x="0" y="0" width="0" height="0" mask="url(#mask-0)"/>
</g>
<g id="glyph-0-5">
<path d="M 1.371094 -4.128906 L 1.667969 -4.128906 L 0.316406 0.101562 L 0.0117188 0.101562 Z "/>
</g>
<g id="glyph-0-6">
<path d="M 2.261719 -4.113281 C 2.5 -4.113281 2.730469 -4.082031 2.960938 -4.015625 C 3.1875 -3.949219 3.320312 -3.917969 3.355469 -3.917969 C 3.441406 -3.917969 3.503906 -3.933594 3.539062 -3.96875 C 3.578125 -4.003906 3.609375 -4.050781 3.632812 -4.113281 L 3.769531 -4.113281 L 3.816406 -2.828125 L 3.675781 -2.828125 C 3.550781 -3.125 3.421875 -3.34375 3.289062 -3.492188 C 3.046875 -3.746094 2.734375 -3.871094 2.347656 -3.871094 C 1.957031 -3.871094 1.613281 -3.722656 1.3125 -3.425781 C 1.015625 -3.128906 0.867188 -2.640625 0.867188 -1.957031 C 0.867188 -1.394531 1.015625 -0.953125 1.3125 -0.636719 C 1.609375 -0.320312 1.976562 -0.164062 2.410156 -0.164062 C 2.484375 -0.164062 2.570312 -0.171875 2.671875 -0.183594 C 2.769531 -0.199219 2.863281 -0.222656 2.953125 -0.25 C 3.097656 -0.296875 3.1875 -0.339844 3.226562 -0.375 C 3.261719 -0.410156 3.277344 -0.460938 3.277344 -0.527344 L 3.277344 -1.503906 C 3.277344 -1.738281 3.246094 -1.882812 3.179688 -1.941406 C 3.113281 -2 2.964844 -2.035156 2.742188 -2.050781 L 2.742188 -2.164062 L 4.300781 -2.164062 L 4.300781 -2.050781 C 4.148438 -2.039062 4.046875 -2.015625 3.996094 -1.976562 C 3.914062 -1.910156 3.871094 -1.78125 3.871094 -1.582031 L 3.871094 -0.378906 C 3.871094 -0.308594 3.695312 -0.210938 3.347656 -0.09375 C 2.996094 0.0273438 2.65625 0.0859375 2.332031 0.0859375 C 1.734375 0.0859375 1.234375 -0.0859375 0.824219 -0.4375 C 0.371094 -0.820312 0.144531 -1.335938 0.144531 -1.980469 C 0.144531 -2.550781 0.328125 -3.039062 0.6875 -3.441406 C 1.082031 -3.890625 1.605469 -4.113281 2.261719 -4.113281 Z "/>
</g>
<g id="glyph-0-7">
<path d="M 1.214844 -2.089844 C 1.652344 -2.105469 1.96875 -2.152344 2.15625 -2.230469 C 2.480469 -2.363281 2.644531 -2.613281 2.644531 -2.980469 C 2.644531 -3.335938 2.5 -3.578125 2.207031 -3.707031 C 2.050781 -3.777344 1.847656 -3.808594 1.589844 -3.808594 C 1.417969 -3.808594 1.3125 -3.796875 1.273438 -3.773438 C 1.234375 -3.75 1.214844 -3.691406 1.214844 -3.597656 Z M 0.0703125 -0.109375 C 0.304688 -0.132812 0.449219 -0.179688 0.507812 -0.246094 C 0.566406 -0.316406 0.59375 -0.480469 0.59375 -0.734375 L 0.59375 -3.378906 C 0.59375 -3.59375 0.5625 -3.734375 0.496094 -3.800781 C 0.433594 -3.867188 0.289062 -3.910156 0.0703125 -3.929688 L 0.0703125 -4.042969 L 1.761719 -4.042969 C 2.113281 -4.042969 2.40625 -3.996094 2.640625 -3.910156 C 3.085938 -3.738281 3.308594 -3.429688 3.308594 -2.976562 C 3.308594 -2.671875 3.210938 -2.4375 3.011719 -2.273438 C 2.8125 -2.109375 2.546875 -2.003906 2.203125 -1.953125 L 3.464844 -0.402344 C 3.542969 -0.308594 3.617188 -0.238281 3.695312 -0.195312 C 3.773438 -0.152344 3.875 -0.121094 3.996094 -0.109375 L 3.996094 0 L 3.011719 0 L 1.554688 -1.878906 L 1.214844 -1.863281 L 1.214844 -0.664062 C 1.214844 -0.4375 1.25 -0.292969 1.316406 -0.230469 C 1.386719 -0.171875 1.535156 -0.128906 1.765625 -0.109375 L 1.765625 0 L 0.0703125 0 Z "/>
</g>
<g id="glyph-0-8">
<path d="M 1.816406 -4.042969 L 1.816406 -3.929688 C 1.582031 -3.914062 1.429688 -3.875 1.359375 -3.8125 C 1.289062 -3.75 1.257812 -3.605469 1.257812 -3.378906 L 1.257812 -1.425781 C 1.257812 -1.105469 1.300781 -0.855469 1.386719 -0.675781 C 1.550781 -0.351562 1.859375 -0.1875 2.316406 -0.1875 C 2.816406 -0.1875 3.148438 -0.355469 3.320312 -0.6875 C 3.417969 -0.875 3.464844 -1.164062 3.464844 -1.554688 L 3.464844 -3.144531 C 3.464844 -3.476562 3.425781 -3.683594 3.34375 -3.769531 C 3.265625 -3.855469 3.113281 -3.90625 2.890625 -3.929688 L 2.890625 -4.042969 L 4.304688 -4.042969 L 4.304688 -3.929688 C 4.070312 -3.902344 3.914062 -3.847656 3.839844 -3.757812 C 3.769531 -3.667969 3.734375 -3.464844 3.734375 -3.144531 L 3.734375 -1.554688 C 3.734375 -1.132812 3.667969 -0.804688 3.539062 -0.566406 C 3.300781 -0.132812 2.847656 0.0859375 2.179688 0.0859375 C 1.519531 0.0859375 1.066406 -0.128906 0.828125 -0.558594 C 0.699219 -0.789062 0.636719 -1.09375 0.636719 -1.472656 L 0.636719 -3.378906 C 0.636719 -3.601562 0.601562 -3.746094 0.53125 -3.808594 C 0.464844 -3.871094 0.3125 -3.910156 0.0820312 -3.929688 L 0.0820312 -4.042969 Z "/>
</g>
</g>
<image id="source-55" x="0" y="0" width="0" height="0"/>
<mask id="mask-0">
<use xlink:href="#source-55"/>
</mask>
</defs>
<g fill="rgb(100%, 92.156863%, 23.137255%)" fill-opacity="1">
<use xlink:href="#glyph-0-0" x="30" y="24.583008"/>
<use xlink:href="#glyph-0-1" x="34" y="24.583008"/>
<use xlink:href="#glyph-0-2" x="37" y="24.583008"/>
<use xlink:href="#glyph-0-3" x="41" y="24.583008"/>
<use xlink:href="#glyph-0-4" x="46" y="24.583008"/>
<use xlink:href="#glyph-0-5" x="48" y="24.583008"/>
<use xlink:href="#glyph-0-4" x="50" y="24.583008"/>
<use xlink:href="#glyph-0-6" x="52" y="24.583008"/>
<use xlink:href="#glyph-0-7" x="56" y="24.583008"/>
<use xlink:href="#glyph-0-8" x="60" y="24.583008"/>
</g>
</svg>
