<?xml version="1.0" encoding="UTF-8"?>
<svg xmlns="http://www.w3.org/2000/svg" xmlns:xlink="http://www.w3.org/1999/xlink" width="854" height="480" viewBox="0 0 854 480">
<defs>
<g>
<g id="glyph-0-0">
<path d="M 1.480469 -3.355469 C 1.484375 -3.347656 1.488281 -3.339844 1.492188 -3.335938 C 1.492188 -3.332031 1.492188 -3.324219 1.492188 -3.308594 L 1.492188 -0.367188 C 1.492188 -0.242188 1.523438 -0.164062 1.59375 -0.128906 C 1.660156 -0.09375 1.78125 -0.0742188 1.964844 -0.0703125 L 1.964844 0 L 0.589844 0 L 0.589844 -0.0742188 C 0.785156 -0.0820312 0.914062 -0.109375 0.972656 -0.152344 C 1.035156 -0.195312 1.0625 -0.292969 1.0625 -0.4375 L 1.0625 -2.699219 C 1.0625 -2.777344 1.054688 -2.835938 1.035156 -2.878906 C 1.015625 -2.917969 0.972656 -2.9375 0.90625 -2.9375 C 0.867188 -2.9375 0.8125 -2.925781 0.742188 -2.902344 C 0.675781 -2.878906 0.613281 -2.855469 0.554688 -2.828125 L 0.554688 -2.898438 L 1.449219 -3.355469 Z "/>
</g>
<g id="glyph-0-1">
<path d="M 0.816406 0.0585938 C 0.738281 0.0585938 0.671875 0.03125 0.617188 -0.0234375 C 0.5625 -0.078125 0.539062 -0.144531 0.539062 -0.21875 C 0.539062 -0.296875 0.5625 -0.359375 0.617188 -0.414062 C 0.671875 -0.46875 0.738281 -0.496094 0.816406 -0.496094 C 0.890625 -0.496094 0.957031 -0.46875 1.011719 -0.414062 C 1.066406 -0.359375 1.089844 -0.296875 1.089844 -0.21875 C 1.089844 -0.144531 1.066406 -0.078125 1.011719 -0.0234375 C 0.960938 0.03125 0.894531 0.0585938 0.816406 0.0585938 Z "/>
</g>
<g id="glyph-0-2">
<path d="M 0.148438 -0.0546875 C 0.746094 -0.675781 1.148438 -1.128906 1.363281 -1.417969 C 1.574219 -1.707031 1.683594 -1.992188 1.683594 -2.265625 C 1.683594 -2.507812 1.617188 -2.691406 1.488281 -2.816406 C 1.355469 -2.941406 1.203125 -3.003906 1.019531 -3.003906 C 0.796875 -3.003906 0.617188 -2.925781 0.476562 -2.761719 C 0.402344 -2.671875 0.328125 -2.535156 0.257812 -2.347656 L 0.152344 -2.371094 C 0.234375 -2.746094 0.375 -3.003906 0.566406 -3.152344 C 0.761719 -3.296875 0.972656 -3.367188 1.195312 -3.367188 C 1.46875 -3.367188 1.691406 -3.28125 1.863281 -3.109375 C 2.03125 -2.9375 2.117188 -2.722656 2.117188 -2.472656 C 2.117188 -2.207031 2.023438 -1.949219 1.839844 -1.703125 C 1.65625 -1.453125 1.257812 -1.015625 0.640625 -0.382812 L 1.761719 -0.382812 C 1.917969 -0.382812 2.027344 -0.398438 2.09375 -0.4375 C 2.15625 -0.476562 2.226562 -0.566406 2.308594 -0.710938 L 2.371094 -0.679688 L 2.101562 0 L 0.148438 0 Z "/>
</g>
<g id="glyph-0-3">
<rect x="0" y="0" width="0" height="0" mask="url(#mask-0)"/>
</g>
<g id="glyph-0-4">
<path d="M 0.230469 -1.253906 C 0.230469 -1.820312 0.398438 -2.320312 0.738281 -2.746094 C 0.945312 -3.007812 1.191406 -3.21875 1.476562 -3.378906 L 1.519531 -3.296875 C 1.257812 -3.089844 1.070312 -2.886719 0.960938 -2.691406 C 0.761719 -2.347656 0.664062 -1.890625 0.664062 -1.320312 C 0.664062 -0.894531 0.703125 -0.546875 0.777344 -0.269531 C 0.910156 0.210938 1.15625 0.570312 1.519531 0.8125 L 1.457031 0.890625 C 1.257812 0.796875 1.039062 0.605469 0.808594 0.328125 C 0.421875 -0.136719 0.230469 -0.664062 0.230469 -1.253906 Z "/>
</g>
<g id="glyph-0-5">
<path d="M 1.242188 -2.527344 L 1.585938 -2.527344 L 1.585938 -1.433594 L 2.671875 -1.433594 L 2.671875 -1.089844 L 1.585938 -1.089844 L 1.585938 0 L 1.242188 0 L 1.242188 -1.089844 L 0.148438 -1.089844 L 0.148438 -1.433594 L 1.242188 -1.433594 Z "/>
</g>
<g id="glyph-0-6">
<path d="M 1.195312 -0.0898438 C 1.433594 -0.0898438 1.601562 -0.222656 1.6875 -0.484375 C 1.777344 -0.746094 1.824219 -1.125 1.824219 -1.621094 C 1.824219 -2.015625 1.796875 -2.332031 1.742188 -2.570312 C 1.640625 -3.007812 1.453125 -3.226562 1.175781 -3.226562 C 0.898438 -3.226562 0.710938 -3 0.609375 -2.546875 C 0.554688 -2.308594 0.527344 -1.992188 0.527344 -1.597656 C 0.527344 -1.226562 0.554688 -0.933594 0.609375 -0.710938 C 0.714844 -0.296875 0.910156 -0.0898438 1.195312 -0.0898438 Z M 1.1875 -3.359375 C 1.5625 -3.359375 1.855469 -3.164062 2.0625 -2.769531 C 2.226562 -2.453125 2.308594 -2.089844 2.308594 -1.675781 C 2.308594 -1.351562 2.257812 -1.046875 2.15625 -0.761719 C 1.964844 -0.222656 1.636719 0.046875 1.167969 0.046875 C 0.847656 0.046875 0.582031 -0.0976562 0.375 -0.390625 C 0.15625 -0.703125 0.0429688 -1.125 0.0429688 -1.65625 C 0.0429688 -2.078125 0.117188 -2.4375 0.265625 -2.742188 C 0.464844 -3.152344 0.773438 -3.359375 1.1875 -3.359375 Z "/>
</g>
<g id="glyph-0-7">
<path d="M 1.421875 -1.230469 C 1.421875 -0.988281 1.390625 -0.757812 1.328125 -0.542969 C 1.265625 -0.324219 1.171875 -0.121094 1.050781 0.0703125 C 0.921875 0.277344 0.75 0.46875 0.535156 0.644531 C 0.394531 0.761719 0.273438 0.84375 0.179688 0.890625 L 0.132812 0.8125 C 0.382812 0.621094 0.566406 0.425781 0.679688 0.226562 C 0.886719 -0.125 0.988281 -0.589844 0.988281 -1.167969 C 0.988281 -1.632812 0.941406 -2.015625 0.847656 -2.3125 C 0.714844 -2.730469 0.476562 -3.058594 0.132812 -3.296875 L 0.195312 -3.378906 C 0.453125 -3.234375 0.691406 -3.019531 0.914062 -2.730469 C 1.253906 -2.285156 1.421875 -1.785156 1.421875 -1.230469 Z "/>
</g>
</g>
<image id="source-84" x="0" y="0" width="0" height="0"/>
<mask id="mask-0">
<use xlink:href="#source-84"/>
</mask>
</defs>
<g fill="rgb(95.686275%, 26.27451%, 21.176471%)" fill-opacity="1">
<use xlink:href="#glyph-0-0" x="30" y="23.75"/>
<use xlink:href="#glyph-0-1" x="33" y="23.75"/>
<use xlink:href="#glyph-0-2" x="34" y="23.75"/>
<use xlink:href="#glyph-0-3" x="37" y="23.75"/>
</g>
<g fill="rgb(95.686275%, 26.27451%, 21.176471%)" fill-opacity="1">
<use xlink:href="#glyph-0-4" x="30" y="28.625"/>
<use xlink:href="#glyph-0-5" x="32" y="28.625"/>
<use xlink:href="#glyph-0-6" x="35" y="28.625"/>
<use xlink:href="#glyph-0-1" x="38" y="28.625"/>
<use xlink:href="#glyph-0-2" x="39" y="28.625"/>
<use xlink:href="#glyph-0-7" x="42" y="28.625"/>
</g>
</svg>
