<?xml version="1.0" encoding="UTF-8"?>
<svg xmlns="http://www.w3.org/2000/svg" xmlns:xlink="http://www.w3.org/1999/xlink" width="854" height="480" viewBox="0 0 854 480">
<defs>
<g>
<g id="glyph-0-0">
<path d="M 0.0976562 -3.308594 L 2.921875 -3.308594 L 2.949219 -2.457031 L 2.828125 -2.457031 C 2.769531 -2.726562 2.695312 -2.898438 2.605469 -2.980469 C 2.515625 -3.0625 2.324219 -3.101562 2.035156 -3.101562 L 1.757812 -3.101562 L 1.757812 -0.542969 C 1.757812 -0.347656 1.789062 -0.226562 1.847656 -0.183594 C 1.90625 -0.136719 2.039062 -0.105469 2.242188 -0.0898438 L 2.242188 0 L 0.785156 0 L 0.785156 -0.0898438 C 0.996094 -0.105469 1.128906 -0.140625 1.179688 -0.195312 C 1.234375 -0.25 1.257812 -0.382812 1.257812 -0.601562 L 1.257812 -3.101562 L 0.980469 -3.101562 C 0.703125 -3.101562 0.515625 -3.0625 0.417969 -2.980469 C 0.316406 -2.902344 0.242188 -2.726562 0.191406 -2.457031 L 0.0703125 -2.457031 Z "/>
</g>
<g id="glyph-0-1">
<path d="M 2.671875 -0.929688 L 2.671875 -0.589844 L 0.148438 -0.589844 L 0.148438 -0.929688 Z M 2.671875 -1.9375 L 2.671875 -1.597656 L 0.148438 -1.597656 L 0.148438 -1.9375 Z "/>
</g>
<g id="glyph-0-2">
<path d="M 1.195312 -0.0898438 C 1.433594 -0.0898438 1.601562 -0.222656 1.6875 -0.484375 C 1.777344 -0.746094 1.824219 -1.125 1.824219 -1.621094 C 1.824219 -2.015625 1.796875 -2.332031 1.742188 -2.570312 C 1.640625 -3.007812 1.453125 -3.226562 1.175781 -3.226562 C 0.898438 -3.226562 0.710938 -3 0.609375 -2.546875 C 0.554688 -2.308594 0.527344 -1.992188 0.527344 -1.597656 C 0.527344 -1.226562 0.554688 -0.933594 0.609375 -0.710938 C 0.714844 -0.296875 0.910156 -0.0898438 1.195312 -0.0898438 Z M 1.1875 -3.359375 C 1.5625 -3.359375 1.855469 -3.164062 2.0625 -2.769531 C 2.226562 -2.453125 2.308594 -2.089844 2.308594 -1.675781 C 2.308594 -1.351562 2.257812 -1.046875 2.15625 -0.761719 C 1.964844 -0.222656 1.636719 0.046875 1.167969 0.046875 C 0.847656 0.046875 0.582031 -0.0976562 0.375 -0.390625 C 0.15625 -0.703125 0.0429688 -1.125 0.0429688 -1.65625 C 0.0429688 -2.078125 0.117188 -2.4375 0.265625 -2.742188 C 0.464844 -3.152344 0.773438 -3.359375 1.1875 -3.359375 Z "/>
</g>
<g id="glyph-0-3">
<path d="M 0.816406 0.0585938 C 0.738281 0.0585938 0.671875 0.03125 0.617188 -0.0234375 C 0.5625 -0.078125 0.539062 -0.144531 0.539062 -0.21875 C 0.539062 -0.296875 0.5625 -0.359375 0.617188 -0.414062 C 0.671875 -0.46875 0.738281 -0.496094 0.816406 -0.496094 C 0.890625 -0.496094 0.957031 -0.46875 1.011719 -0.414062 C 1.066406 -0.359375 1.089844 -0.296875 1.089844 -0.21875 C 1.089844 -0.144531 1.066406 -0.078125 1.011719 -0.0234375 C 0.960938 0.03125 0.894531 0.0585938 0.816406 0.0585938 Z "/>
</g>
<g id="glyph-0-4">
<path d="M 0.148438 -0.0546875 C 0.746094 -0.675781 1.148438 -1.128906 1.363281 -1.417969 C 1.574219 -1.707031 1.683594 -1.992188 1.683594 -2.265625 C 1.683594 -2.507812 1.617188 -2.691406 1.488281 -2.816406 C 1.355469 -2.941406 1.203125 -3.003906 1.019531 -3.003906 C 0.796875 -3.003906 0.617188 -2.925781 0.476562 -2.761719 C 0.402344 -2.671875 0.328125 -2.535156 0.257812 -2.347656 L 0.152344 -2.371094 C 0.234375 -2.746094 0.375 -3.003906 0.566406 -3.152344 C 0.761719 -3.296875 0.972656 -3.367188 1.195312 -3.367188 C 1.46875 -3.367188 1.691406 -3.28125 1.863281 -3.109375 C 2.03125 -2.9375 2.117188 -2.722656 2.117188 -2.472656 C 2.117188 -2.207031 2.023438 -1.949219 1.839844 -1.703125 C 1.65625 -1.453125 1.257812 -1.015625 0.640625 -0.382812 L 1.761719 -0.382812 C 1.917969 -0.382812 2.027344 -0.398438 2.09375 -0.4375 C 2.15625 -0.476562 2.226562 -0.566406 2.308594 -0.710938 L 2.371094 -0.679688 L 2.101562 0 L 0.148438 0 Z "/>
</g>
<g id="glyph-0-5">
<path d="M 1.226562 -0.0507812 C 1.226562 0.113281 1.167969 0.265625 1.046875 0.40625 C 0.929688 0.546875 0.800781 0.652344 0.664062 0.710938 L 0.617188 0.617188 C 0.773438 0.527344 0.882812 0.433594 0.941406 0.328125 C 1 0.226562 1.03125 0.140625 1.03125 0.0742188 C 1.03125 0.0507812 1.023438 0.0351562 1.007812 0.03125 C 0.992188 0.0234375 0.976562 0.0195312 0.960938 0.0195312 L 0.796875 0.0351562 C 0.730469 0.0351562 0.667969 0.015625 0.609375 -0.03125 C 0.554688 -0.0742188 0.523438 -0.140625 0.523438 -0.226562 C 0.523438 -0.289062 0.546875 -0.351562 0.59375 -0.414062 C 0.640625 -0.476562 0.71875 -0.507812 0.828125 -0.507812 C 0.929688 -0.507812 1.023438 -0.46875 1.101562 -0.386719 C 1.183594 -0.304688 1.226562 -0.195312 1.226562 -0.0507812 Z "/>
</g>
<g id="glyph-0-6">
<rect x="0" y="0" width="0" height="0" mask="url(#mask-0)"/>
</g>
<g id="glyph-0-7">
<path d="M 1.273438 -2.25 L 1.273438 -2.074219 L 0.773438 -2.074219 L 0.769531 -0.667969 C 0.769531 -0.546875 0.78125 -0.453125 0.800781 -0.386719 C 0.839844 -0.273438 0.917969 -0.21875 1.03125 -0.21875 C 1.089844 -0.21875 1.140625 -0.234375 1.183594 -0.261719 C 1.226562 -0.289062 1.273438 -0.332031 1.332031 -0.394531 L 1.394531 -0.339844 L 1.339844 -0.265625 C 1.253906 -0.152344 1.167969 -0.0703125 1.070312 -0.0234375 C 0.976562 0.0234375 0.886719 0.046875 0.796875 0.046875 C 0.605469 0.046875 0.476562 -0.0390625 0.40625 -0.210938 C 0.371094 -0.304688 0.351562 -0.429688 0.351562 -0.59375 L 0.351562 -2.074219 L 0.0859375 -2.074219 C 0.078125 -2.078125 0.0703125 -2.085938 0.0664062 -2.089844 C 0.0625 -2.09375 0.0625 -2.101562 0.0625 -2.109375 C 0.0625 -2.125 0.0664062 -2.136719 0.0703125 -2.148438 C 0.078125 -2.15625 0.101562 -2.175781 0.140625 -2.210938 C 0.253906 -2.304688 0.335938 -2.378906 0.382812 -2.433594 C 0.433594 -2.492188 0.550781 -2.644531 0.734375 -2.894531 C 0.757812 -2.894531 0.769531 -2.890625 0.773438 -2.886719 C 0.777344 -2.882812 0.777344 -2.871094 0.777344 -2.851562 L 0.777344 -2.25 Z "/>
</g>
<g id="glyph-0-8">
<path d="M 0.125 -1.132812 C 0.125 -1.457031 0.230469 -1.730469 0.4375 -1.953125 C 0.640625 -2.179688 0.90625 -2.289062 1.230469 -2.289062 C 1.554688 -2.289062 1.820312 -2.183594 2.03125 -1.972656 C 2.242188 -1.761719 2.347656 -1.480469 2.347656 -1.128906 C 2.347656 -0.804688 2.246094 -0.523438 2.039062 -0.28125 C 1.835938 -0.0429688 1.570312 0.0742188 1.246094 0.0742188 C 0.933594 0.0742188 0.667969 -0.0390625 0.453125 -0.269531 C 0.234375 -0.5 0.125 -0.785156 0.125 -1.132812 Z M 1.164062 -2.144531 C 1.035156 -2.144531 0.921875 -2.101562 0.828125 -2.015625 C 0.664062 -1.867188 0.582031 -1.613281 0.582031 -1.25 C 0.582031 -0.960938 0.648438 -0.691406 0.78125 -0.4375 C 0.910156 -0.1875 1.09375 -0.0625 1.324219 -0.0625 C 1.507812 -0.0625 1.648438 -0.148438 1.746094 -0.316406 C 1.84375 -0.484375 1.894531 -0.703125 1.894531 -0.972656 C 1.894531 -1.253906 1.832031 -1.519531 1.707031 -1.769531 C 1.582031 -2.019531 1.398438 -2.144531 1.164062 -2.144531 Z "/>
</g>
<g id="glyph-0-9">
<path d="M 0.796875 -0.449219 C 0.839844 -0.339844 0.902344 -0.257812 0.988281 -0.203125 C 1.070312 -0.148438 1.171875 -0.121094 1.285156 -0.121094 C 1.460938 -0.121094 1.609375 -0.207031 1.734375 -0.382812 C 1.859375 -0.558594 1.921875 -0.800781 1.921875 -1.113281 C 1.921875 -1.414062 1.855469 -1.636719 1.726562 -1.785156 C 1.597656 -1.933594 1.449219 -2.007812 1.277344 -2.007812 C 1.15625 -2.007812 1.046875 -1.96875 0.945312 -1.894531 C 0.847656 -1.820312 0.796875 -1.75 0.796875 -1.675781 Z M 0.0234375 1.007812 C 0.175781 1 0.273438 0.964844 0.3125 0.910156 C 0.355469 0.855469 0.375 0.769531 0.375 0.648438 L 0.375 -1.695312 C 0.375 -1.820312 0.359375 -1.898438 0.332031 -1.933594 C 0.300781 -1.96875 0.242188 -1.984375 0.160156 -1.984375 C 0.144531 -1.984375 0.125 -1.984375 0.109375 -1.984375 C 0.09375 -1.980469 0.0742188 -1.976562 0.0429688 -1.972656 L 0.0429688 -2.054688 L 0.277344 -2.128906 C 0.285156 -2.128906 0.449219 -2.1875 0.765625 -2.296875 C 0.773438 -2.296875 0.78125 -2.292969 0.785156 -2.285156 C 0.789062 -2.277344 0.789062 -2.269531 0.789062 -2.261719 L 0.789062 -1.929688 C 0.898438 -2.039062 0.992188 -2.117188 1.074219 -2.171875 C 1.21875 -2.261719 1.371094 -2.308594 1.527344 -2.308594 C 1.75 -2.308594 1.945312 -2.210938 2.105469 -2.019531 C 2.265625 -1.828125 2.347656 -1.566406 2.347656 -1.234375 C 2.347656 -0.910156 2.25 -0.613281 2.058594 -0.347656 C 1.863281 -0.0820312 1.617188 0.046875 1.324219 0.046875 C 1.234375 0.046875 1.152344 0.0390625 1.085938 0.015625 C 0.980469 -0.0195312 0.886719 -0.0820312 0.796875 -0.171875 L 0.796875 0.625 C 0.796875 0.789062 0.824219 0.890625 0.878906 0.929688 C 0.933594 0.964844 1.050781 0.992188 1.230469 1.003906 L 1.230469 1.089844 L 0.0234375 1.089844 Z "/>
</g>
<g id="glyph-0-10">
<path d="M 0.195312 -1.285156 L 1.421875 -1.285156 L 1.421875 -0.972656 L 0.195312 -0.972656 Z "/>
</g>
<g id="glyph-0-11">
<path d="M 1.246094 -1.398438 C 1.359375 -1.398438 1.472656 -1.429688 1.589844 -1.492188 C 1.707031 -1.554688 1.777344 -1.605469 1.792969 -1.648438 C 1.796875 -1.664062 1.804688 -1.726562 1.808594 -1.828125 C 1.8125 -1.933594 1.816406 -2.019531 1.816406 -2.085938 C 1.816406 -2.421875 1.757812 -2.699219 1.644531 -2.910156 C 1.53125 -3.121094 1.363281 -3.226562 1.144531 -3.226562 C 0.984375 -3.226562 0.855469 -3.15625 0.757812 -3.011719 C 0.660156 -2.867188 0.609375 -2.648438 0.609375 -2.359375 C 0.609375 -2.121094 0.65625 -1.902344 0.75 -1.703125 C 0.839844 -1.5 1.007812 -1.398438 1.246094 -1.398438 Z M 1.179688 -3.367188 C 1.539062 -3.367188 1.8125 -3.222656 2.007812 -2.9375 C 2.203125 -2.652344 2.300781 -2.335938 2.300781 -1.984375 C 2.300781 -1.734375 2.257812 -1.484375 2.164062 -1.226562 C 2.070312 -0.972656 1.933594 -0.746094 1.757812 -0.542969 C 1.550781 -0.3125 1.289062 -0.140625 0.972656 -0.03125 C 0.792969 0.0351562 0.570312 0.0820312 0.300781 0.117188 L 0.277344 0.0195312 C 0.445312 -0.0195312 0.585938 -0.0625 0.699219 -0.105469 C 0.898438 -0.183594 1.0625 -0.28125 1.183594 -0.398438 C 1.355469 -0.5625 1.496094 -0.746094 1.597656 -0.949219 C 1.703125 -1.152344 1.765625 -1.320312 1.792969 -1.457031 L 1.707031 -1.394531 C 1.585938 -1.304688 1.445312 -1.242188 1.28125 -1.207031 C 1.195312 -1.1875 1.121094 -1.175781 1.050781 -1.175781 C 0.773438 -1.175781 0.554688 -1.273438 0.390625 -1.472656 C 0.230469 -1.667969 0.148438 -1.902344 0.148438 -2.171875 C 0.148438 -2.519531 0.246094 -2.804688 0.4375 -3.03125 C 0.632812 -3.253906 0.878906 -3.367188 1.179688 -3.367188 Z "/>
</g>
<g id="glyph-0-12">
<path d="M 0.375 -0.445312 C 0.46875 -0.445312 0.589844 -0.394531 0.738281 -0.289062 C 0.890625 -0.183594 1.003906 -0.132812 1.085938 -0.132812 C 1.273438 -0.132812 1.4375 -0.214844 1.578125 -0.378906 C 1.71875 -0.542969 1.789062 -0.746094 1.789062 -0.988281 C 1.789062 -1.410156 1.5625 -1.714844 1.113281 -1.898438 C 0.863281 -2 0.632812 -2.054688 0.417969 -2.054688 C 0.382812 -2.054688 0.359375 -2.054688 0.351562 -2.058594 C 0.34375 -2.058594 0.332031 -2.066406 0.316406 -2.082031 C 0.320312 -2.09375 0.324219 -2.105469 0.324219 -2.117188 C 0.328125 -2.125 0.332031 -2.132812 0.335938 -2.140625 L 0.867188 -3.308594 L 1.914062 -3.308594 C 1.964844 -3.308594 2.007812 -3.316406 2.035156 -3.335938 C 2.0625 -3.351562 2.101562 -3.386719 2.144531 -3.433594 L 2.183594 -3.402344 L 1.996094 -2.949219 C 1.988281 -2.933594 1.96875 -2.925781 1.941406 -2.921875 C 1.910156 -2.917969 1.878906 -2.914062 1.84375 -2.914062 L 0.902344 -2.914062 L 0.695312 -2.488281 C 0.960938 -2.441406 1.15625 -2.398438 1.28125 -2.359375 C 1.484375 -2.289062 1.652344 -2.1875 1.789062 -2.054688 C 1.90625 -1.941406 1.996094 -1.808594 2.054688 -1.667969 C 2.117188 -1.523438 2.144531 -1.371094 2.144531 -1.207031 C 2.144531 -0.847656 2.019531 -0.546875 1.761719 -0.308594 C 1.503906 -0.0664062 1.179688 0.0546875 0.789062 0.0546875 C 0.628906 0.0546875 0.5 0.0390625 0.402344 0.0078125 C 0.238281 -0.0429688 0.160156 -0.132812 0.160156 -0.265625 C 0.160156 -0.3125 0.175781 -0.355469 0.210938 -0.390625 C 0.246094 -0.429688 0.300781 -0.445312 0.375 -0.445312 Z "/>
</g>
<g id="glyph-0-13">
<path d="M 0.0078125 -0.0703125 C 0.164062 -0.0820312 0.269531 -0.105469 0.320312 -0.148438 C 0.367188 -0.1875 0.394531 -0.273438 0.394531 -0.410156 L 0.394531 -2.855469 C 0.394531 -2.972656 0.375 -3.046875 0.335938 -3.078125 C 0.296875 -3.109375 0.238281 -3.121094 0.164062 -3.121094 C 0.132812 -3.121094 0.109375 -3.121094 0.0859375 -3.121094 C 0.0625 -3.117188 0.0390625 -3.117188 0.0078125 -3.113281 L 0.0078125 -3.179688 L 0.230469 -3.238281 C 0.398438 -3.28125 0.539062 -3.324219 0.65625 -3.363281 C 0.726562 -3.386719 0.769531 -3.402344 0.78125 -3.402344 C 0.789062 -3.402344 0.796875 -3.398438 0.800781 -3.394531 C 0.800781 -3.390625 0.804688 -3.382812 0.804688 -3.367188 L 0.804688 -1.3125 L 1.480469 -1.910156 C 1.527344 -1.953125 1.5625 -1.988281 1.578125 -2.015625 C 1.59375 -2.039062 1.605469 -2.0625 1.605469 -2.082031 C 1.605469 -2.121094 1.585938 -2.144531 1.550781 -2.152344 C 1.511719 -2.164062 1.445312 -2.171875 1.351562 -2.175781 L 1.351562 -2.242188 L 2.371094 -2.242188 L 2.371094 -2.175781 C 2.1875 -2.164062 2.042969 -2.128906 1.929688 -2.066406 C 1.820312 -2.003906 1.609375 -1.832031 1.292969 -1.542969 L 1.148438 -1.410156 L 1.601562 -0.824219 C 1.832031 -0.523438 2.007812 -0.328125 2.125 -0.226562 C 2.242188 -0.128906 2.367188 -0.0742188 2.496094 -0.0625 L 2.496094 0 L 1.410156 0 L 1.410156 -0.0703125 L 1.496094 -0.0742188 C 1.523438 -0.0742188 1.550781 -0.0820312 1.570312 -0.0898438 C 1.59375 -0.101562 1.605469 -0.117188 1.605469 -0.140625 C 1.605469 -0.15625 1.601562 -0.171875 1.59375 -0.1875 C 1.585938 -0.203125 1.574219 -0.222656 1.558594 -0.242188 L 0.804688 -1.238281 L 0.804688 -0.335938 C 0.804688 -0.222656 0.84375 -0.148438 0.929688 -0.109375 C 0.976562 -0.0859375 1.058594 -0.0742188 1.179688 -0.0742188 L 1.179688 0 L 0.0078125 0 Z "/>
</g>
<g id="glyph-0-14">
<path d="M 1.457031 -2.851562 L 0.257812 -1.15625 L 1.457031 -1.15625 Z M 1.617188 -3.355469 L 1.851562 -3.355469 L 1.851562 -1.15625 L 2.359375 -1.15625 L 2.359375 -0.832031 L 1.851562 -0.832031 L 1.851562 0 L 1.460938 0 L 1.460938 -0.832031 L 0.0546875 -0.832031 L 0.0546875 -1.15625 Z "/>
</g>
</g>
<image id="source-187" x="0" y="0" width="0" height="0"/>
<mask id="mask-0">
<use xlink:href="#source-187"/>
</mask>
</defs>
<g fill="rgb(100%, 100%, 100%)" fill-opacity="1">
<use xlink:href="#glyph-0-0" x="30" y="23.75"/>
<use xlink:href="#glyph-0-1" x="33" y="23.75"/>
<use xlink:href="#glyph-0-2" x="36" y="23.75"/>
<use xlink:href="#glyph-0-3" x="39" y="23.75"/>
<use xlink:href="#glyph-0-4" x="40" y="23.75"/>
<use xlink:href="#glyph-0-5" x="43" y="23.75"/>
<use xlink:href="#glyph-0-6" x="44" y="23.75"/>
<use xlink:href="#glyph-0-6" x="45" y="23.75"/>
<use xlink:href="#glyph-0-7" x="46" y="23.75"/>
<use xlink:href="#glyph-0-8" x="47" y="23.75"/>
<use xlink:href="#glyph-0-9" x="50" y="23.75"/>
<use xlink:href="#glyph-0-10" x="53" y="23.75"/>
<use xlink:href="#glyph-0-9" x="55" y="23.75"/>
<use xlink:href="#glyph-0-1" x="58" y="23.75"/>
<use xlink:href="#glyph-0-2" x="61" y="23.75"/>
<use xlink:href="#glyph-0-3" x="64" y="23.75"/>
<use xlink:href="#glyph-0-11" x="65" y="23.75"/>
<use xlink:href="#glyph-0-12" x="68" y="23.75"/>
<use xlink:href="#glyph-0-5" x="71" y="23.75"/>
<use xlink:href="#glyph-0-6" x="72" y="23.75"/>
<use xlink:href="#glyph-0-6" x="73" y="23.75"/>
<use xlink:href="#glyph-0-7" x="74" y="23.75"/>
<use xlink:href="#glyph-0-8" x="75" y="23.75"/>
<use xlink:href="#glyph-0-9" x="78" y="23.75"/>
<use xlink:href="#glyph-0-10" x="81" y="23.75"/>
<use xlink:href="#glyph-0-13" x="83" y="23.75"/>
<use xlink:href="#glyph-0-1" x="86" y="23.75"/>
<use xlink:href="#glyph-0-14" x="89" y="23.75"/>
<use xlink:href="#glyph-0-2" x="92" y="23.75"/>
</g>
</svg>
