<?xml version="1.0" encoding="UTF-8"?>
<svg xmlns="http://www.w3.org/2000/svg" xmlns:xlink="http://www.w3.org/1999/xlink" width="854" height="480" viewBox="0 0 854 480">
<defs>
<g>
<g id="glyph-0-0">
<path d="M 0.308594 -7.882812 L 7.332031 -7.882812 L 7.34375 -5.53125 L 7.007812 -5.53125 C 6.898438 -6.371094 6.582031 -6.9375 6.0625 -7.234375 C 5.769531 -7.398438 5.332031 -7.488281 4.75 -7.503906 L 4.75 -1.363281 C 4.75 -0.933594 4.824219 -0.648438 4.976562 -0.507812 C 5.125 -0.367188 5.4375 -0.296875 5.914062 -0.296875 L 5.914062 0 L 1.753906 0 L 1.753906 -0.296875 C 2.210938 -0.296875 2.511719 -0.367188 2.664062 -0.511719 C 2.8125 -0.652344 2.886719 -0.9375 2.886719 -1.363281 L 2.886719 -7.503906 C 2.316406 -7.488281 1.882812 -7.398438 1.578125 -7.234375 C 1.019531 -6.929688 0.703125 -6.363281 0.632812 -5.53125 L 0.296875 -5.53125 Z "/>
</g>
<g id="glyph-0-1">
<path d="M 0.261719 -2.675781 C 0.261719 -3.574219 0.5 -4.269531 0.976562 -4.765625 C 1.453125 -5.261719 2.027344 -5.507812 2.699219 -5.507812 C 3.082031 -5.507812 3.445312 -5.40625 3.78125 -5.207031 C 4.121094 -5.003906 4.378906 -4.726562 4.5625 -4.371094 C 4.699219 -4.101562 4.792969 -3.75 4.847656 -3.320312 C 4.875 -3.121094 4.886719 -2.964844 4.886719 -2.859375 L 1.914062 -2.859375 C 1.941406 -2.390625 2.015625 -1.988281 2.140625 -1.644531 C 2.371094 -1.003906 2.769531 -0.683594 3.34375 -0.683594 C 3.617188 -0.683594 3.875 -0.769531 4.117188 -0.941406 C 4.265625 -1.042969 4.449219 -1.214844 4.671875 -1.457031 L 4.9375 -1.292969 C 4.578125 -0.699219 4.160156 -0.289062 3.6875 -0.0585938 C 3.378906 0.0898438 3.023438 0.164062 2.625 0.164062 C 2.050781 0.164062 1.515625 -0.0625 1.015625 -0.511719 C 0.511719 -0.964844 0.261719 -1.6875 0.261719 -2.675781 Z M 3.453125 -3.292969 C 3.445312 -3.980469 3.390625 -4.460938 3.292969 -4.734375 C 3.195312 -5.007812 2.996094 -5.144531 2.699219 -5.144531 C 2.394531 -5.144531 2.1875 -4.988281 2.078125 -4.671875 C 1.964844 -4.355469 1.902344 -3.898438 1.886719 -3.292969 Z "/>
</g>
<g id="glyph-0-2">
<path d="M 0.1875 -0.277344 C 0.402344 -0.304688 0.546875 -0.351562 0.625 -0.414062 C 0.753906 -0.519531 0.820312 -0.707031 0.820312 -0.984375 L 0.820312 -4.414062 C 0.820312 -4.65625 0.777344 -4.824219 0.6875 -4.910156 C 0.601562 -4.996094 0.433594 -5.058594 0.1875 -5.085938 L 0.1875 -5.371094 L 2.398438 -5.371094 L 2.398438 -4.535156 C 2.59375 -4.789062 2.78125 -4.988281 2.960938 -5.128906 C 3.300781 -5.382812 3.675781 -5.507812 4.089844 -5.507812 C 4.558594 -5.507812 4.921875 -5.398438 5.179688 -5.179688 C 5.324219 -5.054688 5.460938 -4.847656 5.589844 -4.5625 L 5.667969 -4.5625 C 5.886719 -4.832031 6.097656 -5.035156 6.300781 -5.171875 C 6.621094 -5.394531 6.96875 -5.507812 7.34375 -5.507812 C 7.753906 -5.507812 8.113281 -5.378906 8.429688 -5.117188 C 8.742188 -4.855469 8.898438 -4.441406 8.898438 -3.875 L 8.898438 -0.941406 C 8.898438 -0.671875 8.941406 -0.5 9.03125 -0.425781 C 9.117188 -0.351562 9.269531 -0.300781 9.492188 -0.277344 L 9.492188 0 L 6.722656 0 L 6.722656 -0.277344 C 6.933594 -0.308594 7.082031 -0.363281 7.167969 -0.4375 C 7.25 -0.511719 7.292969 -0.679688 7.292969 -0.941406 L 7.292969 -3.765625 C 7.292969 -4.070312 7.246094 -4.304688 7.15625 -4.472656 C 7.066406 -4.640625 6.898438 -4.722656 6.648438 -4.722656 C 6.445312 -4.722656 6.234375 -4.628906 6.011719 -4.445312 C 5.789062 -4.261719 5.679688 -4.132812 5.679688 -4.0625 L 5.679688 -0.941406 C 5.679688 -0.6875 5.71875 -0.523438 5.792969 -0.449219 C 5.871094 -0.378906 6.011719 -0.320312 6.222656 -0.277344 L 6.222656 0 L 3.492188 0 L 3.492188 -0.277344 C 3.695312 -0.304688 3.84375 -0.355469 3.929688 -0.429688 C 4.019531 -0.503906 4.0625 -0.675781 4.0625 -0.941406 L 4.0625 -3.765625 C 4.0625 -4.0625 4.019531 -4.296875 3.9375 -4.464844 C 3.851562 -4.636719 3.679688 -4.722656 3.417969 -4.722656 C 3.179688 -4.722656 2.957031 -4.625 2.75 -4.429688 C 2.546875 -4.234375 2.445312 -4.109375 2.445312 -4.0625 L 2.445312 -0.941406 C 2.445312 -0.6875 2.480469 -0.523438 2.550781 -0.449219 C 2.625 -0.378906 2.765625 -0.320312 2.980469 -0.277344 L 2.980469 0 L 0.1875 0 Z "/>
</g>
<g id="glyph-0-3">
<path d="M 3.414062 -0.484375 C 3.835938 -0.484375 4.117188 -0.761719 4.265625 -1.320312 C 4.347656 -1.628906 4.386719 -2.070312 4.386719 -2.648438 C 4.386719 -3.316406 4.324219 -3.851562 4.203125 -4.246094 C 4.082031 -4.644531 3.835938 -4.84375 3.464844 -4.84375 C 3.214844 -4.84375 2.988281 -4.730469 2.792969 -4.511719 C 2.59375 -4.292969 2.496094 -4.132812 2.496094 -4.035156 L 2.496094 -1.195312 C 2.496094 -1.082031 2.589844 -0.933594 2.777344 -0.753906 C 2.964844 -0.574219 3.175781 -0.484375 3.414062 -0.484375 Z M 0.210938 2.125 C 0.460938 2.097656 0.632812 2.039062 0.722656 1.949219 C 0.8125 1.859375 0.859375 1.695312 0.859375 1.445312 L 0.859375 -4.414062 C 0.859375 -4.65625 0.816406 -4.824219 0.730469 -4.90625 C 0.644531 -4.992188 0.480469 -5.054688 0.238281 -5.085938 L 0.238281 -5.371094 L 2.464844 -5.371094 L 2.464844 -4.601562 C 2.625 -4.867188 2.78125 -5.0625 2.933594 -5.191406 C 3.207031 -5.410156 3.558594 -5.519531 3.980469 -5.519531 C 4.59375 -5.519531 5.101562 -5.289062 5.507812 -4.832031 C 5.910156 -4.371094 6.113281 -3.6875 6.113281 -2.773438 C 6.113281 -1.925781 5.894531 -1.226562 5.460938 -0.667969 C 5.027344 -0.113281 4.496094 0.164062 3.875 0.164062 C 3.554688 0.164062 3.253906 0.0703125 2.96875 -0.113281 C 2.816406 -0.210938 2.660156 -0.351562 2.496094 -0.535156 L 2.496094 0.449219 C 2.5 0.972656 2.503906 1.269531 2.507812 1.332031 C 2.535156 1.640625 2.613281 1.851562 2.742188 1.964844 C 2.875 2.078125 3.09375 2.144531 3.402344 2.164062 L 3.402344 2.402344 L 0.210938 2.402344 Z "/>
</g>
<g id="glyph-0-4">
<path d="M 0.210938 -0.277344 C 0.433594 -0.304688 0.589844 -0.359375 0.679688 -0.4375 C 0.765625 -0.519531 0.8125 -0.671875 0.820312 -0.898438 L 0.832031 -1.242188 L 0.832031 -4.414062 C 0.832031 -4.65625 0.789062 -4.824219 0.707031 -4.910156 C 0.625 -4.996094 0.457031 -5.058594 0.210938 -5.085938 L 0.210938 -5.371094 L 2.425781 -5.371094 L 2.425781 -4.453125 C 2.671875 -4.777344 2.917969 -5.035156 3.160156 -5.222656 C 3.402344 -5.414062 3.6875 -5.507812 4.003906 -5.507812 C 4.242188 -5.507812 4.460938 -5.433594 4.652344 -5.277344 C 4.84375 -5.125 4.9375 -4.898438 4.9375 -4.601562 C 4.9375 -4.375 4.871094 -4.1875 4.738281 -4.039062 C 4.601562 -3.890625 4.425781 -3.816406 4.210938 -3.816406 C 3.964844 -3.816406 3.75 -3.933594 3.570312 -4.164062 C 3.390625 -4.394531 3.261719 -4.511719 3.191406 -4.511719 C 3.035156 -4.511719 2.878906 -4.414062 2.71875 -4.222656 C 2.5625 -4.03125 2.484375 -3.757812 2.484375 -3.402344 L 2.484375 -1.195312 C 2.484375 -0.808594 2.539062 -0.566406 2.652344 -0.46875 C 2.765625 -0.371094 2.988281 -0.308594 3.320312 -0.277344 L 3.320312 0 L 0.210938 0 Z "/>
</g>
<g id="glyph-0-5">
<path d="M 2.558594 -0.667969 C 2.746094 -0.667969 2.925781 -0.722656 3.085938 -0.835938 C 3.179688 -0.90625 3.285156 -1.011719 3.414062 -1.15625 L 3.414062 -2.859375 C 3.101562 -2.785156 2.828125 -2.664062 2.59375 -2.5 C 2.195312 -2.222656 1.992188 -1.871094 1.992188 -1.441406 C 1.992188 -1.1875 2.050781 -0.992188 2.167969 -0.863281 C 2.285156 -0.730469 2.414062 -0.667969 2.558594 -0.667969 Z M 0.296875 -1.089844 C 0.296875 -1.613281 0.546875 -2.027344 1.054688 -2.335938 C 1.558594 -2.644531 2.351562 -2.953125 3.429688 -3.265625 L 3.429688 -4.113281 C 3.429688 -4.457031 3.355469 -4.714844 3.210938 -4.878906 C 3.0625 -5.042969 2.804688 -5.128906 2.433594 -5.128906 C 2.222656 -5.128906 2.050781 -5.089844 1.917969 -5.011719 C 1.78125 -4.933594 1.714844 -4.835938 1.714844 -4.71875 C 1.714844 -4.671875 1.722656 -4.632812 1.738281 -4.601562 C 1.753906 -4.570312 1.777344 -4.539062 1.804688 -4.507812 L 1.875 -4.425781 C 1.925781 -4.363281 1.96875 -4.289062 2.003906 -4.210938 C 2.035156 -4.132812 2.050781 -4.050781 2.050781 -3.964844 C 2.050781 -3.746094 1.976562 -3.574219 1.832031 -3.457031 C 1.683594 -3.335938 1.515625 -3.277344 1.320312 -3.277344 C 1.097656 -3.277344 0.90625 -3.34375 0.75 -3.476562 C 0.59375 -3.609375 0.511719 -3.800781 0.511719 -4.050781 C 0.511719 -4.5 0.722656 -4.855469 1.144531 -5.117188 C 1.566406 -5.378906 2.085938 -5.507812 2.699219 -5.507812 C 3.359375 -5.507812 3.914062 -5.382812 4.359375 -5.128906 C 4.800781 -4.871094 5.019531 -4.394531 5.019531 -3.703125 L 5.019531 -0.878906 C 5.019531 -0.792969 5.039062 -0.722656 5.085938 -0.664062 C 5.128906 -0.605469 5.175781 -0.574219 5.230469 -0.574219 C 5.277344 -0.574219 5.316406 -0.582031 5.351562 -0.601562 C 5.386719 -0.617188 5.445312 -0.664062 5.519531 -0.742188 L 5.695312 -0.496094 C 5.46875 -0.230469 5.214844 -0.0429688 4.9375 0.0625 C 4.765625 0.132812 4.582031 0.164062 4.386719 0.164062 C 4.039062 0.164062 3.789062 0.0664062 3.628906 -0.136719 C 3.539062 -0.25 3.472656 -0.417969 3.429688 -0.644531 C 3.105469 -0.320312 2.742188 -0.09375 2.335938 0.0390625 C 2.089844 0.125 1.847656 0.164062 1.605469 0.164062 C 1.289062 0.164062 0.988281 0.0625 0.710938 -0.140625 C 0.433594 -0.34375 0.296875 -0.660156 0.296875 -1.089844 Z "/>
</g>
<g id="glyph-0-6">
<path d="M 0.1875 -4.859375 L 0.1875 -5.183594 C 0.289062 -5.277344 0.417969 -5.390625 0.570312 -5.519531 C 0.769531 -5.707031 0.960938 -5.898438 1.140625 -6.09375 C 1.492188 -6.480469 1.8125 -6.898438 2.101562 -7.34375 L 2.398438 -7.34375 L 2.398438 -5.371094 L 3.507812 -5.371094 L 3.507812 -4.859375 L 2.398438 -4.859375 L 2.398438 -1.351562 C 2.398438 -1.1875 2.421875 -1.050781 2.472656 -0.941406 C 2.546875 -0.769531 2.671875 -0.683594 2.847656 -0.683594 C 3 -0.683594 3.128906 -0.738281 3.230469 -0.847656 C 3.332031 -0.953125 3.433594 -1.101562 3.539062 -1.292969 L 3.816406 -1.15625 C 3.679688 -0.835938 3.515625 -0.578125 3.328125 -0.375 C 2.992188 -0.0234375 2.585938 0.152344 2.101562 0.152344 C 1.828125 0.152344 1.589844 0.101562 1.382812 0 C 0.988281 -0.199219 0.792969 -0.554688 0.792969 -1.078125 L 0.792969 -4.859375 Z "/>
</g>
<g id="glyph-0-7">
<path d="M 2.386719 -5.371094 L 2.386719 -1.414062 C 2.386719 -1.179688 2.414062 -1.003906 2.472656 -0.894531 C 2.570312 -0.699219 2.765625 -0.605469 3.058594 -0.605469 C 3.246094 -0.605469 3.425781 -0.664062 3.605469 -0.78125 C 3.707031 -0.84375 3.835938 -0.953125 3.992188 -1.105469 L 3.992188 -4.414062 C 3.992188 -4.65625 3.945312 -4.828125 3.847656 -4.925781 C 3.75 -5.023438 3.558594 -5.074219 3.265625 -5.085938 L 3.265625 -5.371094 L 5.589844 -5.371094 L 5.589844 -1.171875 C 5.589844 -0.929688 5.632812 -0.761719 5.726562 -0.667969 C 5.816406 -0.574219 5.996094 -0.519531 6.261719 -0.496094 L 6.261719 -0.226562 C 5.539062 -0.160156 5.085938 -0.109375 4.894531 -0.078125 C 4.707031 -0.046875 4.40625 0.0351562 3.992188 0.164062 L 3.992188 -0.605469 C 3.714844 -0.363281 3.488281 -0.195312 3.304688 -0.0976562 C 2.984375 0.078125 2.652344 0.164062 2.308594 0.164062 C 1.933594 0.164062 1.582031 0.046875 1.257812 -0.195312 C 0.933594 -0.433594 0.769531 -0.859375 0.769531 -1.46875 L 0.769531 -4.414062 C 0.769531 -4.660156 0.730469 -4.824219 0.648438 -4.898438 C 0.570312 -4.976562 0.414062 -5.039062 0.1875 -5.085938 L 0.1875 -5.371094 Z "/>
</g>
<g id="glyph-0-8">
<rect x="0" y="0" width="0" height="0" mask="url(#mask-0)"/>
</g>
<g id="glyph-0-9">
<path d="M 0.5625 -3.875 C 0.5625 -4.101562 0.648438 -4.304688 0.820312 -4.476562 C 0.992188 -4.652344 1.199219 -4.738281 1.441406 -4.738281 C 1.683594 -4.738281 1.890625 -4.652344 2.0625 -4.484375 C 2.234375 -4.3125 2.320312 -4.109375 2.320312 -3.875 C 2.320312 -3.625 2.234375 -3.410156 2.066406 -3.238281 C 1.898438 -3.066406 1.6875 -2.980469 1.441406 -2.980469 C 1.203125 -2.980469 0.996094 -3.0625 0.824219 -3.234375 C 0.652344 -3.402344 0.5625 -3.617188 0.5625 -3.875 Z "/>
</g>
<g id="glyph-0-10">
<path d="M 0.257812 -2.671875 C 0.257812 -3.484375 0.507812 -4.164062 1.003906 -4.707031 C 1.503906 -5.25 2.132812 -5.519531 2.886719 -5.519531 C 3.660156 -5.519531 4.289062 -5.242188 4.78125 -4.6875 C 5.273438 -4.132812 5.519531 -3.460938 5.519531 -2.671875 C 5.519531 -1.894531 5.277344 -1.222656 4.789062 -0.664062 C 4.304688 -0.105469 3.671875 0.175781 2.886719 0.175781 C 2.128906 0.175781 1.5 -0.0976562 1.003906 -0.640625 C 0.503906 -1.1875 0.257812 -1.863281 0.257812 -2.671875 Z M 1.972656 -2.671875 C 1.972656 -1.855469 2.011719 -1.285156 2.097656 -0.957031 C 2.230469 -0.453125 2.492188 -0.199219 2.886719 -0.199219 C 3.265625 -0.199219 3.511719 -0.394531 3.628906 -0.78125 C 3.746094 -1.167969 3.804688 -1.796875 3.804688 -2.671875 C 3.804688 -3.542969 3.742188 -4.171875 3.621094 -4.558594 C 3.496094 -4.949219 3.253906 -5.144531 2.894531 -5.144531 C 2.5 -5.144531 2.234375 -4.890625 2.101562 -4.386719 C 2.015625 -4.046875 1.972656 -3.476562 1.972656 -2.671875 Z "/>
</g>
<g id="glyph-0-11">
<path d="M 0.511719 -3.34375 L 3.34375 -3.34375 L 3.34375 -1.992188 L 0.511719 -1.992188 Z "/>
</g>
<g id="glyph-0-12">
<path d="M 0.1875 -0.277344 C 0.394531 -0.328125 0.539062 -0.394531 0.625 -0.476562 C 0.710938 -0.558594 0.753906 -0.726562 0.753906 -0.984375 L 0.753906 -6.925781 C 0.753906 -7.171875 0.710938 -7.335938 0.632812 -7.410156 C 0.554688 -7.488281 0.40625 -7.550781 0.1875 -7.597656 L 0.1875 -7.882812 L 2.375 -7.882812 L 2.375 -2.859375 L 3.855469 -4.347656 C 3.945312 -4.433594 4.007812 -4.515625 4.042969 -4.59375 C 4.082031 -4.671875 4.101562 -4.734375 4.101562 -4.78125 C 4.101562 -4.898438 4.050781 -4.976562 3.945312 -5.011719 C 3.839844 -5.050781 3.664062 -5.082031 3.414062 -5.105469 L 3.414062 -5.371094 L 5.914062 -5.371094 L 5.914062 -5.105469 C 5.675781 -5.074219 5.484375 -5.03125 5.34375 -4.980469 C 5.09375 -4.878906 4.851562 -4.714844 4.613281 -4.476562 L 3.707031 -3.558594 L 5.964844 -0.457031 C 6.011719 -0.390625 6.054688 -0.347656 6.09375 -0.328125 C 6.136719 -0.308594 6.191406 -0.289062 6.261719 -0.277344 L 6.261719 0 L 3.539062 0 L 3.539062 -0.277344 C 3.707031 -0.285156 3.828125 -0.308594 3.90625 -0.34375 C 3.984375 -0.375 4.023438 -0.429688 4.023438 -0.5 C 4.023438 -0.539062 4.003906 -0.589844 3.972656 -0.65625 C 3.941406 -0.722656 3.863281 -0.847656 3.738281 -1.027344 L 2.632812 -2.59375 L 2.375 -2.308594 L 2.375 -0.984375 C 2.375 -0.722656 2.40625 -0.546875 2.472656 -0.460938 C 2.535156 -0.375 2.703125 -0.3125 2.96875 -0.277344 L 2.96875 0 L 0.1875 0 Z "/>
</g>
</g>
<image id="source-13" x="0" y="0" width="0" height="0"/>
<mask id="mask-0">
<use xlink:href="#source-13"/>
</mask>
</defs>
<g fill="rgb(100%, 100%, 100%)" fill-opacity="1">
<use xlink:href="#glyph-0-0" x="30" y="28.75"/>
<use xlink:href="#glyph-0-1" x="36" y="28.75"/>
<use xlink:href="#glyph-0-2" x="42" y="28.75"/>
<use xlink:href="#glyph-0-3" x="52" y="28.75"/>
<use xlink:href="#glyph-0-1" x="58" y="28.75"/>
<use xlink:href="#glyph-0-4" x="63" y="28.75"/>
<use xlink:href="#glyph-0-5" x="68" y="28.75"/>
<use xlink:href="#glyph-0-6" x="74" y="28.75"/>
<use xlink:href="#glyph-0-7" x="78" y="28.75"/>
<use xlink:href="#glyph-0-4" x="84" y="28.75"/>
<use xlink:href="#glyph-0-1" x="89" y="28.75"/>
<use xlink:href="#glyph-0-8" x="94" y="28.75"/>
<use xlink:href="#glyph-0-9" x="97" y="28.75"/>
<use xlink:href="#glyph-0-8" x="100" y="28.75"/>
<use xlink:href="#glyph-0-0" x="103" y="28.75"/>
<use xlink:href="#glyph-0-10" x="109" y="28.75"/>
<use xlink:href="#glyph-0-3" x="115" y="28.75"/>
<use xlink:href="#glyph-0-11" x="121" y="28.75"/>
<use xlink:href="#glyph-0-12" x="125" y="28.75"/>
<use xlink:href="#glyph-0-8" x="131" y="28.75"/>
<use xlink:href="#glyph-0-9" x="134" y="28.75"/>
<use xlink:href="#glyph-0-8" x="137" y="28.75"/>
<use xlink:href="#glyph-0-0" x="140" y="28.75"/>
<use xlink:href="#glyph-0-10" x="146" y="28.75"/>
<use xlink:href="#glyph-0-3" x="152" y="28.75"/>
<use xlink:href="#glyph-0-11" x="158" y="28.75"/>
<use xlink:href="#glyph-0-3" x="162" y="28.75"/>
</g>
</svg>
