<?xml version="1.0" encoding="UTF-8"?>
<svg xmlns="http://www.w3.org/2000/svg" xmlns:xlink="http://www.w3.org/1999/xlink" width="854" height="480" viewBox="0 0 854 480">
<defs>
<g>
<g id="glyph-0-0">
<path d="M 1.257812 -0.472656 C 1.257812 -0.371094 1.28125 -0.304688 1.328125 -0.273438 C 1.378906 -0.242188 1.480469 -0.226562 1.632812 -0.226562 C 2.109375 -0.226562 2.503906 -0.320312 2.808594 -0.511719 C 3.285156 -0.800781 3.519531 -1.296875 3.519531 -2 C 3.519531 -2.625 3.324219 -3.097656 2.9375 -3.414062 C 2.601562 -3.683594 2.160156 -3.820312 1.609375 -3.820312 C 1.472656 -3.820312 1.378906 -3.804688 1.328125 -3.773438 C 1.28125 -3.742188 1.257812 -3.679688 1.257812 -3.578125 Z M 0.0976562 -0.109375 C 0.320312 -0.132812 0.464844 -0.175781 0.535156 -0.230469 C 0.601562 -0.289062 0.636719 -0.429688 0.636719 -0.664062 L 0.636719 -3.378906 C 0.636719 -3.601562 0.601562 -3.746094 0.535156 -3.808594 C 0.472656 -3.875 0.324219 -3.914062 0.0976562 -3.929688 L 0.0976562 -4.042969 L 1.746094 -4.042969 C 2.300781 -4.042969 2.769531 -3.953125 3.152344 -3.769531 C 3.84375 -3.441406 4.191406 -2.851562 4.191406 -2.007812 C 4.191406 -1.703125 4.128906 -1.414062 4.003906 -1.140625 C 3.878906 -0.867188 3.695312 -0.632812 3.441406 -0.445312 C 3.285156 -0.324219 3.117188 -0.234375 2.949219 -0.171875 C 2.636719 -0.0585938 2.25 0 1.796875 0 L 0.0976562 0 Z "/>
</g>
<g id="glyph-0-1">
<path d="M 1.398438 -2.796875 C 1.679688 -2.796875 1.925781 -2.703125 2.136719 -2.507812 C 2.347656 -2.3125 2.453125 -2.039062 2.453125 -1.683594 L 0.558594 -1.683594 C 0.578125 -1.222656 0.683594 -0.886719 0.871094 -0.675781 C 1.058594 -0.464844 1.285156 -0.359375 1.542969 -0.359375 C 1.75 -0.359375 1.925781 -0.414062 2.070312 -0.523438 C 2.214844 -0.632812 2.347656 -0.785156 2.46875 -0.988281 L 2.570312 -0.953125 C 2.488281 -0.699219 2.335938 -0.464844 2.113281 -0.25 C 1.890625 -0.0351562 1.617188 0.0703125 1.292969 0.0703125 C 0.917969 0.0703125 0.628906 -0.0703125 0.425781 -0.351562 C 0.222656 -0.632812 0.121094 -0.960938 0.121094 -1.328125 C 0.121094 -1.726562 0.238281 -2.074219 0.472656 -2.363281 C 0.710938 -2.652344 1.019531 -2.796875 1.398438 -2.796875 Z M 1.226562 -2.582031 C 1 -2.582031 0.828125 -2.480469 0.707031 -2.28125 C 0.644531 -2.171875 0.597656 -2.035156 0.570312 -1.875 L 1.828125 -1.875 C 1.808594 -2.074219 1.769531 -2.222656 1.714844 -2.316406 C 1.617188 -2.492188 1.453125 -2.582031 1.226562 -2.582031 Z "/>
</g>
<g id="glyph-0-2">
<path d="M 0.976562 -0.550781 C 1.027344 -0.414062 1.105469 -0.3125 1.207031 -0.246094 C 1.308594 -0.179688 1.429688 -0.144531 1.570312 -0.144531 C 1.785156 -0.144531 1.96875 -0.253906 2.121094 -0.46875 C 2.273438 -0.679688 2.347656 -0.980469 2.347656 -1.359375 C 2.347656 -1.726562 2.269531 -2 2.109375 -2.179688 C 1.953125 -2.363281 1.769531 -2.453125 1.558594 -2.453125 C 1.414062 -2.453125 1.277344 -2.40625 1.15625 -2.316406 C 1.035156 -2.226562 0.976562 -2.136719 0.976562 -2.050781 Z M 0.0273438 1.230469 C 0.214844 1.21875 0.332031 1.179688 0.382812 1.113281 C 0.433594 1.046875 0.460938 0.9375 0.460938 0.792969 L 0.460938 -2.070312 C 0.460938 -2.222656 0.441406 -2.320312 0.402344 -2.363281 C 0.367188 -2.40625 0.296875 -2.425781 0.195312 -2.425781 C 0.175781 -2.425781 0.15625 -2.425781 0.136719 -2.421875 C 0.117188 -2.421875 0.0898438 -2.417969 0.0546875 -2.410156 L 0.0546875 -2.507812 L 0.335938 -2.601562 C 0.347656 -2.605469 0.546875 -2.671875 0.9375 -2.808594 C 0.945312 -2.808594 0.953125 -2.804688 0.960938 -2.792969 C 0.964844 -2.785156 0.964844 -2.773438 0.964844 -2.761719 L 0.964844 -2.359375 C 1.097656 -2.492188 1.214844 -2.589844 1.3125 -2.652344 C 1.492188 -2.765625 1.675781 -2.820312 1.863281 -2.820312 C 2.140625 -2.820312 2.375 -2.703125 2.574219 -2.46875 C 2.773438 -2.234375 2.871094 -1.914062 2.871094 -1.507812 C 2.871094 -1.109375 2.75 -0.75 2.511719 -0.425781 C 2.273438 -0.101562 1.976562 0.0585938 1.617188 0.0585938 C 1.503906 0.0585938 1.410156 0.046875 1.328125 0.0195312 C 1.199219 -0.0234375 1.082031 -0.101562 0.976562 -0.210938 L 0.976562 0.765625 C 0.976562 0.964844 1.007812 1.089844 1.074219 1.132812 C 1.140625 1.179688 1.28125 1.210938 1.503906 1.226562 L 1.503906 1.332031 L 0.0273438 1.332031 Z "/>
</g>
<g id="glyph-0-3">
<path d="M 0.394531 -1.230469 C 0.496094 -0.957031 0.617188 -0.734375 0.757812 -0.574219 C 1 -0.289062 1.300781 -0.144531 1.660156 -0.144531 C 1.855469 -0.144531 2.023438 -0.207031 2.167969 -0.332031 C 2.308594 -0.453125 2.382812 -0.625 2.382812 -0.847656 C 2.382812 -1.046875 2.308594 -1.21875 2.167969 -1.367188 C 2.074219 -1.460938 1.875 -1.601562 1.574219 -1.789062 L 1.054688 -2.113281 C 0.898438 -2.210938 0.769531 -2.3125 0.675781 -2.414062 C 0.503906 -2.605469 0.417969 -2.820312 0.417969 -3.050781 C 0.417969 -3.359375 0.519531 -3.617188 0.726562 -3.820312 C 0.929688 -4.027344 1.203125 -4.128906 1.539062 -4.128906 C 1.679688 -4.128906 1.847656 -4.09375 2.042969 -4.027344 C 2.238281 -3.957031 2.351562 -3.921875 2.378906 -3.921875 C 2.453125 -3.921875 2.503906 -3.941406 2.535156 -3.976562 C 2.5625 -4.011719 2.585938 -4.0625 2.601562 -4.128906 L 2.726562 -4.128906 L 2.859375 -2.828125 L 2.714844 -2.828125 C 2.617188 -3.21875 2.457031 -3.492188 2.234375 -3.648438 C 2.015625 -3.804688 1.800781 -3.882812 1.585938 -3.882812 C 1.417969 -3.882812 1.273438 -3.832031 1.148438 -3.734375 C 1.023438 -3.636719 0.960938 -3.5 0.960938 -3.324219 C 0.960938 -3.167969 1.007812 -3.03125 1.105469 -2.921875 C 1.199219 -2.808594 1.347656 -2.6875 1.546875 -2.566406 L 2.085938 -2.234375 C 2.421875 -2.027344 2.660156 -1.835938 2.796875 -1.664062 C 2.929688 -1.488281 3 -1.28125 3 -1.042969 C 3 -0.722656 2.878906 -0.457031 2.636719 -0.242188 C 2.394531 -0.0273438 2.085938 0.0820312 1.710938 0.0820312 C 1.519531 0.0820312 1.324219 0.0429688 1.117188 -0.0273438 C 0.910156 -0.0976562 0.792969 -0.132812 0.765625 -0.132812 C 0.691406 -0.132812 0.644531 -0.113281 0.617188 -0.0703125 C 0.59375 -0.0273438 0.578125 0.0234375 0.570312 0.0703125 L 0.4375 0.0703125 L 0.253906 -1.230469 Z "/>
</g>
<g id="glyph-0-4">
<path d="M 0.0117188 -0.0820312 C 0.203125 -0.0976562 0.328125 -0.128906 0.390625 -0.179688 C 0.449219 -0.230469 0.480469 -0.335938 0.480469 -0.5 L 0.480469 -3.492188 C 0.480469 -3.632812 0.457031 -3.722656 0.410156 -3.757812 C 0.363281 -3.796875 0.292969 -3.816406 0.203125 -3.816406 C 0.164062 -3.816406 0.132812 -3.816406 0.105469 -3.8125 C 0.078125 -3.8125 0.046875 -3.808594 0.0117188 -3.804688 L 0.0117188 -3.886719 L 0.28125 -3.960938 C 0.484375 -4.011719 0.660156 -4.0625 0.800781 -4.113281 C 0.890625 -4.140625 0.941406 -4.15625 0.953125 -4.15625 C 0.964844 -4.15625 0.972656 -4.152344 0.976562 -4.148438 C 0.980469 -4.144531 0.980469 -4.132812 0.980469 -4.113281 L 0.980469 -1.605469 L 1.808594 -2.332031 C 1.867188 -2.386719 1.90625 -2.429688 1.929688 -2.460938 C 1.949219 -2.492188 1.960938 -2.519531 1.960938 -2.546875 C 1.960938 -2.589844 1.9375 -2.621094 1.894531 -2.632812 C 1.847656 -2.644531 1.769531 -2.652344 1.652344 -2.660156 L 1.652344 -2.742188 L 2.898438 -2.742188 L 2.898438 -2.660156 C 2.675781 -2.644531 2.496094 -2.601562 2.359375 -2.527344 C 2.222656 -2.453125 1.964844 -2.238281 1.582031 -1.886719 L 1.40625 -1.722656 L 1.957031 -1.007812 C 2.238281 -0.640625 2.453125 -0.398438 2.597656 -0.277344 C 2.738281 -0.15625 2.890625 -0.0898438 3.050781 -0.078125 L 3.050781 0 L 1.722656 0 L 1.722656 -0.0820312 L 1.828125 -0.0898438 C 1.863281 -0.0898438 1.894531 -0.0976562 1.921875 -0.109375 C 1.949219 -0.121094 1.964844 -0.140625 1.964844 -0.171875 C 1.964844 -0.191406 1.957031 -0.210938 1.949219 -0.230469 C 1.9375 -0.25 1.925781 -0.273438 1.90625 -0.296875 L 0.980469 -1.511719 L 0.980469 -0.410156 C 0.980469 -0.273438 1.03125 -0.179688 1.132812 -0.132812 C 1.191406 -0.105469 1.296875 -0.0898438 1.441406 -0.0898438 L 1.441406 0 L 0.0117188 0 Z "/>
</g>
<g id="glyph-0-5">
<path d="M 0.238281 -1.570312 L 1.738281 -1.570312 L 1.738281 -1.1875 L 0.238281 -1.1875 Z "/>
</g>
<g id="glyph-0-6">
<path d="M 1.722656 -4.042969 L 1.722656 -3.929688 C 1.570312 -3.925781 1.46875 -3.917969 1.410156 -3.898438 C 1.3125 -3.867188 1.265625 -3.804688 1.265625 -3.707031 C 1.265625 -3.65625 1.28125 -3.585938 1.316406 -3.496094 C 1.351562 -3.40625 1.417969 -3.257812 1.511719 -3.046875 L 2.46875 -0.917969 L 3.335938 -3.222656 C 3.375 -3.324219 3.402344 -3.410156 3.421875 -3.480469 C 3.441406 -3.550781 3.453125 -3.605469 3.453125 -3.648438 C 3.453125 -3.765625 3.402344 -3.847656 3.300781 -3.886719 C 3.242188 -3.910156 3.140625 -3.925781 3.003906 -3.929688 L 3.003906 -4.042969 L 4.253906 -4.042969 L 4.253906 -3.9375 C 4.125 -3.921875 4.03125 -3.886719 3.96875 -3.832031 C 3.875 -3.753906 3.78125 -3.601562 3.691406 -3.367188 L 2.339844 0.0703125 L 2.246094 0.0703125 L 0.738281 -3.289062 C 0.613281 -3.574219 0.511719 -3.75 0.433594 -3.820312 C 0.355469 -3.890625 0.246094 -3.929688 0.0976562 -3.9375 L 0.0976562 -4.042969 Z "/>
</g>
<g id="glyph-0-7">
<path d="M 0.472656 -0.519531 C 0.582031 -0.519531 0.726562 -0.460938 0.910156 -0.347656 C 1.089844 -0.234375 1.242188 -0.179688 1.367188 -0.179688 C 1.644531 -0.179688 1.851562 -0.273438 1.988281 -0.460938 C 2.121094 -0.648438 2.191406 -0.851562 2.191406 -1.074219 C 2.191406 -1.285156 2.136719 -1.472656 2.027344 -1.636719 C 1.839844 -1.90625 1.527344 -2.042969 1.089844 -2.042969 C 1.0625 -2.042969 1.039062 -2.042969 1.015625 -2.042969 C 0.992188 -2.042969 0.960938 -2.039062 0.929688 -2.035156 L 0.925781 -2.113281 C 1.242188 -2.226562 1.492188 -2.359375 1.675781 -2.507812 C 1.859375 -2.65625 1.953125 -2.855469 1.953125 -3.101562 C 1.953125 -3.316406 1.878906 -3.480469 1.734375 -3.59375 C 1.589844 -3.707031 1.425781 -3.765625 1.242188 -3.765625 C 1.023438 -3.765625 0.828125 -3.683594 0.664062 -3.523438 C 0.570312 -3.4375 0.472656 -3.300781 0.367188 -3.117188 L 0.273438 -3.140625 C 0.355469 -3.441406 0.503906 -3.683594 0.71875 -3.863281 C 0.9375 -4.042969 1.1875 -4.136719 1.472656 -4.136719 C 1.777344 -4.136719 2.011719 -4.050781 2.175781 -3.882812 C 2.34375 -3.71875 2.425781 -3.523438 2.425781 -3.304688 C 2.425781 -3.113281 2.355469 -2.9375 2.21875 -2.773438 C 2.140625 -2.683594 2.023438 -2.582031 1.859375 -2.46875 C 2.050781 -2.386719 2.203125 -2.289062 2.316406 -2.179688 C 2.535156 -1.972656 2.644531 -1.707031 2.644531 -1.386719 C 2.644531 -1.007812 2.496094 -0.675781 2.199219 -0.386719 C 1.902344 -0.0976562 1.476562 0.0429688 0.929688 0.0429688 C 0.683594 0.0429688 0.511719 0.0078125 0.414062 -0.0625 C 0.316406 -0.136719 0.265625 -0.214844 0.265625 -0.296875 C 0.265625 -0.347656 0.28125 -0.398438 0.316406 -0.449219 C 0.347656 -0.496094 0.402344 -0.519531 0.472656 -0.519531 Z "/>
</g>
</g>
</defs>
<g fill="rgb(29.803922%, 68.627451%, 31.372549%)" fill-opacity="1">
<use xlink:href="#glyph-0-0" x="30" y="24.583008"/>
<use xlink:href="#glyph-0-1" x="34" y="24.583008"/>
<use xlink:href="#glyph-0-1" x="37" y="24.583008"/>
<use xlink:href="#glyph-0-2" x="40" y="24.583008"/>
<use xlink:href="#glyph-0-3" x="43" y="24.583008"/>
<use xlink:href="#glyph-0-1" x="46" y="24.583008"/>
<use xlink:href="#glyph-0-1" x="49" y="24.583008"/>
<use xlink:href="#glyph-0-4" x="52" y="24.583008"/>
<use xlink:href="#glyph-0-5" x="55" y="24.583008"/>
<use xlink:href="#glyph-0-6" x="57" y="24.583008"/>
<use xlink:href="#glyph-0-7" x="61" y="24.583008"/>
</g>
</svg>
